/* XPM */
static char * heart1_xpm[] = {
"64 64 7 1",
" 	c None",
".	c #292929",
"+	c #991111",
"@	c #AD2626",
"#	c #C23232",
"$	c #FFD4D4",
"%	c #7A0000",
"        ..................            ..................        ",
"        ..................            ..................        ",
"        ..................            ..................        ",
"        ..................            ..................        ",
"    ....+++@@@@@@@@@@@@@@@....    ....##################....    ",
"    ....+++@@@@@@@@@@@@@@@....    ....##################....    ",
"    ....+++@@@@@@@@@@@@@@@....    ....##################....    ",
"    ....+++@@@@@@@@@@@@@@@....    ....##################....    ",
"....+++++++++++@@@@@@@@@@@@@@@....@@@@@@@###################....",
"....+++++++++++@@@@@@@@@@@@@@@....@@@@@@@###################....",
"....+++++++++++@@@@@@@@@@@@@@@....@@@@@@@###################....",
"....+++++++++++++++@@@@@@@@@@@@@@@@@@@@@@@@@@$$$$$$$$#######....",
"....+++++++++++++++@@@@@@@@@@@@@@@@@@@@@@@@@@$$$$$$$$#######....",
"....+++++++++++++++@@@@@@@@@@@@@@@@@@@@@@@@@@$$$$$$$$#######....",
"....+++++++++++++++@@@@@@@@@@@@@@@@@@@@@@@@@@$$$$$$$$#######....",
"....%%%%+++++++++++++++@@@@@@@@@@@@@@@@@@@@@@@@@@$$$$#######....",
"....%%%%+++++++++++++++@@@@@@@@@@@@@@@@@@@@@@@@@@$$$$#######....",
"....%%%%+++++++++++++++@@@@@@@@@@@@@@@@@@@@@@@@@@$$$$#######....",
"....%%%%+++++++++++++++@@@@@@@@@@@@@@@@@@@@@@@@@@$$$$#######....",
"....%%%%%%%+++++++++++++++@@@@@@@@@@@@@@@@@@@@@@@@@@@#######....",
"....%%%%%%%+++++++++++++++@@@@@@@@@@@@@@@@@@@@@@@@@@@#######....",
"....%%%%%%%+++++++++++++++@@@@@@@@@@@@@@@@@@@@@@@@@@@#######....",
"....%%%%%%%+++++++++++++++@@@@@@@@@@@@@@@@@@@@@@@@@@@#######....",
"....%%%%%%%%%%%+++++++++++++++@@@@@@@@@@@@@@@@@@@@@@@@@@####....",
"....%%%%%%%%%%%+++++++++++++++@@@@@@@@@@@@@@@@@@@@@@@@@@####....",
"....%%%%%%%%%%%+++++++++++++++@@@@@@@@@@@@@@@@@@@@@@@@@@####....",
"........%%%%%%%%%%%+++++++++++++++@@@@@@@@@@@@@@@@@@@@@@........",
"........%%%%%%%%%%%+++++++++++++++@@@@@@@@@@@@@@@@@@@@@@........",
"........%%%%%%%%%%%+++++++++++++++@@@@@@@@@@@@@@@@@@@@@@........",
"........%%%%%%%%%%%+++++++++++++++@@@@@@@@@@@@@@@@@@@@@@........",
"...........%%%%%%%%%%%%+++++++++++++++@@@@@@@@@@@@@@@...........",
"...........%%%%%%%%%%%%+++++++++++++++@@@@@@@@@@@@@@@...........",
"...........%%%%%%%%%%%%+++++++++++++++@@@@@@@@@@@@@@@...........",
"...........%%%%%%%%%%%%+++++++++++++++@@@@@@@@@@@@@@@...........",
"    ...........%%%%%%%%%%%+++++++++++++++@@@@@@@@...........    ",
"    ...........%%%%%%%%%%%+++++++++++++++@@@@@@@@...........    ",
"    ...........%%%%%%%%%%%+++++++++++++++@@@@@@@@...........    ",
"    ...........%%%%%%%%%%%+++++++++++++++@@@@@@@@...........    ",
"        ...........%%%%%%%%%%%+++++++++++++++...........        ",
"        ...........%%%%%%%%%%%+++++++++++++++...........        ",
"        ...........%%%%%%%%%%%+++++++++++++++...........        ",
"           ............%%%%%%%%%%%+++++++............           ",
"           ............%%%%%%%%%%%+++++++............           ",
"           ............%%%%%%%%%%%+++++++............           ",
"           ............%%%%%%%%%%%+++++++............           ",
"               ...........%%%%%%%%%%%%...........               ",
"               ...........%%%%%%%%%%%%...........               ",
"               ...........%%%%%%%%%%%%...........               ",
"               ...........%%%%%%%%%%%%...........               ",
"                   ...........%%%%...........                   ",
"                   ...........%%%%...........                   ",
"                   ...........%%%%...........                   ",
"                   ...........%%%%...........                   ",
"                       ..................                       ",
"                       ..................                       ",
"                       ..................                       ",
"                          ............                          ",
"                          ............                          ",
"                          ............                          ",
"                          ............                          ",
"                              ....                              ",
"                              ....                              ",
"                              ....                              ",
"                              ....                              "};
