/* XPM */
static char * heart4_xpm[] = {
"64 64 6 1",
" 	c None",
".	c #292929",
"+	c #1A1A1A",
"@	c #991111",
"#	c #AD2626",
"$	c #FFD4D4",
"        ..................            ..................        ",
"        ..................            ..................        ",
"        ..................            ..................        ",
"        ..................            ..................        ",
"    ....++++++++++++++++++....    ....++++++++++++++++++....    ",
"    ....++++++++++++++++++....    ....++++++++++++++++++....    ",
"    ....++++++++++++++++++....    ....++++++++++++++++++....    ",
"    ....++++++++++++++++++....    ....++++++++++++++++++....    ",
"....++++++++++++++++++++++++++....++++++++++++++++++++++++++....",
"....++++++++++++++++++++++++++....++++++++++++++++++++++++++....",
"....++++++++++++++++++++++++++....++++++++++++++++++++++++++....",
"....++++++++++++++++++++++++++++++++++++++++++++++++++++++++....",
"....++++++++++++++++++++++++++++++++++++++++++++++++++++++++....",
"....++++++++++++++++++++++++++++++++++++++++++++++++++++++++....",
"....++++++++++++++++++++++++++++++++++++++++++++++++++++++++....",
"....++++++++++++++++++++++++++++++++++++++++++++++++++++++++....",
"....++++++++++++++++++++++++++++++++++++++++++++++++++++++++....",
"....++++++++++++++++++++++++++++++++++++++++++++++++++++++++....",
"....++++++++++++++++++++++++++++++++++++++++++++++++++++++++....",
"....+++++++++++++++@@@@@@@++++++++++++#######+++++++++++++++....",
"....+++++++++++++++@@@@@@@++++++++++++#######+++++++++++++++....",
"....+++++++++++++++@@@@@@@++++++++++++#######+++++++++++++++....",
"....+++++++++++++++@@@@@@@++++++++++++#######+++++++++++++++....",
"....+++++++++++++++@@@@@@@@@@@++++####$$$####+++++++++++++++....",
"....+++++++++++++++@@@@@@@@@@@++++####$$$####+++++++++++++++....",
"....+++++++++++++++@@@@@@@@@@@++++####$$$####+++++++++++++++....",
"........+++++++++++++++@@@@@@@@@@@#######+++++++++++++++........",
"........+++++++++++++++@@@@@@@@@@@#######+++++++++++++++........",
"........+++++++++++++++@@@@@@@@@@@#######+++++++++++++++........",
"........+++++++++++++++@@@@@@@@@@@#######+++++++++++++++........",
"...........+++++++++++++++@@@@@@@@@@@@+++++++++++++++...........",
"...........+++++++++++++++@@@@@@@@@@@@+++++++++++++++...........",
"...........+++++++++++++++@@@@@@@@@@@@+++++++++++++++...........",
"...........+++++++++++++++@@@@@@@@@@@@+++++++++++++++...........",
"    ...........+++++++++++++++@@@@+++++++++++++++...........    ",
"    ...........+++++++++++++++@@@@+++++++++++++++...........    ",
"    ...........+++++++++++++++@@@@+++++++++++++++...........    ",
"    ...........+++++++++++++++@@@@+++++++++++++++...........    ",
"        ...........++++++++++++++++++++++++++...........        ",
"        ...........++++++++++++++++++++++++++...........        ",
"        ...........++++++++++++++++++++++++++...........        ",
"           ............++++++++++++++++++............           ",
"           ............++++++++++++++++++............           ",
"           ............++++++++++++++++++............           ",
"           ............++++++++++++++++++............           ",
"               ...........++++++++++++...........               ",
"               ...........++++++++++++...........               ",
"               ...........++++++++++++...........               ",
"               ...........++++++++++++...........               ",
"                   ...........++++...........                   ",
"                   ...........++++...........                   ",
"                   ...........++++...........                   ",
"                   ...........++++...........                   ",
"                       ..................                       ",
"                       ..................                       ",
"                       ..................                       ",
"                          ............                          ",
"                          ............                          ",
"                          ............                          ",
"                          ............                          ",
"                              ....                              ",
"                              ....                              ",
"                              ....                              ",
"                              ....                              "};
