/* XPM */
static char * heart2_xpm[] = {
"64 64 8 1",
" 	c None",
".	c #292929",
"+	c #1A1A1A",
"@	c #991111",
"#	c #AD2626",
"$	c #C23232",
"%	c #FFD4D4",
"&	c #7A0000",
"        ..................            ..................        ",
"        ..................            ..................        ",
"        ..................            ..................        ",
"        ..................            ..................        ",
"    ....++++++++++++++++++....    ....++++++++++++++++++....    ",
"    ....++++++++++++++++++....    ....++++++++++++++++++....    ",
"    ....++++++++++++++++++....    ....++++++++++++++++++....    ",
"    ....++++++++++++++++++....    ....++++++++++++++++++....    ",
"....++++++++++++++++++++++++++....++++++++++++++++++++++++++....",
"....++++++++++++++++++++++++++....++++++++++++++++++++++++++....",
"....++++++++++++++++++++++++++....++++++++++++++++++++++++++....",
"....+++++++@@@@@@@@#######++++++++++++#######$$$$$$$$+++++++....",
"....+++++++@@@@@@@@#######++++++++++++#######$$$$$$$$+++++++....",
"....+++++++@@@@@@@@#######++++++++++++#######$$$$$$$$+++++++....",
"....+++++++@@@@@@@@#######++++++++++++#######$$$$$$$$+++++++....",
"....+++++++@@@@@@@@@@@@#######++++#######%%%%%%%%$$$$+++++++....",
"....+++++++@@@@@@@@@@@@#######++++#######%%%%%%%%$$$$+++++++....",
"....+++++++@@@@@@@@@@@@#######++++#######%%%%%%%%$$$$+++++++....",
"....+++++++@@@@@@@@@@@@#######++++#######%%%%%%%%$$$$+++++++....",
"....+++++++@@@@@@@@@@@@@@@###################%%%%####+++++++....",
"....+++++++@@@@@@@@@@@@@@@###################%%%%####+++++++....",
"....+++++++@@@@@@@@@@@@@@@###################%%%%####+++++++....",
"....+++++++@@@@@@@@@@@@@@@###################%%%%####+++++++....",
"....+++++++&&&&@@@@@@@@@@@@@@@#######################+++++++....",
"....+++++++&&&&@@@@@@@@@@@@@@@#######################+++++++....",
"....+++++++&&&&@@@@@@@@@@@@@@@#######################+++++++....",
"........+++++++&&&&@@@@@@@@@@@@@@@###############+++++++........",
"........+++++++&&&&@@@@@@@@@@@@@@@###############+++++++........",
"........+++++++&&&&@@@@@@@@@@@@@@@###############+++++++........",
"........+++++++&&&&@@@@@@@@@@@@@@@###############+++++++........",
"...........++++++++&&&&@@@@@@@@@@@@@@@#######++++++++...........",
"...........++++++++&&&&@@@@@@@@@@@@@@@#######++++++++...........",
"...........++++++++&&&&@@@@@@@@@@@@@@@#######++++++++...........",
"...........++++++++&&&&@@@@@@@@@@@@@@@#######++++++++...........",
"    ...........++++++++&&&@@@@@@@@@@@@@@@++++++++...........    ",
"    ...........++++++++&&&@@@@@@@@@@@@@@@++++++++...........    ",
"    ...........++++++++&&&@@@@@@@@@@@@@@@++++++++...........    ",
"    ...........++++++++&&&@@@@@@@@@@@@@@@++++++++...........    ",
"        ...........+++++++&&&&@@@@@@@@+++++++...........        ",
"        ...........+++++++&&&&@@@@@@@@+++++++...........        ",
"        ...........+++++++&&&&@@@@@@@@+++++++...........        ",
"           ............+++++++&&&&+++++++............           ",
"           ............+++++++&&&&+++++++............           ",
"           ............+++++++&&&&+++++++............           ",
"           ............+++++++&&&&+++++++............           ",
"               ...........++++++++++++...........               ",
"               ...........++++++++++++...........               ",
"               ...........++++++++++++...........               ",
"               ...........++++++++++++...........               ",
"                   ...........++++...........                   ",
"                   ...........++++...........                   ",
"                   ...........++++...........                   ",
"                   ...........++++...........                   ",
"                       ..................                       ",
"                       ..................                       ",
"                       ..................                       ",
"                          ............                          ",
"                          ............                          ",
"                          ............                          ",
"                          ............                          ",
"                              ....                              ",
"                              ....                              ",
"                              ....                              ",
"                              ....                              "};
