/* XPM */
static char *monster41734977201[] = {
/* columns rows colors chars-per-pixel */
"64 64 252 2 ",
"   c #020301",
".  c #0C0000",
"X  c #010901",
"o  c #02020B",
"O  c #00090C",
"+  c #0D0507",
"@  c #140001",
"#  c #1A0001",
"$  c #120009",
"%  c #1E000A",
"&  c #130C02",
"*  c #0A0516",
"=  c #190A17",
"-  c #0E1518",
";  c #1A1917",
":  c #0D1102",
">  c #230000",
",  c #2B0000",
"<  c #290808",
"1  c #340000",
"2  c #3B0000",
"3  c #38010B",
"4  c #240E1D",
"5  c #290918",
"6  c #35081A",
"7  c #24131C",
"8  c #281417",
"9  c #35161D",
"0  c #182719",
"q  c #022111",
"w  c #2A221F",
"e  c #1C0E2B",
"r  c #190827",
"t  c #0C1925",
"y  c #1D1424",
"u  c #151924",
"i  c #1D1C24",
"p  c #15132C",
"a  c #1C142C",
"s  c #131C2C",
"d  c #1C1A2C",
"f  c #151525",
"g  c #1E0D35",
"h  c #141433",
"j  c #1C1434",
"k  c #141B31",
"l  c #1B1C34",
"z  c #1D133B",
"x  c #1D1A3A",
"c  c #161938",
"v  c #0E1536",
"b  c #230C25",
"n  c #2C0C25",
"m  c #260D2B",
"M  c #280F2D",
"N  c #290529",
"B  c #320C25",
"V  c #3C0C21",
"C  c #34052C",
"Z  c #3B042B",
"A  c #330C2C",
"S  c #3B0B2B",
"D  c #3A0426",
"F  c #231323",
"G  c #2B1325",
"H  c #2A1A25",
"J  c #24132C",
"K  c #2A112E",
"L  c #241A2B",
"P  c #2B1A2B",
"I  c #211A26",
"U  c #331225",
"Y  c #32122B",
"T  c #39132C",
"R  c #391C2B",
"E  c #240433",
"W  c #2D0433",
"Q  c #250D33",
"!  c #2C0C33",
"~  c #240E3A",
"^  c #2B0E3B",
"/  c #25073B",
"(  c #330533",
")  c #3B0535",
"_  c #330B33",
"`  c #34053A",
"'  c #3A0439",
"]  c #330B3A",
"[  c #3A0B3B",
"{  c #390A33",
"}  c #231333",
"|  c #2C1331",
" . c #241C33",
".. c #2B1A33",
"X. c #24143A",
"o. c #2C133B",
"O. c #2C1C3A",
"+. c #211C3B",
"@. c #321434",
"#. c #321936",
"$. c #3B1B33",
"%. c #33133A",
"&. c #3A133D",
"*. c #351C3A",
"=. c #381F3D",
"-. c #3B1433",
";. c #172528",
":. c #1C2638",
">. c #0F3126",
",. c #25272C",
"<. c #372329",
"1. c #232336",
"2. c #2B2234",
"3. c #26243D",
"4. c #2A2C39",
"5. c #292739",
"6. c #33223C",
"7. c #3A213E",
"8. c #362736",
"9. c #293036",
"0. c #430000",
"q. c #4A0000",
"w. c #420A1C",
"e. c #451617",
"r. c #680201",
"t. c #7A0000",
"y. c #720000",
"u. c #6F151A",
"i. c #50201E",
"p. c #42022D",
"a. c #42192B",
"s. c #460837",
"d. c #46173B",
"f. c #520D3A",
"g. c #731C24",
"h. c #412328",
"j. c #432038",
"k. c #7D2632",
"l. c #7A2826",
"z. c #191546",
"x. c #180B40",
"c. c #2E0C43",
"v. c #3A0942",
"b. c #2B1140",
"n. c #2A1A43",
"m. c #251647",
"M. c #341341",
"N. c #3B1342",
"B. c #391C43",
"V. c #272D46",
"C. c #3B2340",
"Z. c #392547",
"A. c #421242",
"S. c #4B1444",
"D. c #451B45",
"F. c #440647",
"G. c #830000",
"H. c #8B0000",
"J. c #950001",
"K. c #990000",
"L. c #971D1C",
"P. c #91121C",
"I. c #A80D18",
"U. c #A5181C",
"Y. c #B11618",
"T. c #B50E18",
"R. c #B7241A",
"E. c #991824",
"W. c #8D1629",
"Q. c #A71925",
"!. c #B21C2A",
"~. c #BA1727",
"^. c #A11F37",
"/. c #B11F32",
"(. c #8E2529",
"). c #9A242B",
"_. c #86332D",
"`. c #8B2435",
"'. c #9B2B35",
"]. c #A52429",
"[. c #BA262B",
"{. c #B7332B",
"}. c #A32B3B",
"|. c #A92836",
" X c #BA2B36",
".X c #B73339",
"XX c #AE3137",
"oX c #C60D1B",
"OX c #D7091B",
"+X c #CD141C",
"@X c #CC171A",
"#X c #D51718",
"$X c #D51B0C",
"%X c #E61718",
"&X c #F41B1C",
"*X c #C9271E",
"=X c #D9221C",
"-X c #E4271A",
";X c #D70D28",
":X c #C51926",
">X c #D31A25",
",X c #D31C2D",
"<X c #D91826",
"1X c #D51A33",
"2X c #D51C37",
"3X c #CB1E3A",
"4X c #FF0B24",
"5X c #FF0723",
"6X c #E41323",
"7X c #EA1A25",
"8X c #EC152C",
"9X c #E31D2B",
"0X c #E91626",
"qX c #F51022",
"wX c #F51A28",
"eX c #F70D32",
"rX c #E61835",
"tX c #FB1732",
"yX c #C8262A",
"uX c #DC242A",
"iX c #D52627",
"pX c #CB2B3C",
"aX c #C82639",
"sX c #DC2B35",
"dX c #D52935",
"fX c #C5333A",
"gX c #D53031",
"hX c #E72527",
"jX c #F12628",
"kX c #E22231",
"lX c #E72A39",
"zX c #FB2238",
"xX c #E03030",
"cX c #884532",
"vX c #A14139",
"bX c #BA1844",
"nX c #8D2941",
"mX c #9B3749",
"MX c #8F354D",
"NX c #BA2A47",
"BX c #AB344A",
"VX c #AA3644",
"CX c #BA3641",
"ZX c #D71D47",
"AX c #C82747",
"SX c #D32B45",
"DX c #D22541",
"FX c #CD3249",
"GX c #C73548",
"HX c #CC2E52",
"JX c #E72443",
"KX c #EA285A",
/* pixels */
"M M K M M m m m m | =.C.C.C.#.Q K m M m m m M m m M M m m | | m K K m K K m m m m | 7.C.C.C.#.K | K m m m M m m m M M m M | | M ",
"K | | K K | | m m | #.#.#.*.| K m | | | | | m m M M M m | | | M K | | | | M K M m | #.#.#.*.@.M m m | | | M m m m M M m M | | m ",
"m m m m m K K M K | | M K | | | | | #.*.#.O.M M m | M m m | | M m m m m m | M K M | | K K | | K | | #.=.=.O.| m M M M m K | | m ",
"| | M m M m m K M | K m m K | K | | #.=.=.#.| K m M m m K | | m | | m m m m m M M K K m m | | M | | #.=.=.#.| m m M M m m | | K ",
"| #.| | K K | M m K | M M | K m m | K | K M m m m K m m K | | M @.| | | | | | | M K K K m | Q m m | | | K m m m m m m m K | | m ",
"K | Q | K K m m m | | K K | M m K M m m m m M M m M M m K | | m | K K | m m m b M K | | K | K b m K m m m m m m m | M m M | | K ",
"b m m | | K M m K | | m m | K m | | K K M M Q K M M m m M | | m b m M | | K Q m Q | | m K | | m | | | | m | m | M | K m K | | m ",
"m | #.*.=.=.*.#.| | | m m K K M M M M M m M m b m | M m m | | K m | #.*.=.=.*.#.| | | m b K | m K m m m m m m m m m m m K | | m ",
"| @.*.7.7.=.#.| | | K m m m m K | @.K m m K | | m m m m m M K K | | =.B.7.*.#.| | | | m m m m K | @.K M m K | | m m m m m m | K ",
"m M M K | | K K m M K | | | K M M | | K K K M m m m | | | | K M m m K K | | M m M K | | | | K m M K | K m | M b m K | | | | K m ",
"K m m m b m | | m | | *.=.*.#.| K | | Q K | | m | | *.=.=.*.| | K K m m m m | | m | | *.=.*.#.@.K | | Q M | Q m | @.=.=.=.*.| | ",
"| | Q m m | | | M | #.=.=.=.*.#.| | K b b m | M | #.=.=.=.*.| K | K K m m | | | m | #.=.=.=.*.| | | Q b b M | | | #.=.7.=.#.| | ",
"m m m m m m M K m M K | | | | Q m | | m m K K m | | | | K M M m m m m m m m m K m m | | | K | | M K K K m K K m Q | | | | K m m ",
"m m m m M m M m | K m m m m K K m @.=.C.C.=.| m | m m m M M M m m m m m K m m m | | m m m m m | M #.=.C.7.=.| b K m m b m m m m ",
"K K K | | | | | | | | K K K K | K O.=.C.7.=.@.m | | M K | K | | K | K | | | | | | | | K M | | | K #.7.7.7.=.@.m K | | | m | | | ",
"K K m m m K | | m m m M m K | K m K K m m m m m m m M | K K | | K m m m m K | | m m m m M K K K m K K m m K K m m m m K | | | | ",
"m K m m K K | | | m m K m | | | K K M m K K | | | m m m m m K K m m | m m K | | | M | m m | m | | M m m M | | | | M m m m m m | ",
"m m K | | | M m m | M M m m M K b m M M K K K M m | | | | | K Q m m K | | | m K m m m K m m | K m m m | K M m m m K | | | | | m ",
"K | *.=.=.*.| | m m m M | m | | Q K | | K | | | | #.*.7.7.*...| | | *.=.=.#.@.| | m m M K K | | K M | | | | | | | #.=.=.=.=.| | ",
"| | *.=.=.*.| | | m | m m | K | | | M M m | | | @.#.=.=.=.*.#.| | | #.=.7.*.| | | m m | m M M | | | M m M K | | #.#.=.=.B.=.#.| ",
"m M | | | | K m m m K m m K m | M M M | K | m m | K | | | | M M m m | | | | K m m m M K K K | | | m | | m K M M | | | | K K K m ",
"| | m m m m m | | K m | M m | | m | *.7.7.#.| b | K m m b m m m | | m m m m M K | m K m m K m | m | #.7.C.#.K b K K m m m m m m ",
"| | | M | K | | M m m m M | | | K | *.C.7.*.| m @.| Q m m m m M | | | | K K K K K m m Q M K M | K | =.C.C.*.| m | | K M m Q K K ",
"K | | K m m m m | m K | m m m | | | | K K M K Q K K K m m m m m K | K K K K m m K K M K M M K | | | | K m Q K K K | K m m b b m ",
"m | | M m M M M | | m m m m | | | | | | K M M m | | | | M M m m m | | K m M K m | K K m m M | K K | | m m M K M | | K K K M m m ",
"m | | K m M M m | | =.C.C.=.#.| | | M m m M K | @.| K K M M M | m | | K m m | m K | *.C.C.=.#.| m | | K m m K m @.| | Q M M K | ",
"M | | K m M M M m | #.C.C.C.@.| | | | K | K K Q | | m m m b M J m | | m m K m m m | *.7.C.7.#.| m | | m m M M m | K m b b m m m ",
"m | | m M M M M m m M M m K | | m | *.=.=.*.| b K K K | K M M m m | | | m m | m m m K K K K K | M | | | m m K M | K | | | K m m ",
"M | | K m m M M | | m m b m m M m K #.7.7.#.| m | #.*.7.*.*.#.| K | | m m M | m @.| K m m m M Q m | | | m M M m | @.*.=.=.#.#.| ",
"m | | K m K M M | | | | | m m m K K Q | | | | | | | *.7.*.*.@.K m | | K m m M m K K K | K m m m m | | m m M K m | @.*.=.=.#.O.| ",
"m | | m m M M M m K | | | M m b | m m m m Q | | m K K K | | M M m | Y K m M K m M M K | K M m b J | | K m m K m m K M | | | M M ",
"M | | | m ! M M M K a m M M J K m J | | | | | | | m m m G m K K K K K M m J K m Q K Q Q | m J K J K @.M F J J K ! ! ! M m M M M ",
"n m } | ] ( ( C m P 4.4.j.7...a p a Q ! ! ! Q Q m G F n G P K n B U G G G G G K m o.B.Z.B.Z.1.a a a B B y u F m A ( ( ! Q ..| n ",
"K K | | ] ] ) _ m L ,.P R $...a f a K ] ] ] ~ Q a G G 4 4 U U G Y K U G 7 G L } Q o.N.N.N.n. .d a J Y K F y y m ( ) ' ! Q | K M ",
"J F m Q ! ( ] _ J G S n i d | _ F L -.d.S.N.o.} p a J n B | } j l } M n m G a a } ^ ' ) { -.L F M @.1.2.$.T L L Q ] ` W ! | P F ",
"i J n W ! ! ! Q Q M S n f l ] A G P -.d.S.A.o.j j a K n ( #.X.v h j ! _ A K a j j o.) ) Z B G F { %.5.4.&.a.A K M ! ! ! ( @.L f ",
";.L _ { ^ X.} } Z S K I K | ^ ! F 7 F K ( _ ! Q j j J C ) [ b.z z b.A.S.D.C.3.x } ! ] { M L H F M ^ o.| L m Z Z | z Q ! { -.L u ",
"d L Y _ ! } h m Z p.P } Q ^ ^ Q F H F K ! W Q g j } M M { [ b.~ ~ b.[ D.d.C.O.+.g o.%.! M P 7 = Q ^ ! M y e D Z Q j g m M A L f ",
"4 F K K X.} | K K K K K } X.X.j L L A A Q j z j M A C n J } @.( W ! } L Y A { ! X.x X.Q A A G J X.X.X.} M n M K m | } Q J | G G ",
"n K ..6.*.=.*.#.G P A B e j z z K M S { Q g h e A D B n F H K A A n F 7 n B B A j x X.Q W S n L g z j } n B b F m m Q e J P K n ",
"Y B =.*.6.Z.P $.$ $ B 5 J :.r X.! { N.&.M.o.g e G 9 # > > @ #     # @ > # # 9 P } Q o.^ W ] N ! X.r 3.I 5 6 $ * #.b ..K r K B Y ",
"n n -.Y | ..y = # > w.a.7 I | m @.%.E Q W E | G H 8 , 2 2 2 > @ # > 2 2 2 , 8 H P #.W ^ ^ | &.%.m L y 7 a.w.> @ = * ....n -.n K ",
"L N p.p.m f O + MXMX, # <.R > $ J 3.h n.M.m | 4 . , '.GXdXfXXXcXcXvXfXdXGX'., . = @.! Z.Z.z.V.a $ % 8 9 # 1 nXMX. O 1.C.s.f.@.J ",
"l b s.p.m u O . `.^.0., i.e.2 > I s p p e b G 8 > 0.[.sX>XuX{.{.{.[.uX<XsX[.q., 9 P ..6.5.3.1.2.< 1 3 e.1 0.^.`.. O ,.C.f.f.| l ",
"l b s.Z G i   @ `.E.AXCX2 , BXmX.   H G i 0 . > VX~.lXhX+XhX7XwXwX6XuX@XhXlX~.BX> . ; I P H   . mXBX, , CXAXQ.(.@   i Y D p.} l ",
"c e { Z J 7 . > '.~.lX,Xq.0.aXGX2 > 9 <.,.w , q.AX;X<X@XiXxXqX5X5XqXxXgX@X>X;XaX0.> ; ; 8 < # 1 HX Xq.q.:XlXQ.}., . F J D { } l ",
"x r ] A J 7 @ 1 Q.oX<X>XgXpX1X2XaX|., .   , '.DXJXuXJ.J.R.iX6X4X4XqXiXR.H.J.uXJXDX}., . . , |.SX2X1XdXaX>X>XoXQ.1 @ F P A &.} l ",
"x e | M G F @ 1 |.T.gXsX+XkX8XrXrXSX, . @ 1 FX1X<XiXt.t.{.yX7XwXtXkXyX{.y.t.9XrX1XHX,     > FXrX2XuXkX+XsXgXI.'.> . 7 K _ M.j h ",
"j a m J J G U w.0.r.P.~.:XoXOXOX;XDX2 # > 1 yXuX*XyXH.G.G.H.uX7XrX2Xr.r.r.G.8XeXrXGX>     # W.~.[.I.:X:X~.L.0.# ; u m W ` ` z c ",
"m G K L K L n n > 3 u.(.].U.Y.Y.!.W., # @ 1 [.@X*X*XK.J.J.J.=X>XrXdXt.r.t.H.8XeX;XNX> . X # `.VX(.L.Q.Q.E.u.< : - s | [ s.v.} j ",
"B Y @.7.6.2.L d y = @ # # > , > # . 0 ;.  , .XxXiXxX;X8X9XOXhX=X9XlX@XyX*X+XzX8XJXFX1 # : : # # > 1 0.q.q.1 < = :.+.B.S.S.D.o.X.",
"S T $.$.7.2.l l ;.t o O       X X X ;.;.  # ].hX@XhX0XzXzX&X-X$X%XwXhXjXjX%XjX<X1X/.2 , ; 0 & . . # > , > > P P P 2.B.S.S.A.#. .",
"B U Y Y K } j j p h h k ;.s ;.s 0 -   .   , !.<X%XjX6X6X6X%X-X-X7X&X%X%X%X$XhXuX:X|.2 @     . % H 8.K R T 5 *.M | X.| | | } d f ",
"G G n M m K ! ~ ~ X.+.X.z p a f - 8 3 3 @ > P.T.<X9X9X9X9X9X-XhXhXwX&X&X&X%X#XyX).l.2 > < < , , = L 5.Z.Z.o.! r | ! Q m e y a a ",
"G P | K | _ ] ] ` ` ( W ( ( [ =.O < bXbX> @ > 0.Y.oX1X9XsXuX#X#X@X>X7XwXqXqXoXL., @ > 2 NXNXHXnX# * ;.:.V.V.X.] %._ M M m M A C ",
"} L } m ! ] ( ( ' ' ) ' ( ( ( B # 3 KXDX1 . . # _.). XXX.X.X X XXXXXfXyX1XiX]._..   @ , BXAXHXNX1 @ L t t l e %._ _ K a b m C C ",
"J } X.| ! ! ] ! W M | | K r * # mXGXJX3X, . @ # @ . . @ , 1 , > @ # 1 1 , > @     X q ;.. 1 AX3XNXmX, # K m ] N @.| d ;.v s } Q ",
"Q o.o.! Q Q M Q m | 2.6.4.,.- @ mX!.1X X, . . .   X X   @ @ . o o o $ @ .         X >.>.X > }.AXSX.X0., n b _ M @...d t s v X.^ ",
"~ X.o.Q Q Q K m L P 2.9.9.,.;.- @ q.~.aX,   0 >.u ; 8 8 7 b m Q j j  .a F y F F L = 2.8.h.e.2 0.U.].2 , R L m m K G F y e Q ` ' ",
"Q o.o.Q Q Q J J } L I d ; ,.;.7   > I.!.,   ;.- } @.S U L L ` ` c.o.x l a J A Y @.K j.B 6 8 @ > L.U.0.> j.O.m ! B K G P K ! ` ` ",
"Q | O.Q m Q K m | n M n n n n U % 2 ).].1 . K E [ [ d.$.1.1.M.v.' ] l k t a C Z ) ( %.b 4 ;   < vX).0.> @.O.^ M.-.-.R 8.2.O.n.b.",
"M _ | ! m m K m M @.@.@._ S C C $ , k.g., @ %.N.N.N.d.8.4.5.N.F.s.[ X.x l a _ [ s.' ] | 6.:.    l.u.1 < o.m.^ b._ T R <.8.O.+.z.",
"A Y _ M m m K J | } o.%.] ` ` ! O.= < > 8 ; X.r x.z A Y I d ` ' ( ( A n b e a Q E M.M.^ r * i <.> > 5 y z.z.m./ S Z w.w.U K } j ",
"B A -.n m J J J X.X.~ Q / E c.b.x - $ . 8 y m.z.z.z M G F } ] v._ Y S S G G a l X.^ E o.X.r 2.= . . ; x x.z.m.c.{ D p.6 6 n } z "
};
