/* XPM */
static char *monster21734977201[] = {
/* columns rows colors chars-per-pixel */
"64 64 247 2 ",
"   c #030201",
".  c #0C0000",
"X  c #000A00",
"o  c #00010A",
"O  c #00090D",
"+  c #0C0706",
"@  c #140000",
"#  c #1A0001",
"$  c #120009",
"%  c #1E000A",
"&  c #160C03",
"*  c #071105",
"=  c #0E0417",
"-  c #190818",
";  c #081C1B",
":  c #1B1313",
">  c #181619",
",  c #1B1D0F",
"<  c #240000",
"1  c #2B0000",
"2  c #23030B",
"3  c #2B080A",
"4  c #330000",
"5  c #3B0000",
"6  c #37010A",
"7  c #240E1D",
"8  c #290A19",
"9  c #3C061B",
"0  c #360C1D",
"q  c #23131E",
"w  c #2C121C",
"e  c #261718",
"r  c #35161D",
"t  c #032415",
"y  c #162618",
"u  c #2A221F",
"i  c #1C0D2C",
"p  c #180926",
"a  c #0C1825",
"s  c #1C1424",
"d  c #141924",
"f  c #1B1B25",
"g  c #15152B",
"h  c #1C142C",
"j  c #131B2C",
"k  c #1D1A2B",
"l  c #161524",
"z  c #1C0D31",
"x  c #1D0D3A",
"c  c #151434",
"v  c #1C1434",
"b  c #1B1C34",
"n  c #1C133B",
"m  c #1D1B3A",
"M  c #151A36",
"N  c #230C24",
"B  c #2C0C25",
"V  c #260D2B",
"C  c #290F2D",
"Z  c #27042B",
"A  c #320C24",
"S  c #3A0A25",
"D  c #34052D",
"F  c #3B042B",
"G  c #320C2C",
"H  c #3C0B2D",
"J  c #360125",
"K  c #231323",
"L  c #2B1324",
"P  c #241825",
"I  c #2B1B25",
"U  c #24132C",
"Y  c #2A112E",
"T  c #241A2B",
"R  c #2C1A2A",
"E  c #301425",
"W  c #32122B",
"Q  c #3A1A2A",
"!  c #250D33",
"~  c #2B0C33",
"^  c #2C0C3A",
"/  c #270837",
"(  c #340633",
")  c #3B0533",
"_  c #330B33",
"`  c #390C34",
"'  c #35053A",
"]  c #3A033B",
"[  c #330B3A",
"{  c #3A0B3B",
"}  c #241333",
"|  c #2C1331",
" . c #241B33",
".. c #2B1B33",
"X. c #24143A",
"o. c #2D123C",
"O. c #231D3D",
"+. c #2B1C3C",
"@. c #311434",
"#. c #3B1234",
"$. c #321936",
"%. c #3C1A33",
"&. c #321239",
"*. c #3B153C",
"=. c #351C3A",
"-. c #391F3D",
";. c #192528",
":. c #1D2739",
">. c #24252B",
",. c #262B25",
"<. c #232435",
"1. c #2B2333",
"2. c #26243D",
"3. c #2C233C",
"4. c #282937",
"5. c #32213E",
"6. c #39213E",
"7. c #352837",
"8. c #372324",
"9. c #440000",
"0. c #490000",
"q. c #410A1C",
"w. c #441314",
"e. c #530000",
"r. c #660200",
"t. c #7A0000",
"y. c #730000",
"u. c #6C1617",
"i. c #761A1B",
"p. c #50201E",
"a. c #43072C",
"s. c #421A2A",
"d. c #430933",
"f. c #42023D",
"g. c #480A37",
"h. c #44143D",
"j. c #461939",
"k. c #520D3A",
"l. c #482135",
"z. c #402126",
"x. c #782932",
"c. c #742625",
"v. c #1B0D43",
"b. c #161646",
"n. c #360B41",
"m. c #2B1141",
"M. c #251643",
"N. c #321343",
"B. c #3A1342",
"V. c #3A1C49",
"C. c #2C2746",
"Z. c #3B2340",
"A. c #372346",
"S. c #480443",
"D. c #431342",
"F. c #4B1343",
"G. c #431C45",
"H. c #422440",
"J. c #870000",
"K. c #8B0000",
"L. c #940000",
"P. c #9A0000",
"I. c #991A1A",
"U. c #8A191D",
"Y. c #A60C16",
"T. c #AA1A17",
"R. c #B6161A",
"E. c #97231E",
"W. c #B7241A",
"Q. c #931726",
"!. c #A81925",
"~. c #B81828",
"^. c #A11F37",
"/. c #B11F32",
"(. c #95282C",
"). c #87322D",
"_. c #8B2435",
"`. c #9A2A35",
"'. c #932E2C",
"]. c #A62123",
"[. c #A1242C",
"{. c #B9272A",
"}. c #B8332B",
"|. c #A32B3B",
" X c #A42835",
".X c #B72C36",
"XX c #B8323A",
"oX c #AE3137",
"OX c #C70B0C",
"+X c #C60B1C",
"@X c #CA161B",
"#X c #D71719",
"$X c #DD0F19",
"%X c #E61719",
"&X c #F41B1C",
"*X c #C9271E",
"=X c #D22816",
"-X c #E6251A",
";X c #C81726",
":X c #D41A24",
">X c #D31C2D",
",X c #DC1D2E",
"<X c #D81524",
"1X c #CB1D35",
"2X c #D51A33",
"3X c #D81A35",
"4X c #DC0E2F",
"5X c #FF0B24",
"6X c #FF0723",
"7X c #E31423",
"8X c #E31C2B",
"9X c #E91827",
"0X c #F51022",
"qX c #F61A29",
"wX c #E71837",
"eX c #F20D31",
"rX c #C9262A",
"tX c #D72628",
"yX c #DC3329",
"uX c #CB2A3C",
"iX c #C72838",
"pX c #D72837",
"aX c #C4323A",
"sX c #C93130",
"dX c #D73038",
"fX c #E2232B",
"gX c #EA2426",
"hX c #F12628",
"jX c #E72938",
"kX c #F52538",
"lX c #884532",
"zX c #A04238",
"xX c #B31C44",
"cX c #8D2941",
"vX c #9B334A",
"bX c #8F354D",
"nX c #B92B47",
"mX c #AB344A",
"MX c #A73747",
"NX c #B7304B",
"BX c #EE1D45",
"VX c #C72745",
"CX c #D62946",
"ZX c #C93448",
"AX c #D92852",
"SX c #E92641",
"DX c #E62F5B",
/* pixels */
"C Y Y Y V V V V V | V.6.6.6.=.U | V } C C V V V V Y C V V | | V Y | V Y C V V V V | Z.Z.Z.Z.$.V | | V V V V V V V Y V V V | | V ",
"Y Y C | C | | C V | $.$.=.=.@.C V V C | | C V V V C C V Y | | C Y Y | | | | C V V | $.$.$.=.$.C V V | | | | V V V V V V Y | | C ",
"V V V V V | Y V Y | | V Y | | Y | | $.$.=.$.| C V C C V Y | | V V V V V V | Y C V | | Y | | | | | | $.-.-.| | V V V V V | | | V ",
"| | Y V V V V | V | | V V Y Y Y | | -.-.=.$.| Y V | V V Y | | V | | V V V V V Y V | Y V V C | V | | $.-.-.$.| C Y | | V C | | V ",
"| | | | Y Y | C V | | V Y Y Y V V | Y | | C V V V | Y V V | | Y $.| | | | | | C V | | V V | Y V V | | | C V V V V Y C V Y | | V ",
"| | | Y | V V V V | | Y Y | Y V Y Y V V V V V V V C V V Y | | V | Y Y | V V V V V | | Y | | Y V | V V V V V V V V Y C V V | | Y ",
"V V V | | Y V V Y | | C V | Y V | | | Y V C V | V C V V C | | V V V ~ | | | V V C | | V V | Y V | | | | V | V | V | V V | | | V ",
"V | $.=.-.-.=.$.| | Y V V Y Y Y C V V Y V V V V V | Y V Y | | V V Y ..$.-.-.-.$.| | | V V V | V V V V V V C V V V V Y V V | | V ",
"| | =.-.6.-.$.| | | Y C V V V Y | | | V V Y | | V V V V V V Y | | | =.6.6.=.$.| | | | V V V V Y | | | V V V | V V V V V V V | Y ",
"V V Y | | | Y Y V C Y | | | | V V | | Y V | V V V V | | | | C V V V V | | | Y V C Y | | | | | V V | | Y C | | V V | | | | | Y V ",
"| V V V V V | | V | | =.-.-.$.| Y | | V Y | Y V | | =.6.6.=.| | | V V V V V | | V Y | =.-.$.=.| Y | | ~ Y | | V | | -.6.-.=.| | ",
"| | V V V Y | | V | $.-.-.-.$.$.| | | V V V | C | =.=.6.-.=.| | | | C V V | | | V | $.-.-.-.=.| | | V N V V | V | $.-.-.6.$.| | ",
"V V V V V V C | V V Y | } Y | Y V | | V V | V V Y | | | | V V V V V V V V V V Y V Y | | | | | | V | | Y V Y Y V C Y | | | V V V ",
"V V V V C C V V | | V V V V Y Y Y | -.Z.Z.-.| V Y C V V V V V V V V V V Y C V V | | V V V V C Y Y | -.Z.6.-.| V Y V V V V V V V ",
"Y Y | Y | Y | | | | | C C | | | Y $.-.Z.6.-.| Y | | Y Y Y | | | C Y Y | | | | | | | | C V | | | Y $.6.Z.Z.-.| V | | | Y Y | | | ",
"| Y V V V Y | | V V V C C C Y | V | V V V V V V V C C Y Y | Y | Y Y V V V C | | V V V V V Y Y | V Y V V V V | V V V V | Y | | | ",
"V C V Y V | | Y V | V V | V | | C | Y V Y | | | Y V V V V V Y | | V V V C C | | | V V Y V | V | | Y V V Y Y | | Y Y V V V V V | ",
"V V Y | | | Y V Y Y V C V | V | V V V C | V Y V Y ~ | | | | Y C V V | | | | V | V V | V V V | Y V V V | Y Y Y V V Y | | | | | V ",
"C | =.-.-.=.| | V C | V V | Y | V Y | | | | | | | $.=.-.6.=.$.| V | $.Z.-.=.| | | V | V Y Y | | Y Y | | | Y Y | | $.-.-.6.-.| | ",
"| | =.-.-.=.| | | V V Y | V Y | | | V V V | | | ..$.-.-.6.=.$.| | | $.6.6.$.| | | V V C V Y V | | | V V C Y | | $.$.-.-.6.-.$.| ",
"V V | | | | Y V V C V V V Y V | ! | V | C | V V | Y | | | Y Y C | Y | | | | V V C V | V V | | | | V | | Y V C Y | | | | | V V V ",
"| | V V V V Y Y | V | V Y V | | V | $.Z.6.$.Y V | | V V V V V V | V V V V V C Y Y V Y V V Y C | V | $.-.Z.$.! V Y Y V V V V V V ",
"| | Y Y Y Y | | | V Y V V | C | Y | $.Z.Z.$.| V | | Y V V V V Y | | | | | | | | | V V Y V | V | Y | -.Z.Z.$.| V | | Y C V V } C ",
"| | | | V V V V V | V Y V C | | | | | | | C Y C C | C V V V V V | Y | V C V V V V V | V C V | | | | | Y V | | V Y | C V V V V V ",
"V | | V V V Y V | | V V V V | | Y | Y | | C C V | | | | C C V V V | | Y V C | V | Y Y V V V | Y V | | Y V Y Y V | | Y Y C V V C ",
"V | | Y V C Y V | | -.Z.Z.-.$.| | | Y V V V Y | | | | Y V C Y Y V | | C V V Y V | | =.Z.Z.-.$.| V | | C V V Y V $.| | C C C C | ",
"V | | Y V C C V V | $.Z.Z.-.| | | | | Y | Y Y Y | Y V V N V V V V | | Y V C C V V | $.Z.Z.-.$.| V | | Y V V Y V | | V V V V V V ",
"V | | C V C Y C V V V Y V | | | V Y =.6.6.$.| V Y C | | Y Y C Y V | | Y V V | V V V Y V | Y | Y Y | | Y V V Y V Y Y | Y V | V V ",
"C | | Y C C C V | | V V V V V C V Y $.Z.-.=.| V | $.=.-.-.=.$.| C | | C V Y Y V | | Y V V V V V V | | Y V V Y V | $.$.-.-.$.$.| ",
"V | | C V C C C | | | | Y V V V | Y Y C | | | | | | =.6.-.$.@.Y V | | C V V | V Y | | | | V V V V | | C V Y Y V | | -.-.-.$.| | ",
"V | | C V C C C V V | | | C N V | Y V V V ! Y | C C | | | | Y Y V | | C V V V V V Y Y | | V V V U | | Y V Y C U V | C | | | | | ",
"Y | | } V C _ C Y Y U U C C Y U U V } | | ~ | | | V V N V N Y Y C Y R Y V Y Y V Y Y ! ~ ! V U Y U Y @.C N U Y V ~ ~ ~ V V Y V Y ",
"C C } | ( ( ( D V T 4.7.l.j...k k h } ! ^ ! ~ ! V Y L 7 L E E B A E L L L L Y Y ! o.V.A.A.Z.<.h g h G A s d s V G ( ( / ~ } Y A ",
"W C } ~ [ [ ) _ V T >.1.$.%. .h g h C _ [ [ ! ! U K L 7 L E W N W W L L L L U U ! o.N.B.B.-. .k h U A R P s s V _ ) ' ( } | Y Y ",
"K N V C ~ ( [ ~ U Y G A f k | _ s Y #.h.F.B.^ v h h V B B |  .v v } V B B K s h } ^ { ) ) H R P G @.<.4.%.Q T U ~ [ ' / ~ | R K ",
"k U C ~ ^ ~ ~ ~ C Y S B d b [ G L I j.h.F.D.o.} c h C C G &.n M M v ~ _ _ | k v } o.] F D E L K _ &.2.3.%.d.W Y C ~ ~ ~ _ @.T l ",
";.T #.` ^ X.X.} F H Y U ! | ^ ! K q I Y _ _ ~ z v v Y D ) { m.n n m.D.F.G.-.2.O.! ^ [ _ C U K 7 C ~ | | } U F F ! v ! / _ W T d ",
"f U W G ! ! h i F a.R k | [ ^ ! P q K C / ~ ~ ! h } ~ C ( { m.^ X.^ B.D.G.-.+.+.z o.&.~ Y R q q ! ^ ~ } h N F F } v } ! G _ T l ",
"7 N Y } | X.} Y Y Y Y C } X.m.z R L G G ! n v v ~ ( G B U  .^ ( / / } | W G G _ v m X.! G G L s X.m.X.} V B B Y V ! } V Y Y R N ",
"B L ..5.-.-.=.$.L R G A s M n v } C G _ ! z c i G A A 8 q U W B A B K > B A S C X.m m ! D H C U v n v } B A N s C Y ! U U R Y A ",
"W A -.=.5.6.$.Q = $ 9 0 h <.p X._ _ B.B.N.o.z V L w # # < # & + . # @ < # # E R | } m.^ ~ [ Z _ X.g 2.T 8 0 $ = $.N ..Y s Y W W ",
"C B ` G Y 1.p > # 2 q.z.q s Y V @.*.Z ! / Z ~ U I w 4 5 9.4 < @ # < 5 5 5 4 3 >.R &.~ ^ ^ ^ *.&.V Y s : s.q.< $ - = T ..G _ B B ",
"U N d.a.V d O $ bXcX1 # 8.Q 2 $ U C.c M.N.V ..7 . 1 '.ZXuXuXzXlXlXzXaXuXZX'.1 @ 8 $.~ A.C.2.2.U = # w r # 4 _.bX. O 2.6.g.k.@.U ",
"b N g.a.N d O . _.`.9.4 p.w.5 2 P j a g s N w 8 1 0.{.pX#XtXrX}.}.{.fX<XpX{.0.1 w R ..5.3.2.:.1.1 5 6 w.4 9.`._.@ X <.6.k.k.| b ",
"v i g.a.Y f   # _.!.iXNX5 1 mXvX+   I L k f . < mX~.jXgX@XtX7XqXqX%XfX@XgXjX~.mX< . ;.P I I o @ vXmX1 4 XXVX!._.@   P Y F ) Y b ",
"b i ) D L s . < |.!.jXrX0.0..XZX5 1 r 8.,.u 1 0.VX<X:X@XtXjX0X5X5X0XjXtX@X:X<XVX9.# : : e 3 # 4 ZXnX9.0.;XjX~.|.< . P Y J H v b ",
"m i _ B Y q @ 4 !.+X<X>XsXpX2X3X1X X1 . . 1 `.uXjX2XL.J.W.=X0X5X5X9XtXW.K.P.tXSXCX|.1   . 1 |.pX3X2XdXrX:X:X+X!.5 @ K R G *.} b ",
"m z [ G C P . < |.Y.dXtX@XjXpX3XwXZX<     2 ZXwXeXfXt.y.}.sXwXqXqXqXrX}.t.t.tX,X4XZX1 . . 1 CXwXwX8XfX@XpXdXY. X1 @ > Y ~ $.v c ",
"M v [ ' ( Y ;.e @ 5 (.@X@X@XY.].~.Q.< +   < ZXBXeXeXJ.r.r.y.pXwX9X8XL.J.J.K.rXtXtXsX4 # @ 4 VX+X$XOXOXR.{.I.r.5 9 L P h h v v b ",
"c z _ f.{ | j ; * 3 i.I.!.!.E.'.MXx.#     < .X4XeXeXL.t.r.t.1XwX%X:XP.L.P.L.*X*X@X{.1 . $ < Q.!.W.T.T.].).u.6 # B L Y } } } U Y ",
"Y @.h.F.F.*. .d : 3 4 0.0.9.4 < < # + * # 5 ZXSX9XkX@X*XrX@XjX8X=XyX@X,X,X:XyX=XfXXX4 . >.e # 1 1 1 1 < < 2 8 K R ..=.6.j.h.` ` ",
"U ..*.F.G.*. .k P E # 1 1 < @ . . & y , < 5 /.>X<XgX-XgXhX7XqX%X=X=X<XkXkX8XfX@X:X{.<   >.;.    .         o =  . .+.-.j.j.j.s.a.",
"j k Y Y | | Y U V @.8 A W B 7.I # @     @ 4  X;X,XfX%X%X%X%X0X-X-X-X#X%X7X7X9X9X#X!.4   o o : ;.;.;.:.j j g c m v X.| Y W E A A ",
"h k h P U U ! | Z C i } P s f q 2 6 < < < 4 U.(.rX#X%X&X&X&XhXgX-X-XhX9X8X9X9X8XR.U.< . 6 3 : y a c b.C.C.C.M.x X.X.U i N N 7 w ",
"H W W Y Y C _ _ | ! m j a ; o @ vXNXVXNX5 < @ 1 E.@X0X0X&XfX@X#X$X$XfXjXwX8X+XT.9.# . # xXmX& O } m.V.V.V.N.^ / o.o.} U s s f f ",
"H G Y U U K G D &.p v a a P @ 5 NXAXxXmX1 @   . ).].1X>XrXaXoXXXiXiXaX.X.X.X[.'.# . + 1 AXDX1 + C ' ' ' n.n.n.n.[ | ~ V V s l > ",
"V } :.a a f Y A C _ U Q # 1 MXNXCXVX4 . y t X     @ < 4 5 1 # @ # # 1 < . . . @ # # . 4 uXBXVXmX# = N ~ _ ( _ _ { ` _ _ C C C V ",
"~ X.b j a d U C C @.Y j.1 9.XXuXVX|.3 X t ; X     X   . @ $ o O o   .   X X X     @ @ 5 1X4X~.MX2 = p s V C B ~ &.#._ ( _ G _ C ",
"] [ o.U s K B B _ $.R Q < 9.].].0.4 6 3 > R s P K K K s h h z v } } P q e > f > ;.y   4 1X;Xe.# : l f f k P Y Y | | ! C Z ~ ~ ~ ",
"n.[ @.K K q C B Y $. .E < 5 I.E.< . z.l.%.H.Y Y G W Y b M m ^ ^ [ [ T R A A C  .; ;.  1 ~.Y.<   > f >.4.4.1.U s Y Y } | X.! ! ! ",
"/ X.} K 7 w A B ! ~ o.B 1 9.I.`.@   7.7.$.G.) D ` #.+.<.:.O.{ f.S.] Y P 0 J D ( z Y . 1 (.(.1 + q L 1.7.7...T h  ...+.5.C.3.+.O.",
"n m  .K 8 8 A _ ^ ^ X.! 2 5 u.c..   = k p [ D.) h.*.4.C.C.C.*.S.S.S.} T A ) { n.G.o.. # c.x.# $ Y C B C | | } T  . .+.C.=.M.+.} ",
"v  .Y A 9 9 F D m.M.b.c - 3 3 < I f s } ~ / B.^ ! s U Y W G C ( ' ^ k f N V / v.p / e e # 3 - +.[ _ ( Z ~ ~ | | V ! ~ | @._ ( _ ",
"v | W 0 q.q.a.( m.v.b.b.b > + + > T p o.^ / m.z v k U L S H G ( n.m.k f P } b.b.M.M.K w $ # - } [ ] ' ' &.&.~ V ~ C C D D D H ) "
};
