/* XPM */
static char *monster31734977201[] = {
/* columns rows colors chars-per-pixel */
"64 64 249 2 ",
"   c #020101",
".  c #0B0001",
"X  c #010B01",
"o  c #0D020B",
"O  c #00090C",
"+  c #080607",
"@  c #140000",
"#  c #1C0000",
"$  c #150009",
"%  c #1C000B",
"&  c #001103",
"*  c #1A0918",
"=  c #081816",
"-  c #1A151C",
";  c #1C1C1C",
":  c #151718",
">  c #120D12",
",  c #240001",
"<  c #2C0000",
"1  c #250307",
"2  c #330000",
"3  c #3A0002",
"4  c #370108",
"5  c #26001D",
"6  c #2C061D",
"7  c #270B18",
"8  c #37091B",
"9  c #22121D",
"0  c #28191C",
"q  c #32131D",
"w  c #35141B",
"e  c #0C231E",
"r  c #1D2D1D",
"t  c #28281E",
"y  c #0A0A24",
"u  c #1C0E2B",
"i  c #180728",
"p  c #0C1B27",
"a  c #141625",
"s  c #1C1425",
"d  c #1B1B24",
"f  c #13142B",
"g  c #1D132C",
"h  c #151C2C",
"j  c #1C1A2C",
"k  c #151825",
"l  c #1C1333",
"z  c #141B31",
"x  c #1C1C34",
"c  c #1A1738",
"v  c #121632",
"b  c #2B0623",
"n  c #230C25",
"m  c #2C0C25",
"M  c #24032D",
"N  c #2C062D",
"B  c #260D2B",
"V  c #290F2D",
"C  c #230424",
"Z  c #330326",
"A  c #320C25",
"S  c #3B0C22",
"D  c #31052D",
"F  c #3C042C",
"G  c #330C2C",
"H  c #3C0A2A",
"J  c #3E0621",
"K  c #231324",
"L  c #2B1323",
"P  c #23132C",
"I  c #2A112E",
"U  c #231A2C",
"Y  c #2B1A2C",
"T  c #271B22",
"R  c #32132B",
"E  c #391629",
"W  c #250331",
"Q  c #2D0534",
"!  c #250D32",
"~  c #2C0C33",
"^  c #230E3A",
"/  c #2C0B3B",
"(  c #340633",
")  c #3C0434",
"_  c #330B33",
"`  c #3A0C34",
"'  c #330C3A",
"]  c #3A0C3A",
"[  c #37063A",
"{  c #241332",
"}  c #2C1331",
"|  c #241A34",
" . c #2C1B33",
".. c #24133B",
"X. c #2C133A",
"o. c #241B3C",
"O. c #2D1D39",
"+. c #311434",
"@. c #3A1235",
"#. c #321936",
"$. c #3A1B35",
"%. c #33133A",
"&. c #39143B",
"*. c #351C3A",
"=. c #391E3C",
"-. c #1B222B",
";. c #162826",
":. c #172635",
">. c #142B39",
",. c #212223",
"<. c #2B242C",
"1. c #262B2A",
"2. c #2C223D",
"3. c #272637",
"4. c #33223C",
"5. c #3A213E",
"6. c #342735",
"7. c #2D2F31",
"8. c #440000",
"9. c #490000",
"0. c #45000B",
"q. c #590000",
"w. c #400D1C",
"e. c #441314",
"r. c #730100",
"t. c #7D0200",
"y. c #771102",
"u. c #691014",
"i. c #50201E",
"p. c #43032D",
"a. c #430929",
"s. c #42192B",
"d. c #4A0334",
"f. c #440A34",
"g. c #450836",
"h. c #44143B",
"j. c #46163A",
"k. c #520D3A",
"l. c #42212F",
"z. c #2F472F",
"x. c #280A40",
"c. c #271541",
"v. c #3A1445",
"b. c #351B42",
"n. c #391945",
"m. c #320D43",
"M. c #162C42",
"N. c #2B2745",
"B. c #3B2241",
"V. c #352245",
"C. c #441643",
"Z. c #830000",
"A. c #8E0000",
"S. c #9F0000",
"D. c #94161B",
"F. c #8B0D19",
"G. c #A60000",
"H. c #AA161A",
"J. c #B9181A",
"K. c #AC0A18",
"L. c #9C221F",
"P. c #B8201B",
"I. c #8D152B",
"U. c #A41628",
"Y. c #B61826",
"T. c #A11F37",
"R. c #B91D36",
"E. c #8A2735",
"W. c #9B2735",
"Q. c #8F272C",
"!. c #A62227",
"~. c #B9252B",
"^. c #AA2331",
"/. c #A42C38",
"(. c #BE2933",
"). c #B82635",
"_. c #A53B34",
"`. c #BC323C",
"'. c #B2322F",
"]. c #C70A0E",
"[. c #C40E1C",
"{. c #D40E1A",
"}. c #CB121D",
"|. c #C01A1C",
" X c #DD1E1C",
".X c #D0131A",
"XX c #E31A14",
"oX c #ED151B",
"OX c #E51C1B",
"+X c #EB1D1E",
"@X c #E31713",
"#X c #F0151D",
"$X c #DA221D",
"%X c #D52319",
"&X c #CE281C",
"*X c #C60826",
"=X c #D60B26",
"-X c #C71727",
";X c #D41C24",
":X c #DC1B2C",
">X c #D71724",
",X c #CA1A33",
"<X c #D31933",
"1X c #DA1C34",
"2X c #E31623",
"3X c #E41D24",
"4X c #EB1B24",
"5X c #E51C2B",
"6X c #EA1C2A",
"7X c #EA152B",
"8X c #E41B34",
"9X c #EB1C33",
"0X c #EC1737",
"qX c #E50F35",
"wX c #CD2B2B",
"eX c #CC222F",
"rX c #DB2222",
"tX c #D4272A",
"yX c #C22B3A",
"uX c #C52738",
"iX c #D92A37",
"pX c #C3343E",
"aX c #D73037",
"sX c #E32223",
"dX c #E72229",
"fX c #EB2537",
"gX c #E42D33",
"hX c #E52438",
"jX c #9D1C45",
"kX c #8D2941",
"lX c #9A2E4B",
"zX c #913A4C",
"xX c #BC2745",
"cX c #A53446",
"vX c #BD3545",
"bX c #B82957",
"nX c #AB1143",
"mX c #CE1650",
"MX c #E01D55",
"NX c #C62C4F",
"BX c #D32E43",
"VX c #DA2E4C",
"CX c #C6324B",
"ZX c #C33B4F",
"AX c #C52B59",
"SX c #DD2E57",
"DX c #E82641",
"FX c #BB4150",
"GX c #C54051",
/* pixels */
"V I I I V B B B n } =.B.5.=.#.B } I B B B B B B B V V B V } } V I I I V I B B n B } 5.B.5.5.*.B } I V B B B B B B I V B V } } B ",
"I I V } I } I I ! } *.#.*.*.} I B B I } } I B B B } B B I } } B I I I } } I I ! V } *.#.*.*.} I B B I } } V B B B V B B I } } B ",
"B B B B B I V I I } } V I } } } I } *.*.*.#.} B B V I B I } } B B B B V B V I I V } } I B } } } I } *.*.*.#.} B B V B B } } } V ",
"} } I B V B V I V } I B B } } I } } *.=.=.#.} B B } B B I } } B } } B B V B V I V I I B B I } V } } *.=.=.#.} I B } I B B } } B ",
"} #.} } I I } ! B I } V B I I B B } I } } V B B B I V B V } } V } } } } } } I I B I } V B } V B I I I } } B B B B I I B I } } I ",
"V } } I V V B n B } } I } } I B V I B B B B B B B I B B I } } B } } I } V B B B B } } I I } I B B I B B B B B B B I B B V } } B ",
"n B ! } } } I B I } } B B } I B } } } I B V V } B V B B I } } B B B I } } } V B I } } B V } } B } } I } V I I I V I B B I } } B ",
"B } #.*.=.=.*.#.} } } B B V } B V B B I B B B B B } I B B } } I B I } *.=.*.*.*.I } } B B I I V I B V B B B B B B I V B I } } B ",
"I #.*.=.5.=.#.} } } I B B B B V } } } B B I } V B B B B B V } I } } *.5.5.*.#.} } } } B B B B V } } } B B } } ! B B B B B B I I ",
"B B I } } } I I B V I } } } I I V } } I I I V B B V } } } I I V B B I } } I I V B I I } } { V V I I } I V } V n B V } } } } I B ",
"I V B B n B } } B I #.*.=.*.*.} I } } ! I } } B } } *.=.5.*.} } I V B B B V } } B } #.*.=.*.*.} I } } ~ V } } B } } *.5.=.*.} } ",
"} } ! B B } } } V } #.*.=.*.*.#.} } I n n V } V } *.=.4.=.*.} I } I I B B } } } B } #.*.=.=.#.#.} } ! n n B } } } *.=.5.4.*.} } ",
"B B B B B B V I B B I } } } } } B } } I B } V B I } I } } V B B V B B B B B B I B B } } I } } } V I } B B I I B I I } } } V V B ",
"B B B B V B V B } } B B n B I ! I } =.5.B.=.} n V V B B B B B V B B B B V I V B } } V B B B I I V #.=.B.B.=.} n V V B B B B B B ",
"I V I I } } } } } } } I I I } } I #.5.5.b.5.#.B } } I } } I } } I V I } } } I } } } I I V } } } B #.5.B.=.=.#.B } } } V I I } } ",
"} I B V B I I } V B B V B V } I B I I B B V B B B V V I I I } } I I B B B I } } B B B V B I I I B I I B B V B B B V V I } } I } ",
"B V B B I I } } B B I B ! I I } } I V B I I } } I V B B B B I I V V V V B V } } I I B } B I I I } I B B B } } } } V B B B B B } ",
"B B I } } } I B } I B I I I I } B B V V I I B I V I } } } } I I B V I } } } V I V V B B B V I } B B B } } V B B B I } } } } } B ",
"I } *.=.=.*.} } V B B I V I I I B I } } } } } } } #.*.5.5.*.} } V } *.*.=.*.} } } B B I } B I } V I } I } } } } } #.*.=.4.*.} } ",
"} } *.=.=.*.} } } B I B V I I } } } V B B } } } } *.=.b.5.*.*.} } } *.4.=.*.} } } B I B B } I } } } I B B } } } #.*.=.=.=.=.*.} ",
"B I } } } } I B } B B B B I I } I I I } I B V B } } } } } I I V I I } } } } I B B B V V V I } I } I I I } V B B I } } } } V V V ",
"I } B B B B B I V B B } V V I I B I *.5.5.*.} n } } B n n B B B } I B B B B B } } B B I B I I } B } *.5.=.*.} n } I V B B B B B ",
"} } } I } I } } B } I V V } I } I #.*.5.5.*.} B } } } V B B B V } } } I } V } } } B I B V I I I V } *.B.5.*.} B } } } V B B V I ",
"I } I V I B B B I I B I B B I } } V } I I I I ! V } V B B B B B I I } V I B B B B I B I V V } } } } } I I I B I I I ! B B n B B ",
"B } } I B B } B } } B B B B I } I } } } I I V B } } } I I B B B B } } I B I I B } I I B B B I I B } } I B V V B } } } V V B B V ",
"B } } I B V V B } } *.B.B.5.*.} } } V B B V I } } #.} V ! B I } B } } V B V I B I } *.B.B.5.*.} B } } V B B } B } #.} V B I I } ",
"B } } I B V } B B } *.B.B.=.#.} } } } I I I I I } I B B n B B B V } } I B V I B B } *.5.B.5.#.} V } } I B V } B } V V B n B B B ",
"V } } V B B V V B B V I V I I I B } *.=.5.*.} B I I } I I } B B B } } I B B I B V B V V I I I I B } } V B B V B I } } I } I B B ",
"B } } I B B V B } } B B B B V I B I *.=.=.*.} B } #.*.=.=.*.*.} V } } V B I I B } } V B B B B } V } } I B B V B } *.*.=.=.*.} } ",
"B } } I B I V V I } } } I B B B I I } ! } } } } } } *.4.=.*.} } B } } V B B I B } } } } } B B B B } } I B V } B } } *.=.=.*.} } ",
"V } } I B V V B B I I I I I B n } ! B n B B } } V B } } } } I B B } } I B I I B V V I } ! V n n I } } I B V I I B V I } } } } B ",
"B } } I B V _ V I I P P V V I P P P } } } } ~ ~ } V B B u B { P P | { P B I ! V V ~ V ! } B { P P I +.B K g I B G ! ~ B B B V } ",
"m I I .._ ( ( N n | 3.6.l.j. .h h z { ~ V ! _ _ ~ { l l { | z v z x { { l g ! _ D &.b.B.n.V.3.v z P A A s a s V D ` ` Q { | } m ",
"I I { ~ ' [ ) _ I U <.<.#.$. .P u l ^ ~ ~ _ ~ B ! B u f l l l u l l l l f g ! } V ' &.*.*.b.o.l g g R L T s s n D [ [ Q ! } I B ",
"K K B ~ ~ ( ' _ g I A A d x +.( F ` @.=.j.@.} { O.{ ..X.o.X.] g.g.] ^ l { ..{ l ! } ` G ~ R f.p.( #.3.3.s.@.P P ~ ' [ Q ~ } I K ",
"U P V ~ Q ~ ^ } I I H m j j ~ ) p.f.#.6.=.&.} { g g B { { ~ ) d.d.) ! ! } } l g P } V m P I H p.) %.2.3.&.s.R I V ~ ~ ~ _ +.U d ",
"-.U @.` ^ X.l { H p.I P { ~ / ~ V P d h h j s n } I P P { +.g.d.d.f.&.4.V.V.*.#.P P j p k j P m ~ ~ / } U B H F { l ^ ! G ` U k ",
"d K R G ~ ! l n F H I j } / X.^ } P j k p k K m +.I s s K m m G G R $.#.3.<.=.$.m Y j -.h j P P ../ ~ ! s n Z p.! l ! ! D +.U k ",
"7 K I {  ...! B I I L I { ....^ X._ G V g g L A 6 % +   . .         o .   O 7 6 A Y U g V G _ ! ..c...{ B m I V B { { ! P } L K ",
"m R  .2.4.5.&.#.Y Y S V g l ..^ / ` ( ` B B b 6 S 7 1 # , , # @ # # , , # # 4 E A R I V D ` ' / ^ c l { m m K K V V ! B P Y R m ",
"R V =.#.4.V.#.#.$ $ S 6 K 3.y c./ v.~ X.&.n Y 7 # 2 cXZX^.pXyX(.(.yXpX^.GXcX2 # 7 5.L N n.W W m...i 3.U 6 A $ o #.n O.P n I G R ",
"m m @.R } <.* 9 $ 1 8 l.- s { B i v...! _ 5 7 w 3 q.).iX}.:X2X4X2X2X:X}.1X(.q.2 7 q b m X.../ W B P s - s.8 1 @ * > U  .m @.m m ",
"P C f.p.B k O o zXkX< @ l.E 1 % ] b.^ i @.A # 2 E.^.BXfXdXdX+X+X+XOXdXdXfXiX^.E.< # E j.O.V.V.&.* % q w # 2 kXzXo O 3.5.f.k.} P ",
"j B d.p.L k O . E.T.9.< i.e.2 < m i x U T 0 2 9.CXaX-X.X3XOX@XXXXX@X+XsX.X-XBXvX9.2 E 6.6.N.| I < 2 4 e.< 8.T.E..   3.5.k.k. .| ",
"c n f.F B d . @ E.U.BXvX3 < cXlX%   ;.e X . E.ZX<X8XS.G.$X$XsX X XsX XrXG.S.8X<XZXE.+ X = e   % cXcX< < `.yXU.E.#   ,.I F p.P x ",
"x u ` F P 9 . , W.Y.hX,X9.9.yXCX2 . t z.X # cX,X0X0XA.A.P.|.gXsXsXgX|.P.A.A.0X0X,X/., & r : @ 2 NXCX9.9.-XhXY./., . K I Z ` l x ",
"c u _ D Y 9 @ 2 U.J.;XrXwXaX<X1XVXW., . . < pXhX0X9XZ.r.y.t.tX=X XtXt.y.r.Z.9X0XhXCX, @ X , W.VX<X<XaXwX;X;X[.U.2 @ 9 Y V ] ..x ",
"c l X.V K K @ < ^.K.aXiX}.hX8X8XqXBX2 . , 8.~.8X7XfXZ.t.r.r.gX9X6XiXr.r.t.A.fX0X1X~.2 # @ < BX0X9X8XdX[.iXaXK.^.2 @ 9 I ~ b.l v ",
"c v ! l g K L 8 3 q.F.!.-X]..X{.K.NX# . , 8.uXhX;XrX&X&X&X;X6X7X5X3XrX$X$X XOX:X:XCX2 @ X $ R.=X>X].].|.~.D.q.3 w q K s l l c c ",
"l ^ ..{ { Y L q , 3 u.Q.!.!.J.H.xXI.#   # 8.,XtXsXrX%X XOXoX4X4X5X4X#XoXXXOXOX5XtX~.2 @   $ I.xXY.H.H.L.Q.u.8.# m L I | ....^ c.",
"` ` h.$.=.$.I K 9 7 # , , < , < , # 0 t . 3 U.[.6X+X%X XXX#X4X5X3X3X#XoXXXOX#X6X-XF.2 & ; 0 , < < < < < , 1 7 9 T #.*.5.C.C.v.g.",
"p.f.h.j.=.*. .U U -         . . .   9 :   # I.).:X2X$X%XsXdX6X6X5X6X4XsXsXOX7X5XBXu., X + ; + .   .         > j | O.4.j.C.h.f.g.",
"G G G } } { l g f f h z h j -.h - - .   X   # 8.Y.>X;XtXwXwX:X7X7X5XwXwXwX.X;XY.9.<     o + > d -.-.:.h f p z | x { } I I G G A ",
"I I B P B { { ..l o.o.x z f f a ,.,.# # 1 # @ < Q.Y.~.(._._.(.,X,XyX_._.'.~.!.Q.< , # , 1 1 - 1.y z N.N.N.N.o.l { { P u n n K L ",
"| | g { { ..! } ~ Q M M W ~ %.4.  # lXbXbXjX4 , < 2 9.8., # < < 2 < @ # 2 2 < , , 0.nXmXAXlX@   U %.n.n.v.v.Q W X.X...P g s s d ",
"j j | P ..~ _ Q [ _ _ _ ` _ m 6 < 4 bXSXmXbX1 . @ @ , # .   . . @ .     . . . . . 2 AXMXMXNX2 # A _ / ( ' ' ' &.' _ } B n s s a ",
"! } %.~ Q ~ _ ( _ _ G B R L $ , ZX,XVXxX2 # K T 0 L 0 K K K B ~ V ` I d : ;.; - - w 2 8.NXVXR.vX, o L I b G N ` ` ' _ _ V V B m ",
"~ _ ' ~ ( ( ` D G V $.6.6.<.+ < Y.=XuXzX@   : - $.R P P V _ ^ x./ ' X.P p p s K Y K . # W.uX<XuX,   s K * V B _ @.@.` ( _ V G V ",
"~ X.%.~ ~ ~ V V I Y 6.<.7.,.X # `.H.9., : ;.<.m G G V ! Q ( / x.x.m.m.^ l g V m 5 #.1.0 2 9.H.'.#   ; ,.s Y K Y I } ~ B N B V ~ ",
"^ } { ! B P I P U K T : ,.;   , H.J.< . 1.;.#.Z ` ' ' ^ ..^ ^ x.x.c.c.! ! ^ ` ( ` #.: r . < Y.H.#   -.7.<.<.P n I P { } { { ! B ",
"g | { g g g g g U K U * - 9 . 2 *X<X2   7.h } Q ` &.b.N.M.M.c.o.c c >.z l ~ ( ( ~ { p ;.  < <X,X2 . T 6.Y 6.U s | O.2.2.4.2.| | ",
"K P U P P P P g { P #.I Y A % 4 R.I.1   :.l b.Q ' %.2.3.>.>.3.{ l z z h g B ` ( M o.z >.  , I.U.4 $ A L n Y P | { | O.4.2.O. .P ",
"A E R A B V ! B { } X.~ @.` 5 m # # 0 K O.i [ [ _ ! P U P R A A m R E m m m ` ( v.m.y h : 0 , , 8 5 A A C } V } I B ~ +.+.R G A ",
"8 S H A m G V V %.! ~ C Q ` Z #.& & d n / ' C.[ / { s s 8 J J S 8 S a.J Z B ` Q Q m.c.o.k k X X I b h.` N @.! ^ } B V G Z Z H H "
};
