/* XPM */
static char *_1297be5da5840abeaa3540ff03dda1ahDcP8Ghrh6n89l0E[] = {
/* columns rows colors chars-per-pixel */
"64 64 194 2 ",
"   c #070005",
".  c #070009",
"X  c #0A000C",
"o  c #0C031B",
"O  c #090517",
"+  c #14041C",
"@  c #140B1D",
"#  c #1B0A1E",
"$  c #140917",
"%  c #1A141D",
"&  c #16131C",
"*  c #160521",
"=  c #1A0524",
"-  c #160C24",
";  c #1C0B24",
":  c #1E0E2A",
">  c #0E1224",
",  c #141027",
"<  c #1D1124",
"1  c #1E1826",
"2  c #151328",
"3  c #1D142A",
"4  c #171B2C",
"5  c #1B192E",
"6  c #1F1631",
"7  c #1D1B31",
"8  c #220C26",
"9  c #290C26",
"0  c #260D2B",
"q  c #280F2D",
"w  c #300F2E",
"e  c #241226",
"r  c #25122D",
"t  c #2A112E",
"y  c #251B2B",
"u  c #2A1C2C",
"i  c #31122E",
"p  c #260D31",
"a  c #2A0E32",
"s  c #261331",
"d  c #2C1331",
"f  c #241B34",
"g  c #2B1A34",
"h  c #2D1439",
"j  c #2E1C3A",
"k  c #301735",
"l  c #331434",
"z  c #311534",
"x  c #311836",
"c  c #321937",
"v  c #321936",
"b  c #33163A",
"n  c #331A38",
"m  c #321A3B",
"M  c #341B39",
"N  c #341B38",
"B  c #351939",
"V  c #351C3A",
"C  c #361D3B",
"Z  c #351E3B",
"A  c #341A3D",
"S  c #371E3C",
"D  c #361E3E",
"F  c #341C3A",
"G  c #381F3D",
"H  c #391F3C",
"J  c #3A1E3D",
"K  c #391E3D",
"L  c #1B2131",
"P  c #2C2335",
"I  c #2C223A",
"U  c #332435",
"Y  c #35243D",
"T  c #39203E",
"R  c #3A213F",
"E  c #39223F",
"W  c #3A203E",
"Q  c #362A39",
"!  c #39363F",
"~  c #361E40",
"^  c #3A1F41",
"/  c #3B1E40",
"(  c #3B2240",
")  c #3A2340",
"_  c #3A2141",
"`  c #3C2241",
"'  c #3B2241",
"]  c #342E45",
"[  c #3F2548",
"{  c #392A41",
"}  c #3D3646",
"|  c #402342",
" . c #412B49",
".. c #433447",
"X. c #473251",
"o. c #78738A",
"O. c #7D7F94",
"+. c #807B92",
"@. c #7F8498",
"#. c #89818E",
"$. c #818297",
"%. c #84849A",
"&. c #8F8A9E",
"*. c #8D8795",
"=. c #908893",
"-. c #958A9C",
";. c #99919C",
":. c #8C8DA2",
">. c #9187A0",
",. c #918DA4",
"<. c #9D95A2",
"1. c #9095A9",
"2. c #9995AC",
"3. c #9999AF",
"4. c #9C9FB4",
"5. c #A599AB",
"6. c #A39EB5",
"7. c #A8A0AB",
"8. c #A3A4B9",
"9. c #AEACB8",
"0. c #B2AFB8",
"q. c #B9AEBE",
"w. c #B3A6B8",
"e. c #B7B6BC",
"r. c #B7BBBE",
"t. c #ADABC1",
"y. c #B6AEC1",
"u. c #BAB6C6",
"i. c #BDBDC2",
"p. c #B7B4CA",
"a. c #B9B5CB",
"s. c #B3BACD",
"d. c #BEBDC8",
"f. c #B6BDD0",
"g. c #BBBDD2",
"h. c #C4B9C7",
"j. c #C2B4CA",
"k. c #C5BCCC",
"l. c #C8BDCE",
"z. c #C2BED4",
"x. c #CCBFD1",
"c. c #BEC1D5",
"v. c #BEC5D8",
"b. c #C2C1C7",
"n. c #C4C4CA",
"m. c #CBC5CF",
"M. c #C4C3D6",
"N. c #CEC6D4",
"B. c #CCCCD4",
"V. c #C3C3D9",
"C. c #CBC6DD",
"Z. c #CBCADD",
"A. c #C2C9DC",
"S. c #D0CFD5",
"D. c #D4CDDE",
"F. c #CDD0D5",
"G. c #D7D4DF",
"H. c #CBCDE2",
"J. c #D2CFE4",
"K. c #CFD7EA",
"L. c #D2D1E7",
"P. c #DFD2E5",
"I. c #DAD3EB",
"U. c #DBD9E6",
"Y. c #DEDCF1",
"T. c #EADFE7",
"R. c #E6DDE6",
"E. c #E5E4EB",
"W. c #EAE7EE",
"Q. c #E6EFEC",
"!. c #E1E5E6",
"~. c #EDF4EC",
"^. c #F1F1ED",
"/. c #E7E3F1",
"(. c #EBE4F1",
"). c #EFEBF9",
"_. c #EBEEF3",
"`. c #F4EBF5",
"'. c #F8EAF7",
"]. c #F7EEFA",
"[. c #F8EDFC",
"{. c #ECF1F4",
"}. c #F3F3F4",
"|. c #F9F4F5",
" X c #FFFBF7",
".X c #F4F4FB",
"XX c #FFF5FF",
"oX c #FCF5FE",
"OX c #F5FBFC",
"+X c #FFF9FF",
"@X c #FFFBFF",
"#X c #FFFCFF",
"$X c #FDFDFE",
"%X c #F2F8F6",
/* pixels */
"q t t t t 0 0 0 0 d G ( ( T c q t t q 0 0 0 0 0 0 t q 0 q d d 0 q t t t t 0 0 0 0 d G ( ( T c q t t q 0 0 0 0 0 0 t q 0 q d d 0 ",
"t t t t t t t t 0 d c c n M k t 0 q t d d t 0 0 0 t q 0 q d d 0 t t t t t t t t 0 d c c n M k t 0 q t d d t 0 0 0 t q 0 q d d 0 ",
"q 0 0 0 0 q t t q d d t t d d t t d n V V c d 0 0 t q 0 q d d 0 q 0 0 0 0 q t t q d d t t d d t t d n V V c d 0 0 t q 0 q d d 0 ",
"d t q 0 0 0 q t q t t 0 0 t d q d d M S V c d t 0 t q 0 q d d 0 d t q 0 0 0 q t q t t 0 0 t d q d d M S V c d t 0 t q 0 q d d 0 ",
"d d d d t t t t 0 t d q q d t 0 q t t d d t 0 0 0 t q 0 q d d 0 d d d d t t t t 0 t d q q d t 0 q t t d d t 0 0 0 t q 0 q d d 0 ",
"t t t t t q 0 0 0 d d t t d t 0 t t 0 0 0 0 0 0 0 t q 0 q d d 0 t t t t t q 0 0 0 d d t t d t 0 t t 0 0 0 0 0 0 0 t q 0 q d d 0 ",
"8 0 t d d d t 0 t d d q q d t 0 d d t t q t t t 0 t q 0 q d d 0 8 0 t d d d t 0 t d d q q d t 0 d d t t q t t t 0 t q 0 q d d 0 ",
"0 d c V G S M c d d d 0 0 t t q q q q q 0 0 0 0 0 t q 0 q d d 0 0 d c V G S M c d d d 0 0 t t q q q q q 0 0 0 0 0 t q 0 q d d 0 ",
"d d V T T V c d d d t q 0 0 0 q d d d 0 0 t d t 0 0 0 0 0 q t t d d V T T V c d d d t q 0 0 0 q d d d 0 0 t d t 0 0 0 0 0 q t t ",
"0 0 t d d d t q 0 q t d d d t q 0 d d t t d t 0 0 q t d d d t 0 0 0 t d d d t q 0 q t d d d t q 0 d d t t d t 0 0 q t d d d t 0 ",
"t q 0 0 0 q t d 0 t k V S V c d t d d t t d d 0 d d V T G M d t t q 0 0 0 q t d 0 t k V S V c d t d d t t d d 0 d d V T G M d t ",
"d d q 0 0 t d d q d c V G V n c d d t 8 8 q d t d c V T G M d d d d q 0 0 t d d q d c V G V n c d d t 8 8 q d t d c V T G M d d ",
"0 0 0 0 0 0 q t 0 q t d d d d d 0 d d q 0 t t 0 t t d d d t 0 0 0 0 0 0 0 0 q t 0 q t d d d d d 0 d d q 0 t t 0 t t d d d t 0 0 ",
"0 0 0 q q q q 0 d t q 0 0 0 t t 0 k G ( T S d 0 t q 0 0 0 0 0 0 0 0 0 q q q q 0 d t q 0 0 0 t t 0 k G ( T S d 0 t q 0 0 0 0 0 0 ",
"t t t t d d d d d d t t t t d d t c T ( T G k 0 d d t t t d d d t t t t d d d d d d t t t t d d t c T ( T G k 0 d d t t t d d d ",
"t t 0 0 0 t d d 0 0 0 q q t t t 0 t t 0 0 q q 0 q q q t t d d d d d 0 0 0 t d d 0 0 0 r q t t t 0 t t 0 0 q q 0 0 q t t t d d d ",
"q q q q q t d d t q q q q t t d d s r 0 q q z z q q q q q a a d a a a q p d d d t r r r r r d d d t q 0 q t d d t q 0 0 0 0 t t ",
"0 0 t d d d t q t q q q q t t d 0 0 r t t q q q q q a z d d a a p p d d d d t r t r r r r r s d 0 0 q t t t q 0 q t d d d d t q ",
"t d n S S M d t t q q q q t t d s s t d d d d d z l C / / A b d d d A ~ S A d t t r r r r r s d t t t d d d d d d c V T T V k d ",
"d d M G G M d d t q q q q t t d h d t 0 q q z k l M G / / S b d d d m T ~ n d d t r r r r r s d d d t 0 0 t d d k n S T T V c d ",
"q t d d d d t q t q q q q t t d r r t t t q q q d d d d d t s r 0 t d d d d t r t r r r r t t d t t t t t t q q d d d d d t t q ",
"t t q 0 0 0 q t t q q q q t t d 0 d M T G n t 0 d t 0 0 0 0 r r r t r r 0 0 r t t r r r r t t d 0 d M T T n t 8 d t 0 0 0 0 0 0 ",
"d d d t t t t d t q q q q t t d t g V ( ( M d q d d t r r r r r t t t r r r r d d 0 0 0 q t t t t d V ( T M d 0 d d t q 0 0 q t ",
"t t t t t q 0 0 t q q q q t t d d t d t a a a a d t r r r < < < e e e r r r r 0 d 0 0 0 q t t d d d d t t t t t t t t 0 0 0 0 0 ",
"0 d d q 0 q t 0 d t q 0 0 0 t t t t d d d d a a q c t t e +X`.+X+XX e e ; Y ; s d d q 0 0 0 q t 0 d d q 0 q t 0 d d d t q q 0 0 ",
"0 d d q 0 q t 0 t d V ( ` G n d d t q 0 0 q a d [ 8 0 t +XXX+XoX`.+Xu U ; * 0 h d h S ` ` H N i 0 d d q 0 q t 0 d d d t q q t t ",
"0 d d q 0 q t 0 0 d M ( ` G c d t t d d d a a d =  .; # [.XX#X#X+X+X'.. N r = d p d A ` | J l t 0 d d q 0 q t 0 d t 0 0 0 0 0 0 ",
"0 d d q 0 q t 0 0 0 q t t t t t 0 t M G / A d p ( + 0 u XX#XoX|. XR.+XU # g d 8 p a a a q t q q 0 d d q 0 q t 0 t t d d t t 0 0 ",
"0 d d q 0 q t 0 d d q 0 0 0 q t 8 t c T / A d p ( ; P Q +X#X X X|.#XT.U $ = s d h d a 0 9 0 q t 0 d d q 0 q t 0 d c V G G M k d ",
"0 d d q 0 q t 0 d d d d t q 0 0 t r t d d d h d * X.Y P XX|.#X$X$X X+X  U = h p h d d d z q 9 9 0 d d q 0 q t 0 d d M G S M d d ",
"0 d d q 0 q t 0 0 q t d t q 0 8 r r r 0 0 a h h A = r u #X}.$X^. X$X+Xy y : ( = p a a d d q 9 8 0 d d q 0 q t 0 0 q t d d d t q ",
"0 d d q 0 q t 0 t t q q q q t t 0 r t d d d d d 0 d < < % #X^.$X#X|.#X% < r o A a a a a q q q t 0 d d q 0 q t 0 t q 0 0 0 0 t t ",
"q t t t t 0 0 0 0 d G ( ( T c q r r 0 0 0 r r r # u y y & i.n.OX#X#X@ < r + m = 0 b / ` ` R N q q t t q 0 0 0 t 0 t q 0 q d d 0 ",
"t t t t t t t t 0 d c c n M k t 0 p d d d t r 8 Q . $ #XOX$Xr.F.d.9.} 3 ; Y = d a z b b M M l q 0 q d d t 0 0 0 0 t q 0 q d d 0 ",
"q 0 0 0 0 q t t q d d t t d d t p h n S V c d r e U +X(.#X_.#X.Xn.u.u.1 r = h 0 a d d a a z d d q d M S V d d q 0 t q 0 q d d 0 ",
"d t q 0 0 0 q t q t t 0 0 t d r d h n S V c d r X y [.`.#X#XOX.X}.#X).<.Y * r d a d a q q a d q t d V G V c d d 0 t q 0 q d d 0 ",
"d d d d t t t t 0 t d q q d t 0 p s d d d t r 8 U +X+X#X!..X#X#X#XOX#X/.5.Y T n p a a a q d d q 0 t d d t 0 0 0 0 t q 0 q d d 0 ",
"t t t t t q 0 0 0 d d t t d t 0 d s 0 0 0 0 0 e $ XX[..X#X$X.X$X.X+X}.#X-.j.g d 0 d z a a d d 0 q t t 0 0 0 0 t 0 t q 0 q d d 0 ",
"8 0 t d d d t 0 t d d q q d t 0 h h d r r r r r t +X+XXX.X#Xi.$X#X#X#XR.-.P.M 8 a d d a a d d 0 d d d t 0 0 t d 0 t q 0 q d d 0 ",
"0 d c V G S M c d d d 0 0 t t r d s s 0 0 0 0 8 e XX+XoX.XB.n.$X$XOXoX#X-.k.+ ) d d d 0 0 a d q 0 q t t 0 0 0 0 0 t q 0 q d d 0 ",
"d d V T T V c d d d t q 0 0 0 r d h d 0 0 t d e e XX+X#X}.i.#X{.OX#X#XOX<.k.g d d d d a p p 0 0 d d d 0 0 t d t 0 0 0 0 0 q t t ",
"0 0 t d d d t q 0 q t d d d t r p d d s r t r 8 u XXXXoXB.B.#XOX#X$X$X#X#.D.# r 0 p d d d d d p 0 d d t t d t 0 0 q t d d d t 0 ",
"t q 0 0 0 q t d 0 t k V S V c d d h d d r d r e e +XXX#Xn..XOX$X$X%X}.#X<.h...= 0 d h S ~ S A d t d d t t d d 0 d d V T G M d t ",
"d d q 0 0 t d d q d c V G V n c d h d 8 8 r t e e +X+X.Xn.$XOX$X$X$X$X#X`.5.w.g r d n S ~ ~ A j d d t 8 8 q d t d c V T G M d d ",
"0 0 0 0 0 0 q t 0 q t d d d d d p d d 0 r t r 8 g XX+XN.e.#X$X$X$X$X#X X#X=.P.g r r d d d d d d 0 d d q 0 t t 0 t t d d d t 0 0 ",
"0 0 0 q q q q 0 d t q 0 0 0 t t p j S ( T V d 8 e XX+Xi.b.OX$XOX$X~.$X}.oX;.y.e s r p 0 p p s s 0 k G ( T S d 0 t q 0 0 0 0 0 0 ",
"t t t t d d d d d d t t t t d d d j ( ( T T g e # XX+Xm.S.OX$X%X$X$X$X#XOX7.q.j d d d s s s h h d c T ( T G k 0 d d t t t d d d ",
"t t 0 0 0 t d d 0 0 0 q q t t t r s s 0 0 q r 8 e +X].k.b.}.#X#XQ.$X!.#X#X*.l.r r r 0 0 s s s s 0 t t 0 0 q q 0 0 q t t t d d d ",
"q q q q q t d d t q q q q t t d s s r 0 q q i t u +XXX& i.#X}.#XOXOX$XM.L.&.a.g r r r r 0 t s d d t q 0 q t d d t q 0 0 0 0 t t ",
"0 0 t d d d t q t q q q q t t d 3 3 r t w q q 9 # XX+X! B.W.#XE.$Xs.c.V.8.6.I.; r r r r r t r d 0 0 q t t t q 0 q t d d d d t q ",
"t d n S S M d t t q q q q t t d s s r d i i i t U XX+X0.n.E.#X#X> K.s.c..Xo.5 r r r r r r t t d t t t d d d d d d c V T T V k d ",
"d d M G G M d d t q q q q t t d f s r 0 q q i i e U P G.+X#XXXoX4 s.c.Z.t.] f g r r r r r t t d d d t 0 0 t d d k n S T T V c d ",
"q t d d d d t q t q q q q t t d r r t t q w q r e u 1 9.#X#X].y L s.A.H.z.f r * r r r r r t t d t t t t t t q q d d d d d t t q ",
"t t q 0 0 0 q t t q q q q t t d 0 s V R J B t 8 e u $ U.#X(.+XP 4 s.H.g.p.O f g r r r r r t t d 0 d M T T n t 8 d t 0 0 0 0 0 0 ",
"d d d t t t t d t q q q q t t d r g V R J B t e ; y P d./.+XXX@ 7 v.c.g.I.f g : r r r q q t t d t d V ( T M d 0 d d t q 0 0 q t ",
"t t t t t q 0 0 t q q q q t t d d d t t q q r r P 1 k.B.oX+Xx.< 2 V.c.M.V.- s : r r q q q t t d d d d t t t t t t t t 0 0 0 0 0 ",
"0 d d q 0 q t 0 d t q 0 0 0 t t r t t d t t r r r 1 Z.D..XN.g ; 5 1.g.L.O.- f : s t q 0 9 q q t t d d d d t q 0 d d d t q q 0 0 ",
"0 d d q 0 q t 0 t d V ( ` G n d d t t 0 0 0 r r r P y.u.M.j.{ - > 4.$.:.] I - d t d V ` ` G M z d d q 0 0 0 t d d d d t q q t t ",
"0 d d q 0 q t 0 0 d M ( ` G c d d d d t t t t r I 2 Y.M.C.@ + j 5 @.4.,.o : j ; 0 d M ` | J k d d d d d d t t t d t 0 0 0 0 0 0 ",
"0 d d q 0 q t 0 0 0 q t t t t t 0 t V T J N t 0 o 5 z.V.z.s M * f $.8.2.o g g 0 0 0 q q q t q q 0 d M T T n d 0 t t d d t t 0 0 ",
"0 d d q 0 q t 0 d d q 0 0 0 q t 0 t N J J M t r ] f t.z.I.+  .r 7 :.:.2 ] r r d d d q 9 0 0 q q 0 d n T T M d 0 d c V G G M k d ",
"0 d d q 0 q t 0 d d d d d q 0 0 t t t t t d d s - p.L.J.I I g * , 3.,.o f - g 0 d d d d d q 0 0 t t t d d d d d d d M G S M d d ",
"0 d d q 0 q t 0 0 q t d d q 0 8 t r 0 9 0 q t f f g.V.a.6 r r d - 8.%.2.- Y 0 ; 0 q t d d q 9 0 d t 0 0 0 q d d 0 q t d d d t q ",
"0 d d q 0 q t 0 t t q q q q t t 0 r t t z t t r 3 C.H.a.f j 0 h f O.3.,.>.+ g d t q q q q q q t q q t d d d d t t q 0 0 0 0 t t "
};
