/* XPM */
static char *_4dc80b2cbcc4d93fa4e70b41120aca42tpijxXIEXJvooDB[] = {
/* columns rows colors chars-per-pixel */
"64 64 190 2 ",
"   c #07000E",
".  c #0A000D",
"X  c #070011",
"o  c #0A0114",
"O  c #060318",
"+  c #0C051C",
"@  c #120115",
"#  c #15011B",
"$  c #19021D",
"%  c #10091B",
"&  c #1C0D1E",
"*  c #160C17",
"=  c #121015",
"-  c #12111E",
";  c #1C141D",
":  c #20021E",
">  c #0F0B22",
",  c #150421",
"<  c #1C0422",
"1  c #150922",
"2  c #1D0C24",
"3  c #1E0D2C",
"4  c #171323",
"5  c #1E1223",
"6  c #181A27",
"7  c #1D142B",
"8  c #1D182F",
"9  c #171A23",
"0  c #1C1531",
"q  c #1D1D33",
"w  c #200726",
"e  c #220C26",
"r  c #260D2B",
"t  c #280F2D",
"y  c #300E2E",
"u  c #221326",
"i  c #211A22",
"p  c #24122C",
"a  c #2A112E",
"s  c #261A2D",
"d  c #2A1A2C",
"f  c #31122F",
"g  c #260E31",
"h  c #2B0E31",
"j  c #320E32",
"k  c #251531",
"l  c #2C1331",
"z  c #241B32",
"x  c #2C1B33",
"c  c #2B1439",
"v  c #2E1B39",
"b  c #301635",
"n  c #321936",
"m  c #391C37",
"M  c #32173A",
"N  c #371E3C",
"B  c #371C3D",
"V  c #351C3A",
"C  c #381F3D",
"Z  c #391E3E",
"A  c #391F3D",
"S  c #1F2138",
"D  c #24202F",
"F  c #262231",
"G  c #2C2233",
"H  c #2C243B",
"J  c #322137",
"K  c #33223A",
"L  c #39203E",
"P  c #3A213F",
"I  c #39223E",
"U  c #39213E",
"Y  c #352B3E",
"T  c #3A1F41",
"R  c #3C1F41",
"E  c #352341",
"W  c #3B2240",
"Q  c #3A2141",
"!  c #3C2341",
"~  c #3D2442",
"^  c #3C2241",
"/  c #3C2B44",
"(  c #313042",
")  c #3D3044",
"_  c #3E394B",
"`  c #402745",
"'  c #422947",
"]  c #4B3852",
"[  c #7D7B88",
"{  c #757388",
"}  c #767D90",
"|  c #7F7D93",
" . c #7F8085",
".. c #7C849B",
"X. c #88878F",
"o. c #878791",
"O. c #8E8996",
"+. c #84869F",
"@. c #908D96",
"#. c #95939B",
"$. c #878DA3",
"%. c #8B89A1",
"&. c #918FA5",
"*. c #8A91A3",
"=. c #9A93A1",
"-. c #9599AD",
";. c #9D9CAC",
":. c #9092AB",
">. c #9E9BB4",
",. c #949CB3",
"<. c #A4A4AA",
"1. c #A5A4B1",
"2. c #ACADB2",
"3. c #A5A5BB",
"4. c #A8A3B9",
"5. c #A9AFBD",
"6. c #A6A9BC",
"7. c #AEB2BD",
"8. c #B2B1B4",
"9. c #B3B4BB",
"0. c #B8AFC2",
"q. c #B5B3C5",
"w. c #B9B3C3",
"e. c #B7BBC3",
"r. c #BCBBC4",
"t. c #B9B7CC",
"y. c #BEBCCB",
"u. c #C4BCCB",
"i. c #C8BDCE",
"p. c #C3BBC6",
"a. c #C0BED4",
"s. c #BDC0C5",
"d. c #BCC2CE",
"f. c #C4C3CD",
"g. c #C9C7CC",
"h. c #C3C8CE",
"j. c #CACACE",
"k. c #C3C1C6",
"l. c #C2C3D3",
"z. c #CCC4D5",
"x. c #C6CAD4",
"c. c #CCCCD3",
"v. c #C8C6DA",
"b. c #C6C8DD",
"n. c #CACADC",
"m. c #D1C6D7",
"M. c #D1CBD7",
"N. c #D7CDDB",
"B. c #CED2DB",
"V. c #D3D1D6",
"C. c #D4D5DD",
"Z. c #D9D7DC",
"A. c #CDCCE2",
"S. c #D1CCE0",
"D. c #CFD1E0",
"F. c #D4D6E0",
"G. c #DFDEE3",
"H. c #DCDAE8",
"J. c #E3DBE6",
"K. c #F8DFFD",
"L. c #DEEBE4",
"P. c #E3E7E6",
"I. c #E1EAE7",
"U. c #E8E6E9",
"Y. c #EBEBED",
"T. c #F1EDEC",
"R. c #ECEDF1",
"E. c #F2E7F7",
"W. c #F4EDF5",
"Q. c #F5EDF9",
"!. c #FFEFFF",
"~. c #FBEFFF",
"^. c #EEF4F3",
"/. c #F2F3F5",
"(. c #F9F5F6",
"). c #F0FBF7",
"_. c #F5F5FB",
"`. c #FEF6FA",
"'. c #FFF1FF",
"]. c #FBF4FE",
"[. c #FFF6FF",
"{. c #FCF4FE",
"}. c #F6FCFD",
"|. c #FBFAFF",
" X c #FFF9FF",
".X c #FFFAFF",
"XX c #FFFBFF",
"oX c #FFFDFF",
"OX c #FEFEFE",
"+X c #FDFCFF",
/* pixels */
"t a a a a r r r r l C W W L n t a a t r r r r r r a t r t l l r t a a a a r r r r l C W W L n t a a t r r r r r r a t r t l l r ",
"a a a a a a a a r l n n n V b a r t a l l a r r r a t r t l l r a a a a a a a a r l n n n V b a r t a l l a r r r a t r t l l r ",
"t r r r r t a a t l l a a l l a a l n V V n l r r a t r t l l r t r r r r t a a t l l a a l l a a l n V V n l r r a t r t l l r ",
"l a t r r r t a t a a r r a l t l l V N V n l a r a t r t l l r l a t r r r t a t a a r r a l t l l V N V n l a r a t r t l l r ",
"l l l l a a a a r a l t t l a r t a a l l a r r r a t r t l l r l l l l a a a a r a l t t l a r t a a l l a r r r a t r t l l r ",
"a a a a a t r r r l l a a l a r a a r r r r r r r a t r t l l r a a a a a t r r r l l a a l a r a a r r r r r r r a t r t l l r ",
"e r a l l l a r a l l t t l a r l l a a t a a a r a t r t l l r e r a l l l a r a l l t t l a r l l a a t a a a r a t r t l l r ",
"r l n V C N V n l l l r r a a t t t t t r r r r r a t r t l l r r l n V C N V n l l l r r a a t t t t t r r r r r a t r t l l r ",
"l l V L L V n l l l a t r r r t l l l r r a l a r r r r r t a a l l V L L V n l l l a t r r r t l l l r r a l a r r r r r t a a ",
"r r a l l l a t r t a l l l a t r l l a a l a r r t a l l l a r r r a l l l a t r t a l l l a t r l l a a l a r r t a l l l a r ",
"a t r r r t a l r a b V N V n l a l l a a l l r l l V L C V l a a t r r r t a l r a b V N V n l a l l a a l l r l l V L C V l a ",
"l l t r r a l l t l n V C V n n l l a e w t l a l n V L C V l l l l t r r a l l t l n V C V n n l l a e w t l a l n V L C V l l ",
"r r r r r r t a r t a l l l l l r l l t r a a r a a l l l a r r r r r r r r t a r t a l l l l l r l l t r a a r a a l l l a r r ",
"r r r t t t t r l a t r r r a a r b C W L N l r a t r r r r r r r r r t t t t r l a t r r r a a r b C W L N l r a t r r r r r r ",
"a a a a l l l l l l a a a a l l a n L W L C b r l l a a a l l l a a a a l l l l l l a a a a l l a n L W L C b r l l a a a l l l ",
"a a r r r a l l r r r t t a a a r a a r r t t r r t a a a l l l a a r r r a l l r r r t t a a a r a a r r t t r r t a a a l l l ",
"t t t t t a l l a t t t t a a l l l t r t a l l t t t r r g h l t t t t t a l l a t t t t a a l l a t r t a l l a t r r r r a a ",
"r r a l l l a t a t t t t a a l r r t a a a t r t t l l l l h g r r a l l l a t a t t t t a a l r r t a a a t r t a l l l l a t ",
"a l n N N V l a a t t t t a a l l l a l l l l l l b B T T B M l l l n N N V l a a t t t t a a l a a a l l l l l l n V L L V b l ",
"l l V C C V l l a t t t t a a l l l a r r a l l b V C T T N M l l l V C C V l l a t t t t a a l l l a r r a l l b n N L L V n l ",
"t a l l l l a t a t t t t a a l a a a a a a t t l l l l l a l t t a l l l l a t a t t t t a a l a a a a a a t t l l l l l a a t ",
"a a t r r r t a a t t t t a a l r l V L L n a e l a r r r r r r a a t r r r t a a t t t t a a l r l V L L n a e l a r r r r r r ",
"l l l a a a a l a t t t t a a l a l V W W V l r l l a p r p p a l l l a a a a l a t t t t a a l a l V W L V l r l l a t r r t a ",
"a a a a a t r r a t t t t a a l l a l a l l l l l p p p e e e e a a a a a t r r a t t t t a a l l l l a a a a a a a a r r r r r ",
"r l l t r t a r l a t r r r a a a a l l l l g g V e 2 x 2 u d & p l l < r t r n l a t r r r a a r l l t r t a r l l l a t t r r ",
"r l l t r t a r a l V W ! C n l l a t r r r l k k v p J . ; d d w n ' r n w l < a l V W ! C n l r l l t r t a r l l l a t t a a ",
"r l l t r t a r r l V W ~ C n l a a l l l g k k c E 2 #  X XW.'.K $ t # a r W w r l V W ~ C n l r l l t r t a r l a r r r r r r ",
"r l l t r t a r r r t a a a a a r a V C T V k g v , K  XN. XoX X[.< b ] w r $ ~ r r t a a a a a r l l t r t a r a a l l a a r r ",
"r l l t r t a r l l t r r r t a r a n C W V k g k , /  X X X`. X~.[.$ # ~ w N < l l t r r r t a r l l t r t a r l n V C C V b l ",
"r l l t r t a r l l l l a t r r a a a l l k c c c E / ~.oXoX`. X[.K.r n < l w n l l l l l t r r r l l t r t a r l l V C N V l l ",
"r l l t r t a r r t a l a t r e a a r r r g c c c k 5 E.].oXOX`.[.'.` l w V w r r t a l l t r e r l l t r t a r r t a l l l a t ",
"r l l t r t a r a a t t t t a a r r a a l l k k p 2 5  XoX(.T.oX X~.a < V l w a l a t t t t a a r l l t r t a r a t r r r r a a ",
"t a a a a r r r r l C W W L n t t t t r r p p u u 5 5  X_.oXoX|. X'.p x 2 e W < r b T W ! L n a t a a t r r r a r a t r t l l r ",
"a a a a a a a a r l n n n V b a r t a a a u u 5 G ; d = oX_./.|.]. X7 p x l o ^ g l n n V V x a r t l l a r r r r a t r t l l r ",
"t r r r r t a a t l l a a l l a t l n V V x s u . G p.9.Z.8.oXoXoX5   K p l n w g l l t a l d a t l V N V l l t r a t r t l l r ",
"l a t r r r t a t a a r r a l t l b V V V x s u G Q.].oX8.L.c.2.M.i.Y 5 2 p # t g k l r r a a p a l V C V n l l r a t r t l l r ",
"l l l l a a a a r a l t t l a r t g a a a p u 5 u  X XoXW.oXj.c.9.u.=.Y k / l N g l l t t a a r r a l l a r r r r a t r t l l r ",
"a a a a a t r r r l l a a l a r l g t r r e u 5  XW.].oX XoXR.oXoXoXO.z.H K W e g k l l a l a r t a a r r r r a r a t r t l l r ",
"e r a l l l a r a l l t t l a r l l l a p p p u '. X X_.oXoX|.oXoX].Q.O.s o / l l l l t t l a r l l l a r r a l r a t r t l l r ",
"r l n V C N V n l l l r r a a t l g a p r u e 5 '. X X/.oXr.oXoX}.oXoX=.i.x x 2 l l l r r a a p r t a a r r r r r a t r t l l r ",
"l l V L L V n l l l a t r r r t l l l r r u s u  X[. X_.j.j./.oX}.oX].O.z.x o V l l l g r r r t l l l r r a l a r r r r r t a a ",
"r r a l l l a t r t a l l l a t t l l a a a p 5 ~.Q.[.|.V.}.}._.^.}.oXX.i.z./ l e r l l l l a t r l l a a l a r r t a l l l a r ",
"a t r r r t a l r a b V N V n l g l l a a s u u  X XoX Xk.oX_.}.}.}.^.<.r.M.  K e l b N C V n l a l l a a l l r l l V L C V l a ",
"l l t r r a l l t l n V C V n n l l a w w p u u  X].Q.j.9.|.oXoX}.).}./.@.w.) p p l n N C V n n l l a e w t l a l n V L C V l l ",
"r r r r r r t a r t a l l l l l t l l p r u p 5  X[.[.V. XoX|.P.^.}.).oX<.u.s 2 p p l l l l l l r l l t r a a r a a l l l a r r ",
"r r r t t t t r l a t r r r a a t b C L L J d 5 E. X X9._.}.oXoX}.}.I.oX#.u.u K s a t r r t t a r b C W L N l r a t r r r r r r ",
"a a a a l l l l l l a a a a l l g n L L L K x u G J. XV.oX_._.^.}.L.}.}. .f.m.s l l l l g l l l a n L W L C b r l l a a a l l l ",
"a a r r r a l l r r r t t a a a r l g r r p p u 5  X[.f._.|.oXoX}.}.}.R.oX#.z.2 p p r t t g l a r a a r r t t r r t a a a l l l ",
"t t t t t a l l a t t t t a a l k l g t t t a d 5 oXG.C.oXY.oX/.}.}.}._._.o.z.G u p p p g g l l l a t r t a l l a t r r r r a a ",
"r r a l l l a t a t t t t a a l r g g h j y t r & oXoX9._.oXU.oXoX}.}.x.B.;.q.4 8 u p p g l h l r r t a a a t r t a l l l l a t ",
"a l n N N V l a a t t t t a a l l k l l j f a a u  X].2.oX}. XoXoX9.F.e.;.1.r.F 7 p p p g l h l g t a l l l l l l n V L L V b l ",
"l l V C C V l l a t t t t a a l l k g t t y f d d ].oXs.oXR.oX; x.h.x.B.F.[ _ % u p p p g l l l l l t r r a l l b n N L L V n l ",
"t a l l l l a t a t t t t a a l l l l h y t r p u - f.j.|. X X; e.x.9.n.1.F F u p p p p r l l l l a a a a a t t l l l l l a a t ",
"a a t r r r t a a t t t t a a l r k V R Z m a e x G r.].oX]. Xi 9 B.7.x.H.D X z p p p p t l l l r l V L L n a e l a r r r r r r ",
"l l l a a a a l a t t t t a a l l c C ! Z m l u 5 O C.|.]. Xi * - d.d.x.w.4 z 2 p p r t t l l l a l V W L V l r l l a t r r t a ",
"a a a a a t r r a t t t t a a l l k l h t t a u F c.f._.oX[.& d 6 d.x.l.y.7 s s p r t t t g l l l l l a a a a a a a a r r r r r ",
"r l l t r t a r l a t r r r a a l l l l l a p p G y.y.oXoX X$ d 4 5.n.v.q.z p 2 l a t r r t l l a l l l l a t r l l l a t t r r ",
"r l l t r t a r a l V W ! C n l l l g r r r p p + q.D. X Xp.I @ ( -.6.n.>.o x e a b V W ! C n l l l t r r r a l l l l a t t a a ",
"r l l t r t a r r l V W ~ C n l k l l l l a p p _ v.l.].0.K r e { *.6.| E v , l r l V ! ! C n l l l l l l a a a l a r r r r r r ",
"r l l t r t a r r r t a a a a a r l B T L n p 7 O n.q.v.G @ m r 3.} -.> 1 k p l t t t t t a a a r l V L L n l r a a l l a a r r ",
"r l l t r t a r l l t r r r t a r l n L L V k 7 q l.v.S.x K m r &.$.S 8 8 3 l l b l t r r r t a r l n L L V l r l n V C C V b l ",
"r l l t r t a r l l l l l t r r l l a l l l k z t.n.n.4.] x : n %.-.q z + K e t l b b b l t r r a a a l l l l l l l V C N V l l ",
"r l l t r t a r r t a l l t r e l a r r r p k z A.A.t.H 1 x b t >...:.0 k 2 l w t t y b l t r w l a r r r t l l r t a l l l a t ",
"r l l t r t a r a a t t t t a a r p a l l k k 8 a.b.q.H p l r a %.,.+.>.0 3 r l h j t t t t t a r t a l l l l a a t r r r r a a "
};
