/* XPM */
static char *d9317e848dfe46139a3da0d7f70934ecUcUjAVjrqfJLPReu[] = {
/* columns rows colors chars-per-pixel */
"64 64 187 2 ",
"   c #040006",
".  c #09000C",
"X  c #060014",
"o  c #0E021A",
"O  c #13031D",
"+  c #160A1F",
"@  c #1A0B1E",
"#  c #1A141D",
"$  c #150421",
"%  c #1A0523",
"&  c #150C24",
"*  c #1C0B24",
"=  c #1E0D2A",
"-  c #101123",
";  c #1C1324",
":  c #171429",
">  c #1D132B",
",  c #1C192D",
"<  c #1F1631",
"1  c #1F1B31",
"2  c #230A26",
"3  c #290C26",
"4  c #260D2B",
"5  c #280F2D",
"6  c #300F2E",
"7  c #231227",
"8  c #221B26",
"9  c #25122D",
"0  c #2A112E",
"q  c #24192C",
"w  c #2C1C2D",
"e  c #31122E",
"r  c #260D31",
"t  c #2A0E32",
"y  c #251331",
"u  c #2C1331",
"i  c #241B33",
"p  c #2B1A34",
"a  c #2D1338",
"s  c #2D1C3A",
"d  c #301735",
"f  c #331434",
"g  c #311534",
"h  c #311836",
"j  c #321937",
"k  c #321936",
"l  c #34173A",
"z  c #331A38",
"x  c #321A3B",
"c  c #341B39",
"v  c #341B38",
"b  c #351939",
"n  c #351C3A",
"m  c #361D3B",
"M  c #351E3B",
"N  c #341A3D",
"B  c #371E3C",
"V  c #361E3E",
"C  c #341C3A",
"Z  c #381F3D",
"A  c #391F3C",
"S  c #3A1E3D",
"D  c #391E3D",
"F  c #28252E",
"G  c #2C2334",
"H  c #2D223B",
"J  c #332334",
"K  c #342834",
"L  c #33233C",
"P  c #39203E",
"I  c #3A213F",
"U  c #39223F",
"Y  c #39203E",
"T  c #37283D",
"R  c #382B3D",
"E  c #39363F",
"W  c #33313E",
"Q  c #371E40",
"!  c #3A1F41",
"~  c #3A1E41",
"^  c #3B2240",
"/  c #3A2340",
"(  c #3A2141",
")  c #3C2241",
"_  c #3B2241",
"`  c #362D45",
"'  c #392C44",
"]  c #3F2548",
"[  c #3E304A",
"{  c #402342",
"}  c #412B49",
"|  c #473251",
" . c #473953",
".. c #756B84",
"X. c #7B718A",
"o. c #807E8C",
"O. c #837D94",
"+. c #8A8595",
"@. c #858198",
"#. c #8D8798",
"$. c #928C9C",
"%. c #94929B",
"&. c #8E89A0",
"*. c #938DA5",
"=. c #9B8DA7",
"-. c #9C9AA4",
";. c #9693A9",
":. c #9C95AC",
">. c #9C95A5",
",. c #9D99B0",
"<. c #A39FAD",
"1. c #A39CB3",
"2. c #A5A7B4",
"3. c #A9A6B7",
"4. c #A8A3BA",
"5. c #B2A6BE",
"6. c #B6AEB9",
"7. c #B7B9B6",
"8. c #B6B3BA",
"9. c #BAB7BE",
"0. c #BCBDBF",
"q. c #B4B6B5",
"w. c #ACAAC0",
"e. c #B1ACC2",
"r. c #BDB7C5",
"t. c #B5BAC0",
"y. c #BEBAC7",
"u. c #B7B5CB",
"i. c #BAB4CC",
"p. c #B7B8CD",
"a. c #BFB8C8",
"s. c #B6B4C1",
"d. c #BCBBD1",
"f. c #C3BCCE",
"g. c #C2BAC8",
"h. c #C2BED5",
"j. c #C9BFD8",
"k. c #BFC0C2",
"l. c #C3C0C7",
"z. c #C3C9CC",
"x. c #CBCCCD",
"c. c #C5C4D4",
"v. c #CBC5D4",
"b. c #C6C8D5",
"n. c #CDCBD4",
"m. c #C4C3D9",
"M. c #CBC6DC",
"N. c #CDCADC",
"B. c #D3CBDD",
"V. c #D5D7D6",
"C. c #D4D1D8",
"Z. c #CCCCE1",
"A. c #D2CEE4",
"S. c #D1D3E3",
"D. c #D9D0E5",
"F. c #DEDBE4",
"G. c #DBD2EA",
"H. c #D3D5EA",
"J. c #DEDCF1",
"K. c #E7DCE2",
"L. c #EADFE7",
"P. c #E6DBEC",
"I. c #E0D3ED",
"U. c #E3E0E7",
"Y. c #EEE7EE",
"T. c #E6E9EC",
"R. c #EDEDEC",
"E. c #F2F2EE",
"W. c #EFE2F3",
"Q. c #EEECF2",
"!. c #F2E5F6",
"~. c #F3EBF5",
"^. c #F8EAF7",
"/. c #F5EFF9",
"(. c #FBEDFE",
"). c #F3F5F5",
"_. c #F9F4F5",
"`. c #F4F8F7",
"'. c #FBFAF6",
"]. c #F4F3FC",
"[. c #FFF5FF",
"{. c #FCF4FE",
"}. c #F5F9FB",
"|. c #FFF9FF",
" X c #FFFBFF",
".X c #FFFCFF",
"XX c #FEFDFE",
/* pixels */
"5 0 0 0 0 4 4 4 4 u Z ^ ^ P j 5 0 0 5 4 4 4 4 4 4 0 5 4 5 u u 4 5 0 0 0 0 4 4 4 4 u Z ^ ^ P j 5 0 0 5 4 4 4 4 4 4 0 5 4 5 u u 4 ",
"0 0 0 0 0 0 0 0 4 u j j z c d 0 4 5 0 u u 0 4 2 4 0 5 4 5 u u 4 0 0 0 0 0 0 0 0 4 u j j z c d 0 4 5 0 u u 0 4 2 4 0 5 4 5 u u 4 ",
"5 4 4 4 4 5 0 0 5 u u 0 0 u u 0 0 u z n n j u 4 4 0 5 4 5 u u 4 5 4 4 4 4 5 0 0 5 u u 0 0 u u 0 0 u z n n j u 4 4 0 5 4 5 u u 4 ",
"u 0 5 4 4 4 5 0 5 0 0 4 4 0 u 5 u u c B n j u 0 4 0 5 4 5 u u 4 u 0 5 4 4 4 5 0 5 0 0 4 4 0 u 5 u u c B n j u 0 4 0 5 4 5 u u 4 ",
"u u u u 0 0 0 0 4 0 u 5 5 u 0 4 5 0 0 u u 0 4 4 4 0 5 4 5 u u 4 u u u u 0 0 0 0 4 0 u 5 5 u 0 4 5 0 0 u u 0 4 4 4 0 5 4 5 u u 4 ",
"0 0 0 0 0 5 4 4 4 u u 0 0 u 0 4 0 0 4 4 4 4 4 4 4 0 5 4 5 u u 4 0 0 0 0 0 5 4 4 4 u u 0 0 u 0 4 0 0 4 4 4 4 4 4 4 0 5 4 5 u u 4 ",
"2 4 0 u u u 0 4 0 u u 5 5 u 0 4 u u 0 0 5 0 0 0 4 0 5 4 5 u u 4 2 4 0 u u u 0 4 0 u u 5 5 u 0 4 u u 0 0 5 0 0 0 4 0 5 4 5 u u 4 ",
"4 u j n Z B c j u u u 4 4 0 0 5 5 5 5 5 4 4 4 4 4 0 5 4 5 u u 4 4 u j n Z B c j u u u 4 4 0 0 5 5 5 5 5 4 4 4 4 4 0 5 4 5 u u 4 ",
"u u n P P n j u u u 0 5 4 4 4 5 u u u 4 4 0 u 0 4 4 4 4 4 5 0 0 u u n P P n j u u u 0 5 4 4 4 5 u u u 4 4 0 u 0 4 4 4 4 4 5 0 0 ",
"4 4 0 u u u 0 5 4 5 0 u u u 0 5 4 u u 0 0 u 0 2 4 5 0 u u u 0 4 4 4 0 u u u 0 5 4 5 0 u u u 0 5 4 u u 0 0 u 0 2 4 5 0 u u u 0 4 ",
"0 5 4 4 4 5 0 u 4 0 d n B n j u 0 u u 0 0 u u 4 u u n P Z c u 0 0 5 4 4 4 5 0 u 4 0 d n B n j u 0 u u 0 0 u u 4 u u n P Z c u 0 ",
"u u 5 4 4 0 u u 5 u j n Z n z j u u 0 2 2 5 u 0 u j n P Z c u u u u 5 4 4 0 u u 5 u j n Z n z j u u 0 2 2 5 u 0 u j n P Z c u u ",
"4 4 4 4 4 4 5 0 4 5 0 u u u u u 4 u u 5 4 0 0 4 0 0 u u u 0 4 4 4 4 4 4 4 4 5 0 4 5 0 u u u u u 4 u u 5 4 0 0 4 0 0 u u u 0 4 4 ",
"4 4 4 5 5 5 5 4 u 0 5 4 4 4 0 0 4 d Z ^ P B u 2 0 5 4 4 4 4 4 4 4 4 4 5 5 5 5 4 u 0 5 4 4 4 0 0 4 d Z ^ P B u 2 0 5 4 4 4 4 4 4 ",
"0 0 0 0 u u u u u u 0 0 0 0 u u 0 j P ^ P Z d 4 u u 0 0 0 u u u 0 0 0 0 u u u u u u 0 0 0 0 u u 0 j P ^ P Z d 4 u u 0 0 0 u u u ",
"0 0 4 4 4 0 u u 4 4 4 5 5 0 0 0 4 0 0 4 4 5 5 2 5 5 5 0 0 u u u u u 4 4 4 0 u u 4 4 4 9 5 0 0 0 4 0 0 4 4 5 5 4 4 5 0 0 0 u u u ",
"5 5 5 5 5 0 u u 0 5 5 5 5 0 0 u u y 9 4 5 5 f f 5 5 5 5 5 t t u t t t 5 4 u u u 0 9 9 9 9 9 u u u 0 5 4 5 0 u u 0 5 4 4 4 4 0 0 ",
"4 4 0 u u u 0 5 0 5 5 5 5 0 0 u 4 4 9 0 0 5 5 5 5 5 t f a a t t r r u a u u 0 9 0 9 9 9 9 9 y u 4 4 5 0 0 0 5 4 5 0 u u u u 0 5 ",
"0 u z B B c u 0 0 5 5 5 5 0 0 u y y 0 u u u u u f f m ! ! N l a u u N Q B z u 0 0 9 9 9 9 9 y u 0 0 0 u u u u u u j n P P n d u ",
"u u c Z Z c u u 0 5 5 5 5 0 0 u p u 0 4 5 5 f d f c Z ! ! B l u a u N B B z u u 0 9 9 9 9 9 y u u u 0 4 4 0 u u d z B P P n j u ",
"5 0 u u u u 0 5 0 5 5 5 5 0 0 u 9 9 0 0 0 5 5 5 u u u u u 0 y 9 4 0 u u u u 0 9 0 9 9 9 9 0 0 u 0 0 0 0 0 0 5 5 u u u u u 0 0 5 ",
"0 0 5 4 4 4 5 0 0 5 5 5 5 0 0 u 4 u c P Z z 0 2 u 0 5 4 2 2 9 9 9 0 9 4 4 4 9 0 0 9 9 9 9 0 0 u 4 u c P P z 0 2 u 0 4 4 2 4 4 4 ",
"u u u 0 0 0 0 u 0 5 5 5 5 0 0 u 0 p n ^ ^ c u 5 a u 0 9 7 9 7 7 0 0 0 9 9 9 9 u u 4 4 4 5 0 0 0 0 u n ^ P c u 4 u u 0 5 4 4 5 0 ",
"0 0 0 0 0 5 4 4 0 5 5 5 5 0 0 u u 0 u 0 t t t t u 0 0 7 9 ; ; ; q q q 7 7 9 9 4 u 4 4 4 5 0 0 0 u u u 0 0 0 0 0 0 0 0 4 4 4 4 4 ",
"4 u u 5 4 5 0 4 u 0 5 4 4 4 0 0 0 0 u u u u t t 5 j 0 0 7 |.^.|.|.. q q * L * y a u 5 4 5 5 0 0 4 u u 5 4 5 0 4 u u u 0 5 5 4 4 ",
"4 u u 5 4 5 0 4 0 u n ^ ) Z z u u 0 5 4 4 5 t a ] 2 2 0 |.[.|.{.^.|.w J * % 2 u u a B ^ ) Z v g 4 u u 5 4 5 0 4 u u u 0 5 5 0 0 ",
"4 u u 5 4 5 0 4 4 u c ^ ) Z j u 0 0 u u u u t t % } 2 @ (.[..X.X|.|.^.. v q % u r a N ) { S f 0 4 u u 5 4 5 0 4 u 0 4 4 2 4 4 4 ",
"4 u u 5 4 5 0 4 4 4 5 0 0 0 0 0 4 0 c P ! N t r ! O 2 w {..X{._.'.K.|.J @ p u = r t t 5 5 0 0 0 5 u u 5 4 5 0 4 0 0 u u 0 0 4 4 ",
"4 u u 5 4 5 0 4 u u 5 4 2 4 5 0 2 0 j P ! N a r ^ * G R |..X'.'._..XL.K O % y a a a t 4 2 3 5 0 5 u u 5 4 5 0 4 u j n Z Z c d u ",
"4 u u 5 4 5 0 4 u u u u 0 5 4 4 0 9 0 u u a a a $ | L G [.)..XXXXX'.|.  J & p r a a a u u 5 3 3 5 u u 5 4 5 0 4 u u c Z B c u u ",
"4 u u 5 4 5 0 4 4 5 0 u 0 5 4 2 0 9 7 4 4 t a a N % q w .X).XXE.'.XX|.w q = ^ % r t t u u 5 3 2 5 u u 5 4 5 0 4 4 5 0 u u u 0 5 ",
"4 u u 5 4 5 0 4 0 0 5 5 5 5 0 0 4 9 0 u u a a u 4 u ; ; # .XE.XX.X_..X# ; 9 o N a t t 5 5 5 5 0 5 u u 5 4 5 0 4 0 5 4 4 4 4 0 0 ",
"5 0 0 0 0 4 4 4 4 u Z ^ ^ P j 5 5 5 4 4 4 5 5 0 9 q p 8 # x.7..X.X).W ; o L % = 4 a ! ( ^ P j 9 5 0 0 5 4 4 4 0 4 0 5 4 5 u u 4 ",
"0 0 0 0 0 0 0 0 4 u j j z c d 0 4 4 0 u u u 4 4 % T @ ~.|.).x.z.t.S.2.; i = p s r a z z z c p 9 4 5 u u 0 4 4 4 4 0 5 4 5 u u 4 ",
"5 4 4 4 4 5 0 0 5 u u 0 0 u u 0 5 u j n B z u 9 0 p {.|..X.X}.`.z.c.b.3.o 9 y % r a a t u p u y 9 u c B n u u 5 4 0 5 4 5 u u 4 ",
"u 0 5 4 4 4 5 0 5 0 0 4 4 0 u 5 u u z B B z u 0 u . |.|.U.`..X}.T.XX].o.M.H $ y y u u 4 4 u u 9 0 u n Z n j u u 4 0 5 4 5 u u 4 ",
"u u u u 0 0 0 0 4 0 u 5 5 u 0 4 5 0 0 u u u 4 4 p 9 |.~..XXX.X).XXXX}.].1.5. .= r y a r 4 u u 4 4 0 u u 0 4 4 4 4 0 5 4 5 u u 4 ",
"0 0 0 0 0 5 4 4 4 u u 0 0 u 0 4 0 0 5 4 4 4 4 4 O |.!.|.Q..X.X.X}.}..X.X#.D.O s 9 a p u u u u 4 5 0 0 4 4 2 4 0 4 0 5 4 5 u u 4 ",
"2 4 0 u u u 0 4 0 u u 5 5 u 0 4 u u u 0 5 5 5 9 c |.[.~.|..Xq.`.)..X].XX>.f.9 L y u a r r a u 4 u u u 0 4 4 0 u 4 0 5 4 5 u u 4 ",
"4 u j n Z B c j u u u 4 4 0 0 5 0 0 0 5 4 4 2 2 * |.(.|.~.k.V.`..X.X`..X+.c.B.= y p y 4 4 t u 4 4 5 0 0 4 4 4 4 4 0 5 4 5 u u 4 ",
"u u n P P n j u u u 0 5 4 4 4 5 u u u 4 4 u u 0 p [.{.|..X0.)..X.X.XQ..X-.a.B.> i y y r r r 5 5 u u u 4 4 0 u 0 4 4 4 4 4 5 0 0 ",
"4 4 0 u u u 0 5 4 5 0 u u u 0 5 4 u u 0 u u 0 2 9 {.|.{.l.k..XR..X)..X.XF.<.B.= > 9 y a a a t 5 4 u u 0 0 u 0 2 4 5 0 u u u 0 4 ",
"0 5 4 4 4 5 0 u 4 0 d n B n j u 0 u u 0 u u u 4 9 [.[.|.8.T..X`..XR..X|..X$.v.> > y s V Q N l d 5 u u 0 0 u u 4 u u n P Z c u 0 ",
"u u 5 4 4 0 u u 5 u j n Z n z j u u 0 2 2 5 u 0 9 |.!.{.C..X`..XXXXX'..X.X%.a.i > y s V ! m l l u u 0 2 2 5 u 0 u j n P Z c u u ",
"4 4 4 4 4 4 5 0 4 5 0 u u u u u 4 u u 5 4 u 0 4 2 |.|.6.n.)..X}.'.XXE..X`.-.r.i > 9 y a a a t u 5 u u 5 4 0 0 4 0 0 u u u 0 4 4 ",
"4 4 4 5 5 5 5 4 u 0 5 4 4 4 0 0 4 d Z ^ ^ B u 2 9 {.|.B.9.XX}.'.E.XXXX'..X%.v.: q 9 y 4 4 t t t 5 d Z ^ P B u 2 0 5 4 4 4 4 4 4 ",
"0 0 0 0 u u u u u u 0 0 0 0 u u 0 j P ^ ^ Z d 4 u (.{.r.g..XR.XX'.XXXXXX.X+.N.; i y y y t t f f t j P ^ P Z d 4 u u 0 0 0 u u u ",
"0 0 4 4 4 0 u u 4 4 4 5 5 0 0 0 4 9 0 4 2 5 5 4 7 [.[.8 n.{..X'..X.XR..X}.+.v.i > > 4 4 t t t t 5 0 0 4 4 5 5 4 4 5 0 0 0 u u u ",
"5 5 5 5 5 0 u u 0 5 5 5 5 0 0 u y y 9 4 5 5 e 0 w (.|.F 8..X~..XXXXX.Xm.A.$.i.p 9 9 9 9 4 0 u u u 0 5 4 5 0 u u 0 5 4 4 4 4 0 0 ",
"4 4 0 u u u 0 5 0 5 5 5 5 0 0 u > > 9 0 6 5 5 3 0 (..X  F..XY..X.Xp.d.m.4.1.I.= 9 9 9 9 9 9 9 u 4 4 5 0 0 0 5 4 5 0 u u u u 0 5 ",
"0 u z B B c u 0 0 5 5 5 5 0 0 u y y 9 u e e e 0 @ |..XE 8..X.X{.- H.p.h.].X.9 9 9 9 9 9 9 0 9 u 0 0 0 u u u u u u j n P P n d u ",
"u u c Z Z c u u 0 5 5 5 5 0 0 u i y 9 4 5 5 e e w G G y..X{..X[., p.d.M.e.` p p 9 9 9 9 9 0 9 u u u 0 4 4 0 u u d z B P P n j u ",
"5 0 u u u u 0 5 0 5 5 5 5 0 0 u 9 9 0 0 5 6 5 9 J # ; v..X/.|.8 i p.M.A.j.p 9 % 9 9 9 9 9 0 0 u 0 0 0 0 0 0 5 5 u u u u u 0 0 5 ",
"0 0 5 4 4 4 5 0 0 5 5 5 5 0 0 u 2 y n I S b 0 2 7 q ; c.{..X|.; , p.Z.d.i.X p p 9 9 9 9 9 0 0 u 4 u c P P z 0 2 u 0 4 4 2 4 4 4 ",
"u u u 0 0 0 0 u 0 5 5 5 5 0 0 u q p n I S b 0 7 G ; G s.{.|.W.p 1 m.h.d.G.i p 2 9 9 5 5 5 0 0 u 0 u n ^ P c u 4 u u 0 5 4 4 5 0 ",
"0 0 0 0 0 5 4 4 0 5 5 5 5 0 0 u u u 0 0 5 5 9 7 p ; f.v..XP.P.+ : m.h.h.j.= y 2 0 9 5 5 5 0 0 u u u u 0 0 0 0 0 0 0 0 4 4 4 4 4 ",
"4 u u 5 4 5 0 4 u 0 5 4 4 4 0 0 q 0 0 u 0 0 9 7 9 > N.B.].v.p * , ;.h.i.#.> L 2 u 0 5 4 5 5 0 0 0 u u u u 0 5 4 u u u 0 5 5 4 4 ",
"4 u u 5 4 5 0 4 0 u n ^ ) Z z u u 0 5 4 5 5 9 q 9 G e.r.m.g.' & & O.:.e.H o 2 2 0 u n ) ) Z c u u u 5 4 4 4 0 u u u u 0 5 5 0 0 ",
"4 u u 5 4 5 0 4 4 u c ^ ) Z j u u u u 0 0 0 0 q H : J.c.M.+ O s 1 *.*.O.O y 9 j 4 u c ) ) Z d u u u u u u 0 0 0 u 0 4 4 2 4 4 4 ",
"4 u u 5 4 5 0 4 4 4 5 0 0 0 0 0 4 0 c P S v 0 = O , h.m.h.y c % > 1.&.i p s * 0 4 5 5 5 5 0 0 5 4 u c P P z u 4 0 0 u u 0 0 4 4 ",
"4 u u 5 4 5 0 4 u u 5 4 2 4 5 0 4 0 v S S c 0 > ` i w.d.G.O } 9 & ,.*.X i 9 9 % u u 5 3 3 5 5 5 4 u z P P c u 4 u j n Z Z c d u ",
"4 u u 5 4 5 0 4 u u u u u 5 4 4 0 0 0 0 0 u u y & u.S.A.H H p % > *.:.` & * / 2 u u u u u 5 3 2 0 0 0 u u u u u u u c Z B c u u ",
"4 u u 5 4 5 0 4 4 5 0 u u 5 4 2 0 9 5 3 5 5 0 i i d.m.p.< 9 9 u = @.*...[ O p 2 4 5 0 u u 5 3 2 u 0 4 4 4 5 u u 4 5 0 u u u 0 5 ",
"4 u u 5 4 5 0 4 0 0 5 5 5 5 0 0 4 9 0 0 f 0 0 9 : M.Z.p.i s 4 p y ;.:.*.=.y 2 u 5 5 5 5 5 5 5 0 5 5 0 u u u u 0 0 5 4 4 4 4 0 0 "
};
