/* XPM */
static char *fd0c9b7a109c4c6dc75beb1c86406735vlI0oLzMgr49yolg[] = {
/* columns rows colors chars-per-pixel */
"64 64 191 2 ",
"   c #040007",
".  c #0E000C",
"X  c #11000F",
"o  c #030015",
"O  c #0D0115",
"+  c #130114",
"@  c #13021D",
"#  c #1B031D",
"$  c #13091B",
"%  c #1B0B1D",
"&  c #130E15",
"*  c #1B131F",
"=  c #170724",
"-  c #1C0521",
";  c #130D25",
":  c #1B0B25",
">  c #1E0C29",
",  c #131127",
"<  c #1E1123",
"1  c #1D1B20",
"2  c #1C152C",
"3  c #1F1B2A",
"4  c #1F1D33",
"5  c #200725",
"6  c #220C25",
"7  c #250628",
"8  c #260D2B",
"9  c #280F2D",
"0  c #300E2F",
"q  c #231326",
"w  c #291227",
"e  c #25122C",
"r  c #2A112E",
"t  c #241A2D",
"y  c #2B192E",
"u  c #30132F",
"i  c #30182E",
"p  c #250D31",
"a  c #2B0E31",
"s  c #261431",
"d  c #2C1331",
"f  c #251A31",
"g  c #2C1C33",
"h  c #2A1339",
"j  c #2F1B39",
"k  c #311635",
"l  c #321936",
"z  c #33173A",
"x  c #361D3B",
"c  c #331A3C",
"v  c #371E3C",
"b  c #371C3D",
"n  c #341B39",
"m  c #381F3D",
"M  c #381F3C",
"N  c #391F3E",
"B  c #391F3D",
"V  c #26202C",
"C  c #2A222D",
"Z  c #232035",
"A  c #2B2335",
"S  c #272239",
"D  c #2D253A",
"F  c #332137",
"G  c #3A2337",
"H  c #34233C",
"J  c #392139",
"K  c #39203E",
"L  c #3A213F",
"P  c #3A213E",
"I  c #36293A",
"U  c #382D3D",
"Y  c #3A1F41",
"T  c #2D2D42",
"R  c #352242",
"E  c #372742",
"W  c #3B2240",
"Q  c #3A2141",
"!  c #3C2342",
"~  c #3B2341",
"^  c #342C44",
"/  c #382845",
"(  c #3D2A45",
")  c #3F3B49",
"_  c #35374C",
"`  c #442C44",
"'  c #4A3247",
"]  c #42324D",
"[  c #4F3554",
"{  c #7D788F",
"}  c #797B90",
"|  c #957C9A",
" . c #7D8A9B",
".. c #788294",
"X. c #838489",
"o. c #8A8595",
"O. c #8D8C95",
"+. c #818E9F",
"@. c #8A859C",
"#. c #99879F",
"$. c #958D9C",
"%. c #919297",
"&. c #95939D",
"*. c #8A8EA2",
"=. c #8794A5",
"-. c #8B93A6",
";. c #8F95A8",
":. c #8C99AA",
">. c #9994A1",
",. c #9299AC",
"<. c #969DB0",
"1. c #999BB0",
"2. c #AF96B4",
"3. c #B79CBB",
"4. c #ADA6B6",
"5. c #B7B3BD",
"6. c #B8B7BF",
"7. c #BABABE",
"8. c #ABADC2",
"9. c #B3B3C5",
"0. c #BBB5C4",
"q. c #BCBBC6",
"w. c #B6B5CA",
"e. c #BCB6CC",
"r. c #B5BBCC",
"t. c #BBBACE",
"y. c #BDBDD1",
"u. c #C2BDCB",
"i. c #C3B7CB",
"p. c #C2BDD4",
"a. c #CABDD2",
"s. c #B7C0CF",
"d. c #B4C1D2",
"f. c #BDC2D5",
"g. c #BDCADB",
"h. c #C5C5C7",
"j. c #C5C4CA",
"k. c #C9C7CD",
"l. c #C9CACE",
"z. c #C3C1D2",
"x. c #CBC2D4",
"c. c #CDCBD2",
"v. c #C3C4D9",
"b. c #C0CDDE",
"n. c #CDCCDC",
"m. c #C8C3DA",
"M. c #D2C5D7",
"N. c #D2CBDB",
"B. c #C7D0DF",
"V. c #D1D0D4",
"C. c #D0D0DA",
"Z. c #DAD8DD",
"A. c #CCCBE1",
"S. c #DEC7E3",
"D. c #C6D3E4",
"F. c #D5D2E4",
"G. c #D9D0E3",
"H. c #D3D5EA",
"J. c #D1DEEF",
"K. c #E3D9E9",
"L. c #E9DCED",
"P. c #E5E5E7",
"I. c #EBE7E6",
"U. c #E6E3EB",
"Y. c #E6EAEB",
"T. c #EAECED",
"R. c #EBE4EB",
"E. c #F0E4EE",
"W. c #EBF1ED",
"Q. c #EDECF3",
"!. c #EBE3F0",
"~. c #F0E2F1",
"^. c #F2EAF5",
"/. c #FAEFF7",
"(. c #F7EFFA",
"). c #FCEFFC",
"_. c #F8E1F3",
"`. c #EDF0FF",
"'. c #F2F2F5",
"]. c #FCF4F5",
"[. c #F5FAF6",
"{. c #F5F5FB",
"}. c #FAF3FB",
"|. c #FFF6FF",
" X c #FFF5FF",
".X c #FCF4FE",
"XX c #F6FCFC",
"oX c #FFF9FF",
"OX c #FFFBFF",
"+X c #FFFDFF",
"@X c #FEFDFF",
/* pixels */
"9 r r r r 8 8 8 8 d m W W K l 9 r r 9 8 8 8 8 8 8 r 9 8 9 d d 8 9 r r r r 8 8 8 8 d m W W K l 9 r r 9 8 8 8 8 8 8 r 9 8 9 d d 8 ",
"r r r r r r r r 8 d l l n n k r 8 9 r d d r 8 8 8 r 9 8 9 d d 8 r r r r r r r r 8 d l l n n k r 8 9 r d d r 8 8 8 r 9 8 9 d d 8 ",
"9 8 8 8 8 9 r r 9 d d r r d d r r d n n n l d 8 8 r 9 8 9 d d 8 9 8 8 8 8 9 r r 9 d d r r d d r r d n n n l d 8 8 r 9 8 9 d d 8 ",
"d r 9 8 8 8 9 r 9 r r 8 8 r d 9 d d n v n l d r 8 r 9 8 9 d d 8 d r 9 8 8 8 9 r 9 r r 8 8 r d 9 d d n v n l d r 8 r 9 8 9 d d 8 ",
"d d d d r r r r 8 r d 9 9 d r 8 9 r r d d r 8 8 8 r 9 8 9 d d 8 d d d d r r r r 8 r d 9 9 d r 8 9 r r d d r 8 8 8 r 9 8 9 d d 8 ",
"r r r r r 9 8 8 8 d d r r d r 8 r r 8 8 8 8 8 8 8 r 9 8 9 d d 8 r r r r r 9 8 8 8 d d r r d r 8 r r 8 8 8 8 8 8 8 r 9 8 9 d d 8 ",
"6 8 r d d d r 8 r d d 9 9 d r 8 d d r r 9 r r r 8 r 9 8 9 d d 8 6 8 r d d d r 8 r d d 9 9 d r 8 d d r r 9 r r r 8 r 9 8 9 d d 8 ",
"8 d l n m v n l d d d 8 8 r r 9 9 9 9 9 8 8 8 8 8 r 9 8 9 d d 8 8 d l n m v n l d d d 8 8 r r 9 9 9 9 9 8 8 8 8 8 r 9 8 9 d d 8 ",
"d d n K K n l d d d r 9 8 8 8 9 d d d 8 8 r d r 8 8 8 8 8 9 r r d d n K K n l d d d r 9 8 8 8 9 d d d 8 8 r d r 8 8 8 8 8 9 r r ",
"8 8 r d d d r 9 8 9 r d d d r 9 8 d d r r d r 8 8 9 r d d d r 8 8 8 r d d d r 9 8 9 r d d d r 9 8 d d r r d r 8 8 9 r d d d r 8 ",
"r 9 8 8 8 9 r d 8 r k n v n l d r d d r r d d 8 d d n K m n d r r 9 8 8 8 9 r d 8 r k n v n l d r d d r r d d 8 d d n K m n d r ",
"d d 9 8 8 r d d 9 d l n m n n l d d r 6 6 9 d r d l n K m n d d d d 9 8 8 r d d 9 d l n m n n l d d r 6 6 9 d r d l n K m n d d ",
"8 8 8 8 8 8 9 r 8 9 r d d d d d 8 d d 9 8 r r 8 r r d d d r 8 8 8 8 8 8 8 8 9 r 8 9 r d r r d d 8 d d 9 8 r r 8 r r d d d r 8 8 ",
"8 8 8 9 9 9 9 8 d r 9 8 8 8 r r 8 k m W K v d 8 r 9 8 8 8 8 8 8 8 8 8 9 9 9 9 8 d r 9 8 8 8 r r 8 k m W K v d 8 r 9 8 8 8 8 8 8 ",
"r r r r d d d d d d r r r r d d r l K W K m k 8 d d r r r d d d r r r r d d d d d d r r r r d d r l K W K m k 8 d d r r r d d d ",
"r r 8 8 8 r d d 8 8 8 9 9 r r r 8 r r 8 8 9 9 8 8 9 r r r d d d r r 8 8 8 r d d 8 8 8 9 9 r r r 8 r r 8 8 9 9 8 8 9 r r r d d d ",
"9 9 9 9 9 r d d r 9 9 9 9 r r d d d 9 8 9 r d d 9 9 9 8 8 a a d 9 9 r 9 9 r r r r 9 9 r 9 r r r d r 9 8 9 r d d r 9 8 8 8 8 r r ",
"8 8 r d d d r 9 r 9 9 9 9 r r d 8 8 9 r r r 9 8 9 9 d d d d a a 8 8 r d d d r 9 r 9 r r r r r r 8 8 9 r r r 9 8 9 r d d d d r 9 ",
"r d n v v n d r r 9 9 9 9 r r d d d r d d d d d d k b Y Y b z d d d l n n n d r r 9 9 9 r r r r r r r d d d d d d l n K K n k d ",
"d d n m m n d d r 9 9 9 9 r r d d d r 8 8 r d d k n m Y Y b z d d d n K m n d d r 9 9 9 r r r r d d r 8 8 r d d k n v K K n l d ",
"9 r d d d d r 9 r 9 9 9 9 r r d r r r r r r 9 9 d r d d d r d 9 9 r r r r r r 9 r 8 9 9 9 r r r r r r r r r 9 9 d d d d d r r 9 ",
"r r 9 8 8 8 9 r r 9 9 9 9 r r d 8 d n K K n r 6 d r 8 8 8 8 8 8 r r 8 8 8 8 9 r r 8 9 9 9 r r r 8 d n K K n r 6 d r 8 8 8 8 8 8 ",
"d d d r r r r d r 9 9 9 9 r r d r d n W W n d 8 d d r e 8 e e r r r r r r r r r r 8 9 9 9 r r d r d n W K n d 8 d d r 9 8 8 9 r ",
"r r r r r 9 8 8 r 9 9 9 9 r r d d r d r d d d d d e e e 6 6 6 6 r r r r r r 8 8 r 8 9 9 9 r r d d d d r r r r r r r r 8 8 8 8 8 ",
"8 d d 9 8 9 r 8 d r 9 8 8 8 r r r r d d d d p p s n g e q t % q % ` % 6 n # l 5 d d 9 8 8 9 d d 8 d d 9 8 9 r 8 d d d r 9 9 8 8 ",
"8 d d 9 8 9 r 8 r d n W ~ m n d d r 9 8 8 8 d s c O @ g  X~.oXoXw i w # r r % l d d n W ! Y c h 8 d d 9 8 9 r 8 d d d r 9 9 r r ",
"8 d d 9 8 9 r 8 8 d n W ! m l d r r d d d d s s j R E ).oXoX/..X X+ w ' . J r - 8 d b W ! Y z d 8 d d 9 8 9 r 8 d r 8 8 8 8 8 8 ",
"8 d d 9 8 9 r 8 8 8 9 r r r r r 8 r n m W c s p > @ e oX X/.+X.XoX Xw X J % 6 l 8 8 a d a s p p 8 d d 9 8 9 r 8 r r d d r r 8 8 ",
"8 d d 9 8 9 r 8 d d 9 8 8 8 9 r 6 r l m W c s p R / F K.oXR.+XoX X XG # 6 l 8 r d d 9 8 p p p s 8 d d 9 8 9 r 8 d l n m m n k d ",
"8 d d 9 8 9 r 8 d d d d r 9 8 8 r r r d d s h h @ / g oX}.oX].oXoX_.. G J # r 8 d d d d s a p p 8 d d 9 8 9 r 8 d d n m v n d d ",
"8 d d 9 8 9 r 8 8 9 r d r 9 8 6 r r 8 8 8 p h h R : f  X}.+X@X].). X' w . l + J 8 9 d d s a p 8 8 d d 9 8 9 r 8 8 9 r d d d r 9 ",
"8 d d 9 8 9 r 8 r r 9 9 9 9 r r 8 8 r d d d s s = f f !.+X+XI.+X X X+ l r r r 8 9 a 9 a a p d d 8 d d 9 8 9 r 8 r 9 8 8 8 8 r r ",
"9 r r r r 8 8 8 8 d m W W K l 9 9 9 9 8 8 e e q $ U * & +X{.+X+X}. XH $ e d n 8 8 k B ~ W K g e e r r 9 8 8 8 r 8 r 9 8 9 d d 8 ",
"r r r r r r r r 8 d l l n n k r 8 9 r r r e q < y   C 1 7.V.{.Q.+Xt $ f d 5 - a a k z z n n g e 8 9 d d r 8 8 8 8 r 9 8 9 d d 8 ",
"9 8 8 8 8 9 r r 9 d d r r d d r 9 d l n n g y q I * ^.+X'.V.l.l.q.9.D O H 6 z k a k k 9 r d e e e d n v n d d 9 8 r 9 8 9 d d 8 ",
"d r 9 8 8 8 9 r 9 r r 8 8 r d 9 d k n n n g y q O oXoXXX+XP.{.7.C.F.o.D = @ n 7 a a a 8 8 e e e r d n m n l d d 8 r 9 8 9 d d 8 ",
"d d d d d r r r 8 r d 9 9 d r 8 9 a r r r e q < t oX^.+XoX+X+X+XQ.{.o.N.H ( m a a a d a e y e 6 8 r d d r 8 8 8 8 r 9 8 9 d d 8 ",
"r r r r r 9 8 8 8 d d r r d r 8 d a 9 8 8 q q < $ oX^.oXXX+X@XT.+X+X+X$.a.n k ! a d d d r d e 6 e r r 8 8 8 8 r 8 r 9 8 9 d d 8 ",
"6 8 r d d d r 8 r d d 9 9 d r 8 d d d r e w e q oX^.oX+XQ.{.+X+XXXXXQ.>.N.O ~ # a d d a 9 d r 8 d d d r 8 8 r d 8 r 9 8 9 d d 8 ",
"8 d l n m v n l d d d 8 8 r r 9 d a r e 8 q 6 < .X}.oX+XoXh.+XQ.+X{.+X$.i.x.H 8 d d d 8 8 r r 9 8 9 r r 8 8 8 8 8 r 9 8 9 d d 8 ",
"d d n K K n l d d d r 9 8 8 8 9 d d d 8 8 e y q .X X+X+X7.7.+XXX+X'.+XO.x.a.g e d d d a 9 9 9 8 d d d 8 8 r d r 8 8 8 8 8 9 r r ",
"8 8 r d d d r 9 8 9 r d d d r 9 9 d d r r e e < oX}.^.+XZ.{.+X'.Y.+X{.O.N.0.g g 6 8 d d d d 9 9 8 d d r r d r 8 8 9 r d d d r 8 ",
"r 9 8 8 8 9 r d 8 r k n v n l d a d d r r y e q ).oXoX{.5.Q.XX+X+XY.+X+X&.0.i.q 6 s d v m n l d r d d r r d d 8 d d n K m n d r ",
"d d 9 8 8 r d d 9 d l n m n n l d d r 6 6 e e q oXoXoXV.j.+X+XXX@XT.@X+XO.u.G.t e d n v m b n z d d r 6 6 9 d r d l n K m n d d ",
"8 8 8 8 8 8 9 r 8 9 r d d d d d 9 d d e 8 e e <  X(.^.h.'.+X+X+X[.@XXX'.%.c.4.f q e d d d d d k 9 d d 9 8 r r 8 r r d d d r 8 8 ",
"8 8 8 9 9 9 9 8 d r 9 8 8 8 r r 9 k m K K F y < oXoX}.k.+XT.T.+X+XW.@X@XX.N.x.2 e e 8 8 8 9 0 9 9 k m W K v d 8 r 9 8 8 8 8 8 8 ",
"r r r r d d d d d d r r r r d d a n K K K F g q L.oX}.h.+X+XXXXX[.'.[.[.%.j.u.f f f d a a a k k 9 l K W K m k 8 d d r r r d d d ",
"r r 8 8 8 r d d 8 8 8 9 9 r r r 8 d r 8 8 e e < g ^.+Xk.U.+X+X{.@XXX@X@X>.9.N.t q e 8 9 9 a 0 9 9 r r 8 8 9 9 8 8 9 r r r d d d ",
"9 9 9 9 9 r d d r 9 9 9 9 r r d f s e 9 9 r r y : oX.Xc.'.^.oX.XXXXX`.+X< #.S.6 r 8 e e 9 9 9 k d r 9 8 9 r d d r 9 8 8 8 8 r r ",
"8 8 r d d d r 9 r 9 9 9 9 r r d > e e 9 9 9 8 w A K.+X6.+X+XoX{.XXJ.w.y.6 2.3.K 9 r e e 9 9 r d 8 8 9 9 r r 9 8 9 r d d d d r 9 ",
"r d n v v n d r r 9 9 9 9 r r d s s r d u u r w y oX{.k.U.^.oXt s.d.v.p.( | [ 8 9 e e e 9 9 r d 9 r r d d d d d d l n K K n k d ",
"d d n m m n d d r 9 9 9 9 r r d f f r 9 9 9 u y % $ ) q.+X+XE.V r.g.H.p.d [ # n 9 e e e 9 9 r d k d 9 9 8 r d d k n v K K n l d ",
"9 r d d d d r 9 r 9 9 9 9 r r d e e r r 9 9 8 e q A N.u.Q.^.oX$ B.g.y.t.> d 8 n 9 e e e 9 9 r d 9 r r r r r 9 9 d d d d d r r 9 ",
"r r 9 8 8 8 9 r r 9 9 9 9 r r d 6 d n K B l r 6 t 3 0.{.+XoX Xt r.d.t.F.g 6 k # 9 e e e 9 9 r d 8 d n K K n r 6 d r 8 8 8 8 8 8 ",
"d d d r r r r d r 9 9 9 9 r r d r g n L B n r w D O n.+XU.oXq $ f.g.v.m.> @ d 9 9 r r e 9 9 r d r d n W K n d 8 d d r 9 8 8 9 r ",
"r r r r r 9 8 8 r 9 9 9 9 r r d d d d r 9 r r e 2 A t.+X+XoX% f f.g.v.e.f r 9 9 9 r r e 9 9 r d d d d r r r r r r r r 8 8 8 8 8 ",
"8 d d 9 8 9 r 8 d r 9 8 8 8 r r r r r d r r e q t z.0.+X XM.% q ;.D.9.@.n - k 8 d r e 6 8 9 9 r r d d d d r 9 8 d d d r 9 9 8 8 ",
"8 d d 9 8 9 r 8 r d n W ~ m n d d r 9 8 8 8 e e S y.n.z.e.f + f .. .8.S : 6 8 8 r d n ~ ~ m n k d d 9 8 8 8 r d d d d r 9 9 r r ",
"8 d d 9 8 9 r 8 8 d n W ! m l d d d d r r r e t Z t.v.z.e.g ! q ,...*.o d d r d 8 d n ~ ! m z d d d d d d r r r d r 8 8 8 8 8 8 ",
"8 d d 9 8 9 r 8 8 8 9 r r r r r 8 r n B K l e 2 ; H.f.w.^ @ - : <.=.T 2 j - 9 8 9 8 e e r r r r 8 d n K K n d 8 r r d d r r 8 8 ",
"8 d d 9 8 9 r 8 d d 9 8 8 8 9 r 8 r l B K n e 2 , y.H.w.D ] d E *.=.o 2 e 6 k 8 d d e 6 8 8 9 r 8 d n K K n d 8 d l n m m n k d ",
"8 d d 9 8 9 r 8 d d d d d 9 8 8 r r 9 r r d f f A.v.r.T 2 e r > ;.+._ ; = l k r d d d d d 9 8 8 r r r d d d d d d d n m v n d d ",
"8 d d 9 8 9 r 8 8 9 r d d 9 8 6 r 9 9 8 8 r e f A.9.v.2 ^ 8 v f -. .} ^ @ d # 8 8 e r d d 9 8 8 d r 8 8 8 9 d d 8 9 r d d d r 9 ",
"8 d d 9 8 9 r 8 r r 9 9 9 9 r r 8 9 9 r k r e t e.A.f.4 ; h k : -.:.1.{ H k - m 9 r e e 9 9 9 r 9 9 r d d d d r r 9 8 8 8 8 r r "
};
