/* XPM */
static char *_77dd86c59fc4fb9c47a2d58dffcb9b2CF3SL2erqfm82aOU[] = {
/* columns rows colors chars-per-pixel */
"64 64 191 2 ",
"   c #07000D",
".  c #0B000C",
"X  c #10000E",
"o  c #0C0014",
"O  c #0E081A",
"+  c #140314",
"@  c #110B16",
"#  c #14021A",
"$  c #19051E",
"%  c #120C1E",
"&  c #1B0B1D",
"*  c #20121F",
"=  c #0F0220",
"-  c #150422",
";  c #1B0523",
":  c #170D25",
">  c #1C0B24",
",  c #120E2A",
"<  c #1E0D2B",
"1  c #0F1120",
"2  c #141323",
"3  c #1E1225",
"4  c #1B1A25",
"5  c #161328",
"6  c #1E142B",
"7  c #1C1432",
"8  c #1E1B31",
"9  c #220C25",
"0  c #280F25",
"q  c #210629",
"w  c #260D2B",
"e  c #280F2D",
"r  c #231325",
"t  c #281727",
"y  c #231825",
"u  c #25122C",
"i  c #2A112E",
"p  c #241B2C",
"a  c #2C1A2D",
"s  c #31122F",
"d  c #250E31",
"f  c #2A0E32",
"g  c #310F32",
"h  c #251232",
"j  c #2C1331",
"k  c #251A32",
"l  c #2F1D31",
"z  c #2C1B33",
"x  c #2C1338",
"c  c #251D3A",
"v  c #2D1B3A",
"b  c #301735",
"n  c #311635",
"m  c #321736",
"M  c #311534",
"N  c #301D32",
"B  c #311836",
"V  c #321937",
"C  c #321936",
"Z  c #33163A",
"A  c #331A38",
"S  c #341B39",
"D  c #351B38",
"F  c #341A3A",
"G  c #311C3B",
"H  c #351C3A",
"J  c #361D3B",
"K  c #371E3C",
"L  c #361E3E",
"P  c #351C3A",
"I  c #381F3D",
"U  c #391F3E",
"Y  c #391E3D",
"T  c #2C2232",
"R  c #2E2834",
"E  c #2C233A",
"W  c #292B38",
"Q  c #342235",
"!  c #352336",
"~  c #35213F",
"^  c #35213D",
"/  c #39203E",
"(  c #3A213F",
")  c #39213E",
"_  c #332C3D",
"`  c #39283B",
"'  c #3C2C3E",
"]  c #38353C",
"[  c #331B41",
"{  c #3A1F41",
"}  c #391F42",
"|  c #362741",
" . c #3B2240",
".. c #392040",
"X. c #3C2342",
"o. c #3B2242",
"O. c #372F44",
"+. c #3B2B42",
"@. c #3E3047",
"#. c #363346",
"$. c #42324C",
"%. c #4B3F55",
"&. c #5B4866",
"*. c #847B9B",
"=. c #807C93",
"-. c #857A88",
";. c #83828A",
":. c #8C8598",
">. c #918C99",
",. c #95919D",
"<. c #8686A0",
"1. c #8A8CA4",
"2. c #898DAA",
"3. c #8986A3",
"4. c #938CAB",
"5. c #8E91A4",
"6. c #9293AD",
"7. c #9593A0",
"8. c #9995B2",
"9. c #A19DAB",
"0. c #A59EBF",
"q. c #AFA3AD",
"w. c #A6A5AD",
"e. c #ACABB4",
"r. c #AEAABD",
"t. c #A6A2BB",
"y. c #B2ACBE",
"u. c #B3A7BB",
"i. c #B7B5B6",
"p. c #B4B2BE",
"a. c #BCBBBD",
"s. c #BBB4BC",
"d. c #BEC0BF",
"f. c #AFADC3",
"g. c #AFB0C4",
"h. c #B5B5C4",
"j. c #BCB6C7",
"k. c #BDBCC4",
"l. c #B7B6C8",
"z. c #BBB6CB",
"x. c #BCBACA",
"c. c #BFBDD2",
"v. c #C2BDCB",
"b. c #C4BED4",
"n. c #CABDD1",
"m. c #C2C1C6",
"M. c #C4C2CC",
"N. c #C7C8CA",
"B. c #CACACD",
"V. c #C6C5D7",
"C. c #CAC3D4",
"Z. c #CBCAD3",
"A. c #CAC4DA",
"S. c #CCCADC",
"D. c #C5C3D8",
"F. c #D3CFD5",
"G. c #D4CCDB",
"H. c #D3D1DF",
"J. c #DFD3DF",
"K. c #DCD9DE",
"L. c #CCCFE0",
"P. c #D9CEE0",
"I. c #D4D4E4",
"U. c #DBD7E9",
"Y. c #DDDCEC",
"T. c #D9D5E6",
"R. c #DFDAF0",
"E. c #E7DCEC",
"W. c #E8DDE3",
"Q. c #EBE4EC",
"!. c #E6EAEA",
"~. c #ECECED",
"^. c #E9F2ED",
"/. c #EEEBF3",
"(. c #E2E1F3",
"). c #F1E2F3",
"_. c #F2EDF4",
"`. c #FAECF6",
"'. c #F5EEFA",
"]. c #FAEEFC",
"[. c #EDF2F1",
"{. c #F4F4F4",
"}. c #FAF4F5",
"|. c #F4F3FB",
" X c #FFF7FF",
".X c #FFF5FE",
"XX c #FDF4FD",
"oX c #F5FAF9",
"OX c #FFF8FF",
"+X c #FFFAFF",
"@X c #FEFCFE",
/* pixels */
"e i i i i w w w w j I  . ./ V e i i e w w w w w w i e w e j j w e i i i i w w w w j I  . ./ V e i i e w w w w w w i e w e j j w ",
"i i i i i i i i w j V V A S b i w e i j j i w w w i e w e j j w i i i i i i i i w j V V A S b i w e i j j i w w w i e w e j j w ",
"e w w w w e i i e j j i i j j i i j A H H V j w w i e w e j j w e w w w w e i i e j j i i j j i i j A H H V j w w i e w e j j w ",
"j i e w w w e i e i i w w i j e j j S K H V j i w i e w e j j w j i e w w w e i e i i w w i j e j j S K H V j i w i e w e j j w ",
"j j j j i i i i w i j e e j i w e i i j j i w w w i e w e j j w j j j j i i i i w i j e e j i w e i i j j i w w w i e w e j j w ",
"i i i i i e w w w j j i i j i w i i w w w w w w w i e w e j j w i i i i i e w w w j j i i j i w i i w w w w w w w i e w e j j w ",
"9 w i j j j i w i j j e e j i w j j i i e i i i w i e w e j j w 9 w i j j j i w i j j e e j i w j j i i e i i i w i e w e j j w ",
"w j V H I K S V j j j w w i i e e e e e w w w w w i e w e j j w w j V H I K S V j j j w w i i e e e e e w w w w w i e w e j j w ",
"j j H / / H V j j j i e w w w e j j j w w i j i w w w w w e i i j j H / / H V j j j i e w w w e j j j w w i j i w w w w w e i i ",
"w w i j j j i e w e i j j j i e w j j i i j i w w e i j j j i w w w i j j j i e w e i j j j i e w j j i i j i w w e i j j j i w ",
"i e w w w e i j w i b H K H V j i j j i i j j w j j H / I S j i i e w w w e i j w i b H K H V j i j j i i j j w j j H / I S j i ",
"j j e w w i j j e j V H I H A V j j i 9 9 e j i j V H / I S j j j j e w w i j j e j V H I H A V j j i 9 9 e j i j V H / I S j j ",
"w w w w w w e i w e i j j j j j w j j e w i i w i i j j j i w w w w w w w w e i w e i j j j j j w j j e w i i w i i j j j i w w ",
"w w w e e e e w j i e w w w i i w b I  ./ K j w i e w w w w w w w w w e e e e w j i e w w w i i w b I  ./ K j w i e w w w w w w ",
"i i i i j j j j j j i i i i j j i V /  ./ I b w j j i i i j j j i i i i j j j j j j i i i i j j i V /  ./ I b w j j i i i j j j ",
"i i w w w i j j w w w e e i i i w i i w w e e w w e i i i j j j j i w w w i j j w w w e e i i i w i i w w e e w w e i i i j j j ",
"e e e e e i j j i e e e e i i j j j e w e i j j e e e w w f f j d i h i h h j j j w w w e i i j j i e w e i j j i e w w w w i i ",
"w w i j j j i e i e e e e i i j w w e i i i e w e e j j x x f f w h h x x h h i j w w w e e i j w w e i i i e w e i j j j j i e ",
"i j A K K S j i i e e e e i i j j j i j j j j j j b J { { J Z x h x v ~ K S x h i i w w e i i j i i i j j j j j j V H / / H b j ",
"j j S I I S j j i e e e e i i j j j i w w i j j b S I { { J Z j h z v ^ ^ S x j i i e w e i i j j j i w w i j j b A K / / H V j ",
"e i j j j j i e i e e e e i i j i i i i i i e e j j j j j i j i i i h j j j i i i i w w w i i j i i i i i i e e j j j j j i i e ",
"i i e w w w e i i e e e e i i j w j S / / A i 9 j i w w w w w w u u i u i i i i i i w w e i i j w j S / / A i 9 j i w w w w w w ",
"j j j i i i i j i e e e e i i j i j H  . .S j w j j i i w u u u i i u u u u i i i i e w e i j j i j H  ./ S j w j j i e w w e i ",
"i i i i i e w w i e e e e i i j j i j i j j j j j i i u 9 9 9 r t t u u u i u 9 i i e w e i j j j j j i i i i i i i i w w w w w ",
"w j j e w e i w j i e w w w i i i i j j j j d d G > 9 u l t a r r Q > u l ; ; i i i e w w w f j w j j e w e i w j j j i e e w w ",
"w j j e w e i w i j H  .X.I A j j i e w w w j h h h ^ # p . * r r Q ` # 9 u ; l i j K  .X.I S j w j j e w e i w j j j i e e i i ",
"w j j e w e i w w j S  .X.I V j i i j j j j h h # &.o r ' +X}.+X+X. 9 ' + N a $ w j S  .+.{ Z j w j j e w e i w j i w w w w w w ",
"w j j e w e i w w w e i i i i i w i S I  .G h d h - k p +X.X+XW.+X.X` r r a o N w w e i j j j f w j j e w e i w i i j j i i w w ",
"w j j e w e i w j j e w w w e i 0 i D I  .G h d v v u ' .X+X}.@X+X.X+X. Q # ` 9 j i e w w w f j w j j e w e i w j V H I I S b j ",
"w j j e w e i w j j j j i e w w i i i j j h x x - $.@.a Q.@X@X}.+X].).' a & t r i i j j j e w w w j j e w e i w j j S I K S j j ",
"w j j e w e i w w e i j i e w 9 i i w w w d x x [ u > T @XXX}.@X.X`.+Xr X a + l w u i j j e w w w j j e w e i w w e i j j j i e ",
"w j j e w e i w i i e e e e i i w e i j j h h h h < > y XX@X@XXX}.+X`.t t 9 +.# i i e e f f f j w j j e w e i w i e w w w w i i ",
"e i i i i w w w w j I  . ./ V e e e e e e e e e 9 j > & @XoX@X@X.X+XXXa r & S i w x { o.o.o.Z f e i i e w w w i w i e w e j j w ",
"i i i i i i i i w j V V A S b i w e e j f f e w j N # y F.|.@X{.XX.XXX& N u > < d x G G [ [ Z f w e j j i w w w w i e w e j j w ",
"e w w w w e i i e j j i i j j i e j D Y Y F j e 9 a ` + s.K.a.@XXX+Xy T t 3 i x d h x f f x x f e j S K H j j e w i e w e j j w ",
"j i e w w w e i e i i w w i j e j b S I Y F j e S o +X].@XoXa.i.F.q.J.o r u ; h h h h d d f f f j j H I H V j j w i e w e j j w ",
"j j j j i i i i w i j e e j i w e e i j j f e w # ` +X+XXX@X@X@X_.+X+XG.t +.$.S d h x f f x h d w i j j i w w w w i e w e j j w ",
"i i i i i e w w w j j i i j i w i e e w e w w w w XX.X].@X@X~.@X@X@XQ.-.P._ o ^ w h x f f x h w e i i w w w w i w i e w e j j w ",
"9 w i j j j i w i j j e e j i w j j j e e e e w j .X].+XQ.@XoX{.}.XX+X+X>.n.+.; h h x f f x f w j j j i w w i j w i e w e j j w ",
"w j V H I K S V j j j w w i i e i i e e e w 9 9 i ).+X+X+X@Xd.@X@X+X@X@X:.P.: v h x h w w f f f w e i i w w w w w i e w e j j w ",
"j j H / / H V j j j i e w w w e j j j w w j j i > .X].@XXXB.B.{.oX@X~.@X,.C.o ~ x j j d w w e e j j j w w i j i w w w w w e i i ",
"w w i j j j i e w e i j j j i e w j j i j j i 9 v +X+X.X|.N.!.@XoXoX@X+X>.j.%.- u i j h j j f e e j j i i j i w w e i j j j i w ",
"i e w w w e i j w i b H K H V j i j j i j j j u i XX+X/.F.B.~.@X@X@X@X@X>.G.u.u u i j K I Y F b e j j i i j j w j j H / I S j i ",
"j j e w w i j j e j V H I H A V j j i 9 9 w j i u +X.X@Xk.oX{.@XoX@X[.@X;.S.G.l u j v K I Y S m j j i 9 9 e j i j V H / I S j j ",
"w w w w w w e i w e i j j j j j w j j i w j i 9 u +X+XXXm.@X@XoXoX@X!.@Xw.y.C.6 u i i j j j f j e j j e w i i w i i j j j i w w ",
"w w w e e e e w j i e w w w i i w z ^  . .K j 9 u ].+XM.m.oX@X[.@X@X@X@X|.9.C.p u i i w w e e e e b I  ./ K j w i e w w w w w w ",
"i i i i j j j j j j i i i i j j i z ^ |  .K z u k .X+Xp.Z.@X@X@XoX^.@X@X@X,.v.p k j i i e e M M e V /  ./ I b w j j i i i j j j ",
"i i w w w i j j w w w e e i i i u h h w w e e 9 > +X+Xv.M.@X{.@X@XoX@X@X/.7.v.p u u w e e e e e e i i w w e e w w e i i i j j j ",
"e e e e e i j j i e e e e i i j h h h w f f M a # +X_.B.Z._.~.@X@X|.@X@X@X:.S.3 6 6 u u i i i j j i e w e i j j i e w w w w i i ",
"w w i j j j i e i e e e e i i j 6 7 h j g e e 0 a ).@X@ a.@X@X}.@XoX@Xk.h.C.>._ 6 6 u u i i i j w w e i i i e w e i j j j j i e ",
"i j A K K S j i i e e e e i i j h h h j g s s i ! .X.X] m.~.}.+X4 h.x.Y.M.H.>.% 6 6 u u i i i j i i i j j j j j j V H / / H b j ",
"j j S I I S j j i e e e e i i j k h h w e e s s r +X'.M.K.@X+X+X4 I.V.e.Z.v.T _ r u u u i i i j j j i w w i j j b A K / / H V j ",
"e i j j j j i e i e e e e i i j h h j j e g e u t y R e./.+X`.@X@ W p.M.S.j.E o r u u u i i i j i i i i i i e e j j j j j i i e ",
"i i e w w w e i i e e e e i i j w h S X.Y D i 9 t @ 4 Z.@X@XQ.y p 2 v.V.T.y.E 6 r u u u i i i j w j S / / A i 9 j i w w w w w w ",
"j j j i i i i j i e e e e i i j h x K X.Y D j r l 3 p M.|._.+Xy 2 1 (.b.r.C.: u u u i i i i i i i j H  ./ S j w j j i e w w e i ",
"i i i i i e w w i e e e e i i j j x j j e e i u r T v.M.+X+X.Xy 5 L.l.r.R.A.k 6 i i i i i i i i j j j i i i i i i i i w w w w w ",
"w j j e w e i w j i e w w w i i h j j j j i e u 3 _ x.x.@X'.v.l 2 5.z.S.b.:.v > i i e w w w i i i j j j j i e w j j j i e e w w ",
"w j j e w e i w i j H  .X.I A j x j w w w e i u E % S.x.XXE.3 o 8 6.6.=.:.| > i i j H  .| ^ C j j j e w w w i j j j j i e e i i ",
"w j j e w e i w w j S  .X.I V j j j j j j i i u 3 #.V.h.U.  r ^ 8 1.<.t.E o j w w j S  .X.^ l i j j j j j i i i j i w w w w w w ",
"w j j e w e i w w w e i i i i i w j S { Y S i < 6 2 h.U.z.: t u 6 1.1.8.= < +.; e e e i i i i u w j S / / A j w i i j j i i w w ",
"w j j e w e i w j j e w w w e i w j A I Y S j u E 5 Y.l.y.$.i # 7 6.3., c x j ; M j e w 9 w u u w j A / / S j w j V H I I S b j ",
"w j j e w e i w j j j j j e w w j j i j j j j h : c.g.I.O.k $ | , 6.6.7 < w 9 j j M M j i u 0 9 i i i j j j j j j j S I K S j j ",
"w j j e w e i w w e i j j e w 9 j i e w w e j k 8 S.S.z.k z # u , 2.8.4.v h w F w e e M i u 9 9 j i w w w e j j w e i j j j i e ",
"w j j e w e i w i i e e e e i i w e i j j j j u k f.S.D.O k ^ u c 2.*.0.*.v q M f e e e w u u u w e i j j j j i i e w w w w i i "
};
