/* XPM */
static char *dee73d4df8a14cdba8045088d2cdbe79jLTnSs2sm4i8qhU5[] = {
/* columns rows colors chars-per-pixel */
"64 64 187 2 ",
"   c #0E000C",
".  c #11000F",
"X  c #0C0216",
"o  c #0B041C",
"O  c #130014",
"+  c #13031C",
"@  c #1C051C",
"#  c #150A1E",
"$  c #1C0C1D",
"%  c #160C17",
"&  c #13121F",
"*  c #1C171D",
"=  c #20101D",
"-  c #150421",
";  c #1C0624",
":  c #150D22",
">  c #1C0B24",
",  c #170D28",
"<  c #1D0C29",
"1  c #141124",
"2  c #1B1325",
"3  c #1B1D27",
"4  c #1E132B",
"5  c #1D182E",
"6  c #1A1C33",
"7  c #200724",
"8  c #230D25",
"9  c #220728",
"0  c #260D2B",
"q  c #280F2D",
"w  c #300E2F",
"e  c #241225",
"r  c #291227",
"t  c #211A22",
"y  c #24122C",
"u  c #2A112E",
"i  c #241A2D",
"p  c #2B1A2D",
"a  c #30122F",
"s  c #30182E",
"d  c #260D31",
"f  c #2B0E31",
"g  c #320E31",
"h  c #261431",
"j  c #2C1331",
"k  c #231B33",
"l  c #2C1B34",
"z  c #2B1439",
"x  c #211D38",
"c  c #2C1939",
"v  c #311534",
"b  c #381637",
"n  c #321936",
"m  c #391937",
"M  c #31173A",
"N  c #3A1738",
"B  c #361D3B",
"V  c #331A3C",
"C  c #371E3C",
"Z  c #371C3D",
"A  c #341B3A",
"S  c #381F3D",
"D  c #381F3C",
"F  c #391F3E",
"G  c #391E3D",
"H  c #24202F",
"J  c #252433",
"K  c #2B2334",
"L  c #25273E",
"P  c #2F2339",
"I  c #34223B",
"U  c #392139",
"Y  c #39203E",
"T  c #3A213F",
"R  c #3A213E",
"E  c #3A2337",
"W  c #42263F",
"Q  c #361E41",
"!  c #3A1F41",
"~  c #3C1F41",
"^  c #2F2D43",
"/  c #352242",
"(  c #3B2240",
")  c #3A2141",
"_  c #3C2342",
"`  c #3C2241",
"'  c #352D42",
"]  c #382845",
"[  c #392A42",
"{  c #352A48",
"}  c #3E3047",
"|  c #363441",
" . c #442C45",
".. c #4A3247",
"X. c #7F7B8A",
"o. c #777F96",
"O. c #837D89",
"+. c #837F9A",
"@. c #85838C",
"#. c #828497",
"$. c #82859C",
"%. c #8C8A9F",
"&. c #888A96",
"*. c #938A9B",
"=. c #95949F",
"-. c #8A8BA1",
";. c #938EA2",
":. c #8B91A1",
">. c #9B94A1",
",. c #979AA3",
"<. c #9B9AA6",
"1. c #9694A8",
"2. c #9C9BB3",
"3. c #9EA5B8",
"4. c #A7A5B3",
"5. c #A6AAB6",
"6. c #ABAEB4",
"7. c #A0A8BF",
"8. c #ACADBA",
"9. c #AFB2B7",
"0. c #ABB1BD",
"q. c #B3B3BE",
"w. c #B5B9BF",
"e. c gray75",
"r. c #A8A8AA",
"t. c #B6ADC0",
"y. c #B3B2C2",
"u. c #B9B5C4",
"i. c #B7BAC3",
"p. c #BCBDC4",
"a. c #BDBCCC",
"s. c #BDBDD2",
"d. c #C3BCCC",
"f. c #CDBFD0",
"g. c #BEC1C5",
"h. c #BFC3CC",
"j. c #C3C6C3",
"k. c #C3C3CD",
"l. c #CACACC",
"z. c #C5CAC6",
"x. c #D0CBCF",
"c. c #C4C3D3",
"v. c #CBC4D5",
"b. c #C5C9D3",
"n. c #CCC9D7",
"m. c #C5C4D9",
"M. c #C8C6DB",
"N. c #CCCEDC",
"B. c #D3CDDE",
"V. c #D1CCD2",
"C. c #CED2DB",
"Z. c #D5D5DC",
"A. c #D6DADE",
"S. c #C9CBE0",
"D. c #D5D2E3",
"F. c #DCDBE4",
"G. c #DCD8EA",
"H. c #E5D8EA",
"J. c #EEDDEF",
"K. c #DEE2E3",
"L. c #E9E9E7",
"P. c #E4E6E9",
"I. c #E9E6E9",
"U. c #EBECEE",
"Y. c #EEF0ED",
"T. c #EFEEF3",
"R. c #EBE3F2",
"E. c #F3E5F2",
"W. c #F4ECF5",
"Q. c #F9EEF6",
"!. c #FBEFFB",
"~. c #F5E7F8",
"^. c #EEF2F4",
"/. c #EFF4F8",
"(. c #F2F5F4",
"). c #FBF3F5",
"_. c #F5F9F6",
"`. c #F5F4FC",
"'. c #FAF3FB",
"]. c #FFF6FF",
"[. c #FFF5FF",
"{. c #FDF5FE",
"}. c #F6FAFB",
"|. c #FFF9FF",
" X c #FFFBFF",
".X c #FFFDFF",
"XX c #FDFDFE",
/* pixels */
"q u u u u 0 0 0 0 j S ( ( Y n q u u q 0 0 0 0 0 0 u q 0 q j j 0 q u u u u 0 0 0 0 j S ( ( Y n q u u q 0 0 0 0 0 0 u q 0 q j j 0 ",
"u u u u u u u u 0 j n n A A v u 0 q u j j u 0 0 0 u q 0 q j j 0 u u u u u u u u 0 j n n A A v u 0 q u j j u 0 0 0 u q 0 q j j 0 ",
"q 0 0 0 0 q u u q j j u u j j u u j A B B n j 0 0 u q 0 q j j 0 q 0 0 0 0 q u u q j j u u j j u u j A B B n j 0 0 u q 0 q j j 0 ",
"j u q 0 0 0 q u q u u 0 0 u j q j j A C B n j u 0 u q 0 q j j 0 j u q 0 0 0 q u q u u 0 0 u j q j j A C B n j u 0 u q 0 q j j 0 ",
"j j j j u u u u 0 u j q q j u 0 q u u j j u 0 0 0 u q 0 q j j 0 j j j j u u u u 0 u j q q j u 0 q u u j j u 0 0 0 u q 0 q j j 0 ",
"u u u u u q 0 0 0 j j u u j u 0 u u 0 0 0 0 0 0 0 u q 0 q j j 0 u u u u u q 0 0 0 j j u u j u 0 u u 0 0 0 0 0 0 0 u q 0 q j j 0 ",
"9 0 u j j j u 0 u j j q q j u 0 j j u u q u u u 0 u q 0 q j j 0 9 0 u j j j u 0 u j j q q j u 0 j j u u q u u u 0 u q 0 q j j 0 ",
"0 j n B S C A n j j j 0 0 u u q q q q q 0 0 0 0 0 u q 0 q j j 0 0 j n B S C A n j j j 0 0 u u q q q q q 0 0 0 0 0 u q 0 q j j 0 ",
"j j B Y Y B n j j j u q 0 0 0 q j j j 0 0 u j u 0 0 0 0 0 q u u j j B Y Y B n j j j u q 0 0 0 q j j j 0 0 u j u 0 0 0 0 0 q u u ",
"0 0 u j j j u q 0 q u j j j u q 0 j j u u j u 0 0 q u j j j u 0 0 0 u j j j u q 0 q u j j j u q 0 j j u u j u 0 0 q u j j j u 0 ",
"u q 0 0 0 q u j 0 u v B C B n j u j j u u j j 0 j j B Y S A j u u q 0 0 0 q u j 0 u v B C B n j u j j u u j j 0 j j B Y S A j u ",
"j j q 0 0 u j j q j n B S B A n j j u 9 9 q j u j n B Y S A j j j j q 0 0 u j j q j n B S B A n j j u 9 9 q j u j n B Y S A j j ",
"0 0 0 0 0 0 q u 0 q u j j j j j 0 j j q 0 u u 0 u u j j j u 0 0 0 0 0 0 0 0 q u 0 q u j u u j j 0 j j q 0 u u 0 u u j j j u 0 0 ",
"0 0 0 q q q q 0 j u q 0 0 0 u u 0 v S ( Y C j 0 u q 0 0 0 0 0 0 0 0 0 q q q q 0 j u q 0 0 0 u u 0 v S ( Y C j 0 u q 0 0 0 0 0 0 ",
"u u u u j j j j j j u u u u j j u n Y ( Y S v 0 j j u u u j j j u u u u j j j j j j u u u u j j u n Y ( Y S v 0 j j u u u j j j ",
"u u 0 0 0 u j j 0 0 0 q q u u u 0 u u 0 0 q q 0 0 q u u u j j j u u 0 0 0 u j j 0 0 0 q q u u u 0 u u 0 0 q q 0 0 q u u u j j j ",
"q q q q q u j j u q q q q u u j j j q 0 q u j j q q q 0 0 d f j q q q q q u u u u q q u q u u u j u q 0 q u j j u q 0 0 0 0 u u ",
"0 0 u j j j u q u q q q q u u j 0 0 q u u u q 0 q q j j j j f d 0 0 u j j j u q u q u u u u u u 0 0 q u u u q 0 q u j j j j u q ",
"u j A C C A j u u q q q q u u j j j u j j j j j j v Z ! ! Z M j j j A B B A j u u q q q u u u u u u u j j j j j j n B Y Y B v j ",
"j j A S S A j j u q q q q u u j j j u 0 0 u j j v A S ! ! C M j j j A S S A j j u q q q u u u u j j u 0 0 u j j v A C Y Y B n j ",
"q u j j j j u q u q q q q u u j u u u u u u q q j j j j j u j q q u u u u u u q u 0 q q q u u u u u u u u u q q j j j j j u u q ",
"u u q 0 0 0 q u u q q q q u u j 0 j A Y Y A u 9 j u 0 0 0 0 0 0 u u 0 0 0 0 q u u 0 q q q u u u 0 j A Y Y A u 9 j u 0 0 0 0 0 0 ",
"j j j u u u u j u q q q q u u j u j B ( ( A j 0 j j u y 0 y y u p p u u u u u u u 0 q q q u u j u j B ( Y A j 0 j j u q 0 0 q u ",
"u u u u u q 0 0 u q q q q u u j j u j u j j j j j y y y 8 8 8 8 u u u u u u 0 0 u 0 q q q u u j j j j u u u u u u u u 0 0 0 0 0 ",
"0 j j q 0 q u 0 j u q 0 0 0 u u u u j j j j d d h A l y e i $ e @  .@ 8 A @ n 7 j j q 0 0 0 j j 0 j j q 0 q u 0 j j j u q q 0 0 ",
"0 j j q 0 q u 0 u j B ( ` S A j j u q 0 0 0 j z V X + l [.E.|.|.r s u @ p u @ n u j C ( ` S V j 0 j j q 0 q u 0 j j j u q q u u ",
"0 j j q 0 q u 0 0 j A ( _ S n j u u j j j j z h c / [ !.|.|.Q.{.[.O r ..  U p ; 0 j Z ( _ ! M j 0 j j q 0 q u 0 j u 0 0 0 0 0 0 ",
"0 j j q 0 q u 0 0 0 q u u u u u 0 u A S ! V z d < + y |.[.Q..X{.|.[.r . U @ 8 n 0 0 d j d j d d 0 j j q 0 q u 0 u u j j u u 0 0 ",
"0 j j q 0 q u 0 j j q 0 0 0 q u 8 u A S ( V z d / ] I H.|.I..X|.{.[.E @ 8 n 0 u j j q 0 d d d z 0 j j q 0 q u 0 j n B S S A v j ",
"0 j j q 0 q u 0 j j j j u q 0 0 u u u j j z z z + ] l |.'.|.).|.|.E.  E U @ u 0 j j j j z d d d 0 j j q 0 q u 0 j j A S C A j j ",
"0 j j q 0 q u 0 0 q u j u q 0 8 u u 0 0 0 d z z / > k [.'..XXX).!.[...e   n O U 0 q j j z d d 0 0 j j q 0 q u 0 0 q u j j j u q ",
"0 j j q 0 q u 0 u u q q q q u u 0 0 u j j z z h ; h l R..X.XI..X[.[.O n u p u 0 u j q d d d j j 0 j j q 0 q u 0 u q 0 0 0 0 u u ",
"q u u u u 0 0 0 0 j S ( ( Y n q d d d d d d h h ; I # # .X.X(..X|.{.y > A 9 j 0 0 v S ( ( Y n y y u u q 0 0 0 u 0 u q 0 q j j 0 ",
"u u u u u u u u 0 j n n A A v j d d d z z j 0 8 y + i K k.w.XXXXW.P i i y y j z d v M n A B l y 0 q j j u 0 0 0 0 u q 0 q j j 0 ",
"q 0 0 0 0 q u u q j j u u j j j d z V Q C A j y ; i d.n.i.k.A.g.D.i i # l A X v d j j u u j p y y j A C B j j q 0 u q 0 q j j 0 ",
"j u q 0 0 0 q u q u u 0 0 u j 0 z c V C C A j y e |.[.`.k.p.9.C.q.B.: 4 l + ( ; d j j 0 0 u u y u j B S B n j j 0 u q 0 q j j 0 ",
"j j j j u u u u 0 u j q q j u 0 0 y j j j u y 8 O !.[..XT..Xg.w.F.u.*.[ < I ( j d j j q q u u 0 0 u j j u 0 0 0 0 u q 0 q j j 0 ",
"u u u u u q 0 0 0 j j u u j u 0 u y y 0 0 8 e e p |.W.|..XA.}..XW.{.=.v.} [ y A d z j j u j u 0 q u u 0 0 0 0 u 0 u q 0 q j j 0 ",
"9 0 u j j j u 0 u j j q q j u 0 j j u u y y e e |.E.|..X.X.X.XP..X{..X>.v.+ y j h j j q q j u 0 j j j u 0 0 u j 0 u q 0 q j j 0 ",
"0 j n B S C A n j j j 0 0 u u y u y u y e e 8 = |.Q..X.XL..X(..XXX|..XO.d.K P y h z j 0 0 q u q 0 q u u 0 0 0 0 0 u q 0 q j j 0 ",
"j j B Y Y B n j j j u q 0 0 0 y j j u 8 8 u r e [.[..X)..Xj.}..X(..X`.>.B.t.i h h j j q q q q q j j j 0 0 u j u 0 0 0 0 0 q u u ",
"0 0 u j j j u q 0 q u j j j u y 0 p p u r r e = [.|..X(.l.z.(._..X{..X@.a.n.' P 4 y h j j j q q q j j u u j u 0 0 q u j j j u 0 ",
"u q 0 0 0 q u j 0 u v B C B n j u p p u r r r e |.Q.)..Xj.(.XX.X}.U..X.X<.y.d.o 4 y l C S m b v q j j u u j j 0 j j B Y S A j u ",
"j j q 0 0 u j j q j n B S B A n j j u 9 8 e r e |.Q..X.Xe.XX.X(.}..X.X{.@.n.a.' i h c C S m N b j j u 9 9 q j u j n B Y S A j j ",
"0 0 0 0 0 0 q u 0 q u j j j j j 0 p u y 0 u e e E.[.|.x.r._..XU..X.X^.P.6.a.q.1 4 y h j f g g g q j j q 0 u u 0 u u j j j u 0 0 ",
"0 0 0 q q q q 0 j u q 0 0 0 u u 0 l Y Y Y B p 8 |.|.W.p.Z._..XXXY._.}..XXX&.G.k i i y 0 q q w w q v S ( Y C j 0 u q 0 0 0 0 0 0 ",
"u u u u j j j j j j u u u u j j j l Y Y Y U l e J.|.W.V..X}.^._._..X.XK..X,.8.a.k h h j f g g v q n Y ( Y S v 0 j j u u u j j j ",
"u u 0 0 0 u j j 0 0 0 q q u u u 0 h j 0 0 0 y 8 K Q.|.k.U..X.X}..X.XK..X`.&.n.M.4 4 y q q f g w q u u 0 0 q q 0 0 q u u u j j j ",
"q q q q q u j j u q q q q u u j z j d q q q a p 2 |.F.Z..XU..X(.^.XX/.}..X=.a.B.4 i y y q d f j j u q 0 q u j j u q 0 0 0 0 u u ",
"0 0 u j j j u q u q q q q u u j 0 d d f g w q 8 $ .X.Xq.`..XI..X.X/.XXw.b.,.d.q.4 y y y 0 j f j 0 0 q u u u q 0 q u j j j j u q ",
"u j A C C A j u u q q q q u u j j z j j g a u r e |.`.6..X}.|..X.X6.h.b.b.3 4.D.4 y y y 0 j f j d u u j j j j j j n B Y Y B v j ",
"j j A S S A j j u q q q q u u j j z d q q w a p p {..Xg..XT..X* p.C.C.i.N.| X.2 y y y y 0 j j j j j q 0 0 u j j v A C Y Y B n j ",
"q u j j j j u q u q q q q u u j j j j f w q 0 y y & k.l.XX|.|.* k.b.b.8.a.J 2 i y y y y 0 d j j j u u u u u q q j j j j j u u q ",
"u u q 0 0 0 q u u q q q q u u j 0 z A ~ F m u 8 l K p.`.|.{.|.t 3 a.C.N.c.H # i y y y y q j j j 0 j A Y Y A u 9 j u 0 0 0 0 0 0 ",
"j j j u u u u j u q q q q u u j j c S ` F m j e 2 X Z.XX`.|.t % & N.5.k.c.2 l + y y 0 q q j j j u j B ( Y A j 0 j j u q 0 0 q u ",
"u u u u u q 0 0 u q q q q u u j j z j f q q u y K n.k.`..X[.$ p J 0.C.N.a.4 : I y 0 q q q j j j j j j u u u u u u u u 0 0 0 0 0 ",
"0 j j q 0 q u 0 j u q 0 0 0 u u j j j j j u y y K c.k..X{.|.O p 1 :.N.a.;.k > l j u q 0 0 q j j u j j j j u q 0 j j j u q q 0 0 ",
"0 j j q 0 q u 0 u j B ( ` S A j j j q 0 0 0 y y o a.N.|.{.f.E $ 1.#.$.%.x 4 - > u v B ` ` S A j j j q 0 0 0 u j j j j u q q u u ",
"0 j j q 0 q u 0 0 j A ( _ S n j j j j j j u y i J N.a.u.B.e O p 1.:.-.^ o l j j 0 j A ` ` S n j j j j j j u u u j u 0 0 0 0 0 0 ",
"0 j j q 0 q u 0 0 0 q u u u u u 0 j A ! Y A y 4 1 D.y.D.y > W u #.3.-.: k k < 9 q q q q q u u u 0 j A Y Y A j 0 u u j j u u 0 0 ",
"0 j j q 0 q u 0 j j q 0 0 0 q u 0 j A Y Y A h 4 5 s.M.u.P p a + 2.$.L x , l 9 0 v j q 0 0 0 q u 0 j A Y Y A j 0 j n B S S A v j ",
"0 j j q 0 q u 0 j j j j j q 0 0 j j u j j j h k M.s.M.G.y  .m 0 -.$.6 o k y j A j v v v j q 0 0 u u u j j j j j j j A S C A j j ",
"0 j j q 0 q u 0 0 q u j j q 0 9 j u 0 0 0 y h k m.m.s.5 + 0 m 9 $.7.$.x { - ; 9 q q w v j q 0 9 j u 0 0 0 q j j 0 q u j j j u q ",
"0 j j q 0 q u 0 u u q q q q u u 0 y u j j h h 5 m.S.s.x i u v j 2.o.2.+.4 c j j f g q q q q q u 0 q u j j j j u u q 0 0 0 0 u u "
};
