/* XPM */
static char *_87815e3a411435997ecefe7141dab70NuNfHwBkkN4c2Hr5[] = {
/* columns rows colors chars-per-pixel */
"64 64 190 2 ",
"   c #0A000C",
".  c #0C0114",
"X  c #0C031B",
"o  c #090517",
"O  c #150315",
"+  c #190915",
"@  c #13041D",
"#  c #160B1F",
"$  c #1B0B1D",
"%  c #131017",
"&  c #16131C",
"*  c #21111C",
"=  c #150521",
"-  c #1A0623",
";  c #160C24",
":  c #1B0C23",
">  c #1E0D29",
",  c #1B072A",
"<  c #0E1224",
"1  c #141027",
"2  c #1B1223",
"3  c #1E1826",
"4  c #151328",
"5  c #1D132A",
"6  c #171B2C",
"7  c #1B192E",
"8  c #1F1631",
"9  c #1D1B31",
"0  c #220D25",
"q  c #280F25",
"w  c #260D2B",
"e  c #280F2D",
"r  c #300F2E",
"t  c #241226",
"y  c #281727",
"u  c #25122D",
"i  c #2A112E",
"p  c #241B2B",
"a  c #2C1B2D",
"s  c #31122E",
"d  c #260E31",
"f  c #290E31",
"g  c #251331",
"h  c #2C1331",
"j  c #241B34",
"k  c #2B1A34",
"l  c #2C1438",
"z  c #2E1B3A",
"x  c #301735",
"c  c #301735",
"v  c #311836",
"b  c #321937",
"n  c #321936",
"m  c #32173A",
"M  c #331A38",
"N  c #341B39",
"B  c #351B38",
"V  c #341A3A",
"C  c #311C3B",
"Z  c #351C3A",
"A  c #361D3B",
"S  c #351B3D",
"D  c #371E3C",
"F  c #361D3E",
"G  c #341C3A",
"H  c #381F3D",
"J  c #381F3C",
"K  c #391E3E",
"L  c #391F3D",
"P  c #1B2131",
"I  c #2C222D",
"U  c #32222F",
"Y  c #2B2333",
"T  c #2D213A",
"R  c #332436",
"E  c #34203E",
"W  c #33223B",
"Q  c #39203E",
"!  c #3A213F",
"~  c #39203E",
"^  c #392B3C",
"/  c #332C3E",
"(  c #39363F",
")  c #331F40",
"_  c #3A1F41",
"`  c #391E41",
"'  c #352241",
"]  c #3B2240",
"[  c #3A2141",
"{  c #3C2341",
"}  c #3B2241",
"|  c #342E45",
" . c #3A2B43",
".. c #3E2B4B",
"X. c #412946",
"o. c #413446",
"O. c #4A3F50",
"+. c #5A4763",
"@. c #78738A",
"#. c #7D7F94",
"$. c #817E85",
"%. c #807B92",
"&. c #7F8498",
"*. c #818297",
"=. c #898193",
"-. c #84849A",
";. c #8F8A9E",
":. c #918C97",
">. c #958F99",
",. c #96909E",
"<. c #8C8DA2",
"1. c #9187A0",
"2. c #918DA4",
"3. c #9790A0",
"4. c #9995A1",
"5. c #9A94AB",
"6. c #9999AF",
"7. c #9897A6",
"8. c #9C9FB4",
"9. c #A39EB5",
"0. c #A3A2A7",
"q. c #A3A4B9",
"w. c #ADABB6",
"e. c #B3ACB9",
"r. c #B3B4BC",
"t. c #B9B3BD",
"y. c #ADABC1",
"u. c #B1AEC1",
"i. c #B9B4C4",
"p. c #BCBDC3",
"a. c #B7B4CA",
"s. c #B9B5CB",
"d. c #B3BACD",
"f. c #BDBBC8",
"g. c #B6BDD0",
"h. c #BBBDD2",
"j. c #C3BCCB",
"k. c #C3B7CB",
"l. c #C2BED4",
"z. c #CABDD1",
"x. c #BEC1D5",
"c. c #BEC5D8",
"v. c #C2C1C7",
"b. c #C3C3CA",
"n. c #CAC3CE",
"m. c #C4C3D6",
"M. c #CDC4D3",
"N. c #CDCCD4",
"B. c #C3C3D9",
"V. c #CBC6DD",
"C. c #CBCADD",
"Z. c #C2C9DC",
"A. c #D0CFD5",
"S. c #D2CDDD",
"D. c #D2D1D7",
"F. c #D4D2DD",
"G. c #D4D8DB",
"H. c #CBCDE2",
"J. c #D1CFE5",
"K. c #D9CDE1",
"L. c #CFD7EA",
"P. c #D1D1E5",
"I. c #DADBE3",
"U. c #DAD3EB",
"Y. c #DFD4E5",
"T. c #DEDCF1",
"R. c #E5E5EB",
"E. c #EDE6ED",
"W. c #E5E7E4",
"Q. c #F6E7EE",
"!. c #F8EDEB",
"~. c #EBF5ED",
"^. c #EDEDF3",
"/. c #EAE5F2",
"(. c #F6EDF9",
"). c #FAEFF8",
"_. c #FBEEFB",
"`. c #ECF2F4",
"'. c #F2F3F6",
"]. c #FEF5F7",
"[. c #F3FBF6",
"{. c #F9F8F6",
"}. c #F3F3FB",
"|. c #FEF7F8",
" X c #FFF5FE",
".X c #FDF4FE",
"XX c #F5FCFC",
"oX c #FFF9FF",
"OX c #FFFBFF",
"+X c #FDFDFE",
/* pixels */
"e i i i i w w w w h H ] ] Q b e i i e w w w w w w i e w e h h w e i i i i w w w w h H ] ] Q b e i i e w w w w w w i e w e h h w ",
"i i i i i i i i w h b b M N x i w e i h h i w w w i e w e h h w i i i i i i i i w h b b M N x i w e i h h i w w w i e w e h h w ",
"e w w w w e i i e h h i i h h i i h M Z Z b h w w i e w e h h w e w w w w e i i e h h i i h h i i h M Z Z b h w w i e w e h h w ",
"h i e w w w e i e i i w w i h e h h N D Z b h i w i e w e h h w h i e w w w e i e i i w w i h e h h N D Z b h i w i e w e h h w ",
"h h h h i i i i w i h e e h i w e i i h h i w w w i e w e h h w h h h h i i i i w i h e e h i w e i i h h i w w w i e w e h h w ",
"i i i i i e w w w h h i i h i w i i w w w w w w w i e w e h h w i i i i i e w w w h h i i h i w i i w w w w w w w i e w e h h w ",
"0 w i h h h i w i h h e e h i w h h i i e i i i w i e w e h h w 0 w i h h h i w i h h e e h i w h h i i e i i i w i e w e h h w ",
"w h b Z H D N b h h h w w i i e e e e e w w w w w i e w e h h w w h b Z H D N b h h h w w i i e e e e e w w w w w i e w e h h w ",
"h h Z Q Q Z b h h h i e w w w e h h h w w i h i w w w w w e i i h h Z Q Q Z b h h h i e w w w e h h h w w i h i w w w w w e i i ",
"w w i h h h i e w e i h h h i e w h h i i h i w w e i h h h i w w w i h h h i e w e i h h h i e w h h i i h i w w e i h h h i w ",
"i e w w w e i h w i x Z D Z b h i h h i i h h w h h Z Q H N h i i e w w w e i h w i x Z D Z b h i h h i i h h w h h Z Q H N h i ",
"h h e w w i h h e h b Z H Z M b h h i 0 0 e h i h b Z Q H N h h h h e w w i h h e h b Z H Z M b h h i 0 0 e h i h b Z Q H N h h ",
"w w w w w w e i w e i h h h h h w h h e w i i w i i h h h i w w w w w w w w e i w e i h h h h h w h h e w i i w i i h h h i w w ",
"w w w e e e e w h i e w w w i i w x H ] Q D h w i e w w w w w w w w w e e e e w h i e w w w e i w x H ] Q D h w i e w w w w w w ",
"i i i i h h h h h h i i i i h h i b Q ] Q H x w h h i i i h h h i i i i h h h h h h i i i i h h i b Q ] Q H x w h h i i i h h h ",
"i i w w w i h h w w w e e i i i w i i w w e e w w e i i i h h h h h w w w i h h w w w e e i i i w i i w w e e w w e i i i h h h ",
"e e e e e i h h i e e e e i i h h h e w e i h h e e e w w f f h d g g i g g h h i i w e e i h h h i e w e i h h i e w w w w i i ",
"w w i h h h i e i e e e e i i h w w e i i i e w e e h h h h f f d d g g k h i i i i w w e i h h w w e i i i e w e i h h h h i e ",
"i h M D D N h i i e e e e i i h h h i h h h h h h x S _ _ S m h g k z ' D C h i i i w w e i h h i i i h h h h h h b Z Q Q Z x h ",
"h h N H H N h h i e e e e i i h h h i w w i h h x N H _ _ S m h g k z W E C k h i i w w e i h h h h i w w i h h x M D Q Q Z b h ",
"e i h h h h i e i e e e e i i h i i i i i i e e i i h h h i h i i i g h h g i i i i w w w i i h i i i i i i e e h h h h h i i e ",
"i i e w w w e i i e e e e i i h w h N Q Q M i 0 h i w w w w w w i u u u u w i i i i w w e i i h w h N Q Q M i 0 h i w w w w w w ",
"h h h i i i i h i e e e e i i h i h Z ] ] N h w h h i i w u u i i i u u i i i h h w e w e i i h i h Z ] Q N h w h h i e w w e i ",
"i i i i i e w w i e e e e i i h h i h i h h h h h i i u 0 0 0 t y y y u u i i w h w e e e i i h h h h i i i i i i i i w w w w w ",
"w h h e w e i w h i e w w w i i i i h h h h d d k 0 k - a $ y y y a y $ W i - k g h e w w w i i w h h e w e i w h h h i e e w w ",
"w h h e w e i w i h Z ] { H M h h i e w w w h g , +.@ O ^ (.oX). X+ a t O h E 0 h l D ] { H B h w h h e w e i w h h h i e e i i ",
"w h h e w e i w w h N ] { H b h i i h h h f g g g X h W .X XOXoX XoXO ^ i k . ) d g S { { H x i w h h e w e i w h i w w w w w w ",
"w h h e w e i w w w e i i i i i w i N H ] S g d ..> - t oX). XoXoXQ.oX$ t > k w d d f i i i i i w h h e w e i w i i h h i i w w ",
"w h h e w e i w h h e w w w e i q i B H ] S g d @ ' k o.oXOX|.|.|.oX).U 0 - h k l g f w w w w i w h h e w e i w h b Z H H N x h ",
"w h h e w e i w h h h h i e w w i i i h h g l k ) k  .$ OXW.|.+X|.oX].* t n , k l g l h h t q q w h h e w e i w h h N H D N h h ",
"w h h e w e i w w e i h i e w 0 i i w w w d l l , W W 2  XOX+X+X!.|.oX+ t W , w d f g h h t q 0 w h h e w e i w w e i h h h i e ",
"w h h e w e i w i i e e e e i i w w i h h g g g g 5 : p OXOX{.+XOXoXE.I y @ { , g g f f e e t i w h h e w e i w i e w w w w i i ",
"e i i i i w w w w h H ] ] Q b e i i w w w i i i $ ^ . I % XXOX'.OXOXoX. : u k d w l _ } { Q b e e i i e w w w i w i e w e h h w ",
"i i i i i i i i w h b b M N x i w d h h h i t 0 :   Y t.D.x.b.+XOX}.3 / 5 u k . d h M S N S x e w e h h i w w w w i e w e h h w ",
"e w w w w e i i e h h i i h h i d g M D Z b h t a Y oX X'.}.I.r.b.b.S.Y X : ' { f h h f f h h i e h N D Z h h e w i e w e h h w ",
"h i e w w w e i e i i w w i h i g l M D D b h u $ $ oXOXOX+X`.+Xb.D.r.3.u T . = d h h d w f h e i h Z H Z b h h w i e w e h h w ",
"h h h h i i i i w i h e e h i w d g h h h i u 0 k _.oX(.OXOXOX+X}.OXXXOX5.W  .' d g g f e h h w w i h h i w w w w i e w e h h w ",
"i i i i i e w w w h h i i h i w h g w w w 0 0 t $ oX(.}.XXOXR.+XOX+XOXoX=.z.k i w g h h h h h w e i i w w w w i w i e w e h h w ",
"0 w i h h h i w i h h e e h i w h k h g i i i u y ).oXOX'.OXG.+X+XXX^.OX=.K.t C f g h f d g h w h h h i w w i h w i e w e h h w ",
"w h b Z H D N b h h h w w i i i h g g w w w 0 : $ oX_..XOXp.p.+X+X`.OX'.4.M.u k h h g w w h h w w e i i w w w w w i e w e h h w ",
"h h Z Q Q Z b h h h i e w w w i g l h w w i h y y .XoXOX'.x.OX`.+XXXOXOX:.M.W u h k h d d d w w h h h w w i h i w w w w w e i i ",
"w w i h h h i e w e i h h h i i d g g h i h i 0 a  X.X.XN.N.OXXXXX+X'.OX4.j.: t w g h g g g g i w h h i i h i w w e i h h h i w ",
"i e w w w e i h w i x Z D Z b h h k h h i h i t y oX XOXb.}.XX+XXX+X'.OX:.n.O.t w g z F ) F z h i h h i i h h w h h Z Q H N h i ",
"h h e w w i h h e h b Z H Z M b g k h 0 0 w i y y oXoX}.b.+XXX+X+X~.+XOX$.M.e.t i h z F ' ) z z h h i 0 0 e h i h b Z Q H N h h ",
"w w w w w w e i w e i h h h h h d g h w w i i 0 k  XoXM.r.OX+X+XXXW.+XXX0.t.Y.u t i g g g g g h w h h e w i i w i i h h h i w w ",
"w w w e e e e w h i e w w w i i d z D ] Q Z h 0 y .XoXp.v.XX+XXXXXXXXX[.^.4.k.k u i d w d g g g w x H ] Q D h w i e w w w w w w ",
"i i i i h h h h h h i i i i h h h z ] ] Q E k t $  XoXn.A.XX+X[.[.XX[.OXOX>.i.Y g h g g g g k k h b Q ] Q H x w h h i i i h h h ",
"i i w w w i h h w w w e e i i i u g g w w e t 0 y oX(.j.v.'.OX+X[.+X`.OX'.,.S.u t u u i g g g g w i i w w e e w w e i i i h h h ",
"e e e e e i h h i e e e e i i h g g i w e e i a a oX X& p.OX'.OXXXXX+Xm.P.;.s.k u u i i i i g g h i e w e i h h i e w w w w i i ",
"w w i h h h i e i e e e e i i h 5 5 i i e e e q $  XoX( N.E.OXR.+Xd.x.B.q.9.U.: u u i i i i i h w w e i i i e w e i h h h h i e ",
"i h M D D N h i i e e e e i i h g g i h s s s i R  XoXe.b.R.OXOX< L.g.x.}.@.7 u u u i i i i i h i i i h h h h h h b Z Q Q Z x h ",
"h h N H H N h h i e e e e i i h j g i w e e s s t R Y I.oXOX X.X6 g.x.C.y.| j k u i i i i i i h h h i w w i h h x M D Q Q Z b h ",
"e i h h h h i e i e e e e i i h u u i i e r e t t p 3 w.OXOX(.p P d.Z.H.l.j u = i i i i w i i h i i i i i i e e h h h h h i i e ",
"i i e w w w e i i e e e e i i h 0 g Z ! K B i 0 t p X I.OX/.oXY 6 d.H.h.a.o j k i i i i i i i h w h N Q Q M i 0 h i w w w w w w ",
"h h h i i i i h i e e e e i i h u k Z { K B i t : p Y f./.oX.X# 9 c.x.h.U.j k > i i i e e i i h i h Z ] Q N h w h h i e w w e i ",
"i i i i i e w w i e e e e i i h h h h i e e t u Y 3 j.N..XoXz.2 4 B.x.m.B.; g > i i e e e i i h h h h i i i i i i i i w w w w w ",
"w h h e w e i w h i e w w w i i u i i h i i t t u 3 C.S.}.M.k : 7 7.h.P.#.; j > h i e w w e e i i h h h h i e w h h h i e e w w ",
"w h h e w e i w i h Z ] { H M h h i e w w w t u u Y u.s.m.k. .; < 8.*.<.| T ; h i h Z { { H N x h h e w w w i h h h h i e e i i ",
"w h h e w e i w w h N ] { H b h h h h i i i i u T 4 T.m.V.# @ k 7 &.8.2.X > z > w h N { X.K x h h h h h h i i i h i w w w w w w ",
"w h h e w e i w w w e i i i i i w i Z Q K B i 0 @ 7 l.B.l.g C = j *.q.5.X k k 0 w w e e e e e e w h N Q Q M h w i i h h i i w w ",
"w h h e w e i w h h e w w w e i w i B K K N i t | j y.h.U.@ X.u 9 <.<.4 | u u h h h e w w w e e w h M Q Q N h w h b Z H H N x h ",
"w h h e w e i w h h h h h e w w i i i i i h h g ; a.P.J.T T k - 1 6.2.X j ; k 0 h h h h h e w w i i i h h h h h h h N H D N h h ",
"w h h e w e i w w e i h h e w 0 i t w w w e i j j h.B.s.8 u i h ; q.-.5.; W 0 > w e i h h e w w h i w w w e h h w e i h h h i e ",
"w h h e w e i w i i e e e e i i w t i i x i i u 5 V.H.s.j z w k j #.6.2.1.@ k h i e e e e e e i e e i h h h h i i e w w w w i i "
};
