/* XPM */
static char * collectable_1_xpm[] = {
"28 20 8 1",
" 	c None",
".	c #A99778",
"+	c #87674D",
"@	c #0C0C0C",
"#	c #1A1A1A",
"$	c #44281D",
"%	c #292929",
"&	c #5B3F34",
"   .++........@@#+.++++++   ",
"  .+$#########%@..$@@@@@$+  ",
" .+$###%%%%%%%#.+$@@@@##@$+ ",
" .+$##%%%%%%%%#.+$@@@####@$ ",
".+$###%%%%%%%#.+$@@@#####@$$",
".+$##%%%%%%%%#.+$@@@######@$",
".+$##%%%%%%%%#.+$@@@######@$",
".+$#########%#.+$@@@######@$",
".+$###..++$###.+$@@@@@@@@@@$",
".+$$+.+###++..+.$$$$$$$$$$$$",
".++&+++&&#++&&+.$$&&&&&$&$$$",
".$$$$++&$$+$$$$$$$$$$$$$$$$$",
" $+$#$++$++$#$+$@@@@@@@@@@$ ",
" +.$##$$$$$##+.$@@@@@@@@@@$ ",
" +.$@########+.$@@@@@@@@@@$ ",
" +.$@#%%%%%##+.$@@@######@$ ",
" +.$@#%%%%%%#+.$@@@######@$ ",
" +.$@@%%%%%%#$.$@@@######@$ ",
" +.$@@@@#####$&$@@@@@@@@@@$ ",
" ++$$$$$$$$$$$$$$$$$$$$$$$$ "};
