/* XPM */
static char * exit_1_xpm[] = {
"17 30 8 1",
" 	c None",
".	c #8FDE5D",
"+	c #3CA370",
"@	c #66A667",
"#	c #3D6E70",
"$	c #385660",
"%	c #323E4F",
"&	c #CFFF70",
"      ..++       ",
"     .+@@+.      ",
"     .@##@+      ",
"    .@#$$#@+     ",
"    .#$%%$#+     ",
"   &.#$%%$#++    ",
"   &.#%%%%+++    ",
"   ..$%%+++++    ",
"  ..#$%+++...    ",
"  ..$%++......   ",
"  .#$%+.......   ",
"  .#$++.+++...   ",
"  .#$+..++++.. ..",
"  .#$+.+%%%++. .&",
" +.#$+.%%%%$+. & ",
" +&.$++%..%$+.   ",
"  &.$++%+..$+.   ",
"  &..%+++&.$+.   ",
"  &&...%%&.$+.   ",
"  .&&&.....$+.   ",
"  +...&&..%@++   ",
"  .+#....%$++    ",
"   +#$%%%%$++    ",
"   +@#%%%%#+.    ",
"   ++#$%%$#+.    ",
"++  +@#$$#@+    .",
"+   ++####+.     ",
"     +@##@+      ",
"     ++@@+.      ",
"      ++++       "};
