/* XPM */
static char * player_xpm[] = {
"14 40 4 1",
" 	c None",
".	c #FFFCFC",
"+	c #BAC6D4",
"@	c #8595A8",
"    ....      ",
"   ......     ",
"   .......    ",
"   .......    ",
"   .......    ",
"   .......    ",
"   .......    ",
"    ......    ",
"    ++...     ",
"  ...++++     ",
" ......+++    ",
" .........@   ",
"...........@  ",
"...........@+ ",
".....+.....@+ ",
"....++.....@+ ",
"....+......@+ ",
"...++......@+ ",
"...+.......@+ ",
"...+........@+",
"..++........@+",
"..++........@+",
"..++........@+",
"..++........@+",
".. +......++@+",
".. +....++++@+",
"..++... ++++@ ",
"  +.... ++++  ",
"  +...  ++++  ",
"  +...  ++++  ",
"  +...  ++++  ",
" ++..+  ++++  ",
" ++.+   @++@  ",
" ++++   @@@   ",
" +++    @@@   ",
" +++    @@@   ",
" +++    @@    ",
"+++     @@    ",
"+++     @@@   ",
"+++     @@@@  "};
